G04 #@! TF.GenerationSoftware,KiCad,Pcbnew,(5.1.2-1)-1*
G04 #@! TF.CreationDate,2019-07-20T20:24:51-07:00*
G04 #@! TF.ProjectId,power_share,706f7765-725f-4736-9861-72652e6b6963,rev?*
G04 #@! TF.SameCoordinates,Original*
G04 #@! TF.FileFunction,Soldermask,Bot*
G04 #@! TF.FilePolarity,Negative*
%FSLAX46Y46*%
G04 Gerber Fmt 4.6, Leading zero omitted, Abs format (unit mm)*
G04 Created by KiCad (PCBNEW (5.1.2-1)-1) date 2019-07-20 20:24:51*
%MOMM*%
%LPD*%
G04 APERTURE LIST*
%ADD10C,0.100000*%
G04 APERTURE END LIST*
D10*
G36*
X114156443Y-98165519D02*
G01*
X114222627Y-98172037D01*
X114392466Y-98223557D01*
X114548991Y-98307222D01*
X114584729Y-98336552D01*
X114686186Y-98419814D01*
X114765951Y-98517009D01*
X114798778Y-98557009D01*
X114882443Y-98713534D01*
X114933963Y-98883373D01*
X114951359Y-99060000D01*
X114933963Y-99236627D01*
X114882443Y-99406466D01*
X114798778Y-99562991D01*
X114769448Y-99598729D01*
X114686186Y-99700186D01*
X114597731Y-99772778D01*
X114548991Y-99812778D01*
X114392466Y-99896443D01*
X114222627Y-99947963D01*
X114156443Y-99954481D01*
X114090260Y-99961000D01*
X114001740Y-99961000D01*
X113935557Y-99954481D01*
X113869373Y-99947963D01*
X113699534Y-99896443D01*
X113543009Y-99812778D01*
X113494269Y-99772778D01*
X113405814Y-99700186D01*
X113322552Y-99598729D01*
X113293222Y-99562991D01*
X113209557Y-99406466D01*
X113158037Y-99236627D01*
X113140641Y-99060000D01*
X113158037Y-98883373D01*
X113209557Y-98713534D01*
X113293222Y-98557009D01*
X113326049Y-98517009D01*
X113405814Y-98419814D01*
X113507271Y-98336552D01*
X113543009Y-98307222D01*
X113699534Y-98223557D01*
X113869373Y-98172037D01*
X113935557Y-98165519D01*
X114001740Y-98159000D01*
X114090260Y-98159000D01*
X114156443Y-98165519D01*
X114156443Y-98165519D01*
G37*
G36*
X138794443Y-98125519D02*
G01*
X138860627Y-98132037D01*
X139030466Y-98183557D01*
X139186991Y-98267222D01*
X139222729Y-98296552D01*
X139324186Y-98379814D01*
X139407448Y-98481271D01*
X139436778Y-98517009D01*
X139520443Y-98673534D01*
X139571963Y-98843373D01*
X139589359Y-99020000D01*
X139571963Y-99196627D01*
X139520443Y-99366466D01*
X139436778Y-99522991D01*
X139407448Y-99558729D01*
X139324186Y-99660186D01*
X139222729Y-99743448D01*
X139186991Y-99772778D01*
X139030466Y-99856443D01*
X138860627Y-99907963D01*
X138794443Y-99914481D01*
X138728260Y-99921000D01*
X138639740Y-99921000D01*
X138573557Y-99914481D01*
X138507373Y-99907963D01*
X138337534Y-99856443D01*
X138181009Y-99772778D01*
X138145271Y-99743448D01*
X138043814Y-99660186D01*
X137960552Y-99558729D01*
X137931222Y-99522991D01*
X137847557Y-99366466D01*
X137796037Y-99196627D01*
X137778641Y-99020000D01*
X137796037Y-98843373D01*
X137847557Y-98673534D01*
X137931222Y-98517009D01*
X137960552Y-98481271D01*
X138043814Y-98379814D01*
X138145271Y-98296552D01*
X138181009Y-98267222D01*
X138337534Y-98183557D01*
X138507373Y-98132037D01*
X138573557Y-98125519D01*
X138639740Y-98119000D01*
X138728260Y-98119000D01*
X138794443Y-98125519D01*
X138794443Y-98125519D01*
G37*
G36*
X114156442Y-95625518D02*
G01*
X114222627Y-95632037D01*
X114392466Y-95683557D01*
X114548991Y-95767222D01*
X114584729Y-95796552D01*
X114686186Y-95879814D01*
X114769448Y-95981271D01*
X114798778Y-96017009D01*
X114882443Y-96173534D01*
X114933963Y-96343373D01*
X114951359Y-96520000D01*
X114933963Y-96696627D01*
X114882443Y-96866466D01*
X114798778Y-97022991D01*
X114769448Y-97058729D01*
X114686186Y-97160186D01*
X114584729Y-97243448D01*
X114548991Y-97272778D01*
X114392466Y-97356443D01*
X114222627Y-97407963D01*
X114156442Y-97414482D01*
X114090260Y-97421000D01*
X114001740Y-97421000D01*
X113935558Y-97414482D01*
X113869373Y-97407963D01*
X113699534Y-97356443D01*
X113543009Y-97272778D01*
X113507271Y-97243448D01*
X113405814Y-97160186D01*
X113322552Y-97058729D01*
X113293222Y-97022991D01*
X113209557Y-96866466D01*
X113158037Y-96696627D01*
X113140641Y-96520000D01*
X113158037Y-96343373D01*
X113209557Y-96173534D01*
X113293222Y-96017009D01*
X113322552Y-95981271D01*
X113405814Y-95879814D01*
X113507271Y-95796552D01*
X113543009Y-95767222D01*
X113699534Y-95683557D01*
X113869373Y-95632037D01*
X113935558Y-95625518D01*
X114001740Y-95619000D01*
X114090260Y-95619000D01*
X114156442Y-95625518D01*
X114156442Y-95625518D01*
G37*
G36*
X139585000Y-97381000D02*
G01*
X137783000Y-97381000D01*
X137783000Y-95579000D01*
X139585000Y-95579000D01*
X139585000Y-97381000D01*
X139585000Y-97381000D01*
G37*
G36*
X114947000Y-94881000D02*
G01*
X113145000Y-94881000D01*
X113145000Y-93079000D01*
X114947000Y-93079000D01*
X114947000Y-94881000D01*
X114947000Y-94881000D01*
G37*
M02*
