G04 #@! TF.GenerationSoftware,KiCad,Pcbnew,(5.1.2-1)-1*
G04 #@! TF.CreationDate,2019-06-30T23:14:58-07:00*
G04 #@! TF.ProjectId,power_share,706f7765-725f-4736-9861-72652e6b6963,rev?*
G04 #@! TF.SameCoordinates,Original*
G04 #@! TF.FileFunction,Copper,L1,Top*
G04 #@! TF.FilePolarity,Positive*
%FSLAX46Y46*%
G04 Gerber Fmt 4.6, Leading zero omitted, Abs format (unit mm)*
G04 Created by KiCad (PCBNEW (5.1.2-1)-1) date 2019-06-30 23:14:58*
%MOMM*%
%LPD*%
G04 APERTURE LIST*
%ADD10R,6.400000X5.800000*%
%ADD11R,2.200000X1.200000*%
%ADD12O,1.700000X1.700000*%
%ADD13R,1.700000X1.700000*%
%ADD14C,0.100000*%
%ADD15C,0.950000*%
%ADD16C,0.300000*%
%ADD17C,1.525000*%
%ADD18C,0.889000*%
%ADD19C,0.660400*%
%ADD20C,0.152400*%
%ADD21C,0.304800*%
%ADD22C,0.254000*%
G04 APERTURE END LIST*
D10*
X128084000Y-106045000D03*
D11*
X121784000Y-108325000D03*
X121784000Y-106045000D03*
X121784000Y-103765000D03*
D10*
X128084000Y-87122000D03*
D11*
X121784000Y-89402000D03*
X121784000Y-87122000D03*
X121784000Y-84842000D03*
D12*
X139700000Y-99060000D03*
D13*
X139700000Y-96520000D03*
D12*
X114046000Y-99060000D03*
X114046000Y-96520000D03*
D13*
X114046000Y-93980000D03*
D14*
G36*
X127975779Y-96046144D02*
G01*
X127998834Y-96049563D01*
X128021443Y-96055227D01*
X128043387Y-96063079D01*
X128064457Y-96073044D01*
X128084448Y-96085026D01*
X128103168Y-96098910D01*
X128120438Y-96114562D01*
X128136090Y-96131832D01*
X128149974Y-96150552D01*
X128161956Y-96170543D01*
X128171921Y-96191613D01*
X128179773Y-96213557D01*
X128185437Y-96236166D01*
X128188856Y-96259221D01*
X128190000Y-96282500D01*
X128190000Y-96757500D01*
X128188856Y-96780779D01*
X128185437Y-96803834D01*
X128179773Y-96826443D01*
X128171921Y-96848387D01*
X128161956Y-96869457D01*
X128149974Y-96889448D01*
X128136090Y-96908168D01*
X128120438Y-96925438D01*
X128103168Y-96941090D01*
X128084448Y-96954974D01*
X128064457Y-96966956D01*
X128043387Y-96976921D01*
X128021443Y-96984773D01*
X127998834Y-96990437D01*
X127975779Y-96993856D01*
X127952500Y-96995000D01*
X127377500Y-96995000D01*
X127354221Y-96993856D01*
X127331166Y-96990437D01*
X127308557Y-96984773D01*
X127286613Y-96976921D01*
X127265543Y-96966956D01*
X127245552Y-96954974D01*
X127226832Y-96941090D01*
X127209562Y-96925438D01*
X127193910Y-96908168D01*
X127180026Y-96889448D01*
X127168044Y-96869457D01*
X127158079Y-96848387D01*
X127150227Y-96826443D01*
X127144563Y-96803834D01*
X127141144Y-96780779D01*
X127140000Y-96757500D01*
X127140000Y-96282500D01*
X127141144Y-96259221D01*
X127144563Y-96236166D01*
X127150227Y-96213557D01*
X127158079Y-96191613D01*
X127168044Y-96170543D01*
X127180026Y-96150552D01*
X127193910Y-96131832D01*
X127209562Y-96114562D01*
X127226832Y-96098910D01*
X127245552Y-96085026D01*
X127265543Y-96073044D01*
X127286613Y-96063079D01*
X127308557Y-96055227D01*
X127331166Y-96049563D01*
X127354221Y-96046144D01*
X127377500Y-96045000D01*
X127952500Y-96045000D01*
X127975779Y-96046144D01*
X127975779Y-96046144D01*
G37*
D15*
X127665000Y-96520000D03*
D14*
G36*
X126225779Y-96046144D02*
G01*
X126248834Y-96049563D01*
X126271443Y-96055227D01*
X126293387Y-96063079D01*
X126314457Y-96073044D01*
X126334448Y-96085026D01*
X126353168Y-96098910D01*
X126370438Y-96114562D01*
X126386090Y-96131832D01*
X126399974Y-96150552D01*
X126411956Y-96170543D01*
X126421921Y-96191613D01*
X126429773Y-96213557D01*
X126435437Y-96236166D01*
X126438856Y-96259221D01*
X126440000Y-96282500D01*
X126440000Y-96757500D01*
X126438856Y-96780779D01*
X126435437Y-96803834D01*
X126429773Y-96826443D01*
X126421921Y-96848387D01*
X126411956Y-96869457D01*
X126399974Y-96889448D01*
X126386090Y-96908168D01*
X126370438Y-96925438D01*
X126353168Y-96941090D01*
X126334448Y-96954974D01*
X126314457Y-96966956D01*
X126293387Y-96976921D01*
X126271443Y-96984773D01*
X126248834Y-96990437D01*
X126225779Y-96993856D01*
X126202500Y-96995000D01*
X125627500Y-96995000D01*
X125604221Y-96993856D01*
X125581166Y-96990437D01*
X125558557Y-96984773D01*
X125536613Y-96976921D01*
X125515543Y-96966956D01*
X125495552Y-96954974D01*
X125476832Y-96941090D01*
X125459562Y-96925438D01*
X125443910Y-96908168D01*
X125430026Y-96889448D01*
X125418044Y-96869457D01*
X125408079Y-96848387D01*
X125400227Y-96826443D01*
X125394563Y-96803834D01*
X125391144Y-96780779D01*
X125390000Y-96757500D01*
X125390000Y-96282500D01*
X125391144Y-96259221D01*
X125394563Y-96236166D01*
X125400227Y-96213557D01*
X125408079Y-96191613D01*
X125418044Y-96170543D01*
X125430026Y-96150552D01*
X125443910Y-96131832D01*
X125459562Y-96114562D01*
X125476832Y-96098910D01*
X125495552Y-96085026D01*
X125515543Y-96073044D01*
X125536613Y-96063079D01*
X125558557Y-96055227D01*
X125581166Y-96049563D01*
X125604221Y-96046144D01*
X125627500Y-96045000D01*
X126202500Y-96045000D01*
X126225779Y-96046144D01*
X126225779Y-96046144D01*
G37*
D15*
X125915000Y-96520000D03*
D14*
G36*
X120312351Y-93645361D02*
G01*
X120319632Y-93646441D01*
X120326771Y-93648229D01*
X120333701Y-93650709D01*
X120340355Y-93653856D01*
X120346668Y-93657640D01*
X120352579Y-93662024D01*
X120358033Y-93666967D01*
X120362976Y-93672421D01*
X120367360Y-93678332D01*
X120371144Y-93684645D01*
X120374291Y-93691299D01*
X120376771Y-93698229D01*
X120378559Y-93705368D01*
X120379639Y-93712649D01*
X120380000Y-93720000D01*
X120380000Y-95020000D01*
X120379639Y-95027351D01*
X120378559Y-95034632D01*
X120376771Y-95041771D01*
X120374291Y-95048701D01*
X120371144Y-95055355D01*
X120367360Y-95061668D01*
X120362976Y-95067579D01*
X120358033Y-95073033D01*
X120352579Y-95077976D01*
X120346668Y-95082360D01*
X120340355Y-95086144D01*
X120333701Y-95089291D01*
X120326771Y-95091771D01*
X120319632Y-95093559D01*
X120312351Y-95094639D01*
X120305000Y-95095000D01*
X120155000Y-95095000D01*
X120147649Y-95094639D01*
X120140368Y-95093559D01*
X120133229Y-95091771D01*
X120126299Y-95089291D01*
X120119645Y-95086144D01*
X120113332Y-95082360D01*
X120107421Y-95077976D01*
X120101967Y-95073033D01*
X120097024Y-95067579D01*
X120092640Y-95061668D01*
X120088856Y-95055355D01*
X120085709Y-95048701D01*
X120083229Y-95041771D01*
X120081441Y-95034632D01*
X120080361Y-95027351D01*
X120080000Y-95020000D01*
X120080000Y-93720000D01*
X120080361Y-93712649D01*
X120081441Y-93705368D01*
X120083229Y-93698229D01*
X120085709Y-93691299D01*
X120088856Y-93684645D01*
X120092640Y-93678332D01*
X120097024Y-93672421D01*
X120101967Y-93666967D01*
X120107421Y-93662024D01*
X120113332Y-93657640D01*
X120119645Y-93653856D01*
X120126299Y-93650709D01*
X120133229Y-93648229D01*
X120140368Y-93646441D01*
X120147649Y-93645361D01*
X120155000Y-93645000D01*
X120305000Y-93645000D01*
X120312351Y-93645361D01*
X120312351Y-93645361D01*
G37*
D16*
X120230000Y-94370000D03*
D14*
G36*
X120812351Y-93645361D02*
G01*
X120819632Y-93646441D01*
X120826771Y-93648229D01*
X120833701Y-93650709D01*
X120840355Y-93653856D01*
X120846668Y-93657640D01*
X120852579Y-93662024D01*
X120858033Y-93666967D01*
X120862976Y-93672421D01*
X120867360Y-93678332D01*
X120871144Y-93684645D01*
X120874291Y-93691299D01*
X120876771Y-93698229D01*
X120878559Y-93705368D01*
X120879639Y-93712649D01*
X120880000Y-93720000D01*
X120880000Y-95020000D01*
X120879639Y-95027351D01*
X120878559Y-95034632D01*
X120876771Y-95041771D01*
X120874291Y-95048701D01*
X120871144Y-95055355D01*
X120867360Y-95061668D01*
X120862976Y-95067579D01*
X120858033Y-95073033D01*
X120852579Y-95077976D01*
X120846668Y-95082360D01*
X120840355Y-95086144D01*
X120833701Y-95089291D01*
X120826771Y-95091771D01*
X120819632Y-95093559D01*
X120812351Y-95094639D01*
X120805000Y-95095000D01*
X120655000Y-95095000D01*
X120647649Y-95094639D01*
X120640368Y-95093559D01*
X120633229Y-95091771D01*
X120626299Y-95089291D01*
X120619645Y-95086144D01*
X120613332Y-95082360D01*
X120607421Y-95077976D01*
X120601967Y-95073033D01*
X120597024Y-95067579D01*
X120592640Y-95061668D01*
X120588856Y-95055355D01*
X120585709Y-95048701D01*
X120583229Y-95041771D01*
X120581441Y-95034632D01*
X120580361Y-95027351D01*
X120580000Y-95020000D01*
X120580000Y-93720000D01*
X120580361Y-93712649D01*
X120581441Y-93705368D01*
X120583229Y-93698229D01*
X120585709Y-93691299D01*
X120588856Y-93684645D01*
X120592640Y-93678332D01*
X120597024Y-93672421D01*
X120601967Y-93666967D01*
X120607421Y-93662024D01*
X120613332Y-93657640D01*
X120619645Y-93653856D01*
X120626299Y-93650709D01*
X120633229Y-93648229D01*
X120640368Y-93646441D01*
X120647649Y-93645361D01*
X120655000Y-93645000D01*
X120805000Y-93645000D01*
X120812351Y-93645361D01*
X120812351Y-93645361D01*
G37*
D16*
X120730000Y-94370000D03*
D14*
G36*
X121312351Y-93645361D02*
G01*
X121319632Y-93646441D01*
X121326771Y-93648229D01*
X121333701Y-93650709D01*
X121340355Y-93653856D01*
X121346668Y-93657640D01*
X121352579Y-93662024D01*
X121358033Y-93666967D01*
X121362976Y-93672421D01*
X121367360Y-93678332D01*
X121371144Y-93684645D01*
X121374291Y-93691299D01*
X121376771Y-93698229D01*
X121378559Y-93705368D01*
X121379639Y-93712649D01*
X121380000Y-93720000D01*
X121380000Y-95020000D01*
X121379639Y-95027351D01*
X121378559Y-95034632D01*
X121376771Y-95041771D01*
X121374291Y-95048701D01*
X121371144Y-95055355D01*
X121367360Y-95061668D01*
X121362976Y-95067579D01*
X121358033Y-95073033D01*
X121352579Y-95077976D01*
X121346668Y-95082360D01*
X121340355Y-95086144D01*
X121333701Y-95089291D01*
X121326771Y-95091771D01*
X121319632Y-95093559D01*
X121312351Y-95094639D01*
X121305000Y-95095000D01*
X121155000Y-95095000D01*
X121147649Y-95094639D01*
X121140368Y-95093559D01*
X121133229Y-95091771D01*
X121126299Y-95089291D01*
X121119645Y-95086144D01*
X121113332Y-95082360D01*
X121107421Y-95077976D01*
X121101967Y-95073033D01*
X121097024Y-95067579D01*
X121092640Y-95061668D01*
X121088856Y-95055355D01*
X121085709Y-95048701D01*
X121083229Y-95041771D01*
X121081441Y-95034632D01*
X121080361Y-95027351D01*
X121080000Y-95020000D01*
X121080000Y-93720000D01*
X121080361Y-93712649D01*
X121081441Y-93705368D01*
X121083229Y-93698229D01*
X121085709Y-93691299D01*
X121088856Y-93684645D01*
X121092640Y-93678332D01*
X121097024Y-93672421D01*
X121101967Y-93666967D01*
X121107421Y-93662024D01*
X121113332Y-93657640D01*
X121119645Y-93653856D01*
X121126299Y-93650709D01*
X121133229Y-93648229D01*
X121140368Y-93646441D01*
X121147649Y-93645361D01*
X121155000Y-93645000D01*
X121305000Y-93645000D01*
X121312351Y-93645361D01*
X121312351Y-93645361D01*
G37*
D16*
X121230000Y-94370000D03*
D14*
G36*
X121812351Y-93645361D02*
G01*
X121819632Y-93646441D01*
X121826771Y-93648229D01*
X121833701Y-93650709D01*
X121840355Y-93653856D01*
X121846668Y-93657640D01*
X121852579Y-93662024D01*
X121858033Y-93666967D01*
X121862976Y-93672421D01*
X121867360Y-93678332D01*
X121871144Y-93684645D01*
X121874291Y-93691299D01*
X121876771Y-93698229D01*
X121878559Y-93705368D01*
X121879639Y-93712649D01*
X121880000Y-93720000D01*
X121880000Y-95020000D01*
X121879639Y-95027351D01*
X121878559Y-95034632D01*
X121876771Y-95041771D01*
X121874291Y-95048701D01*
X121871144Y-95055355D01*
X121867360Y-95061668D01*
X121862976Y-95067579D01*
X121858033Y-95073033D01*
X121852579Y-95077976D01*
X121846668Y-95082360D01*
X121840355Y-95086144D01*
X121833701Y-95089291D01*
X121826771Y-95091771D01*
X121819632Y-95093559D01*
X121812351Y-95094639D01*
X121805000Y-95095000D01*
X121655000Y-95095000D01*
X121647649Y-95094639D01*
X121640368Y-95093559D01*
X121633229Y-95091771D01*
X121626299Y-95089291D01*
X121619645Y-95086144D01*
X121613332Y-95082360D01*
X121607421Y-95077976D01*
X121601967Y-95073033D01*
X121597024Y-95067579D01*
X121592640Y-95061668D01*
X121588856Y-95055355D01*
X121585709Y-95048701D01*
X121583229Y-95041771D01*
X121581441Y-95034632D01*
X121580361Y-95027351D01*
X121580000Y-95020000D01*
X121580000Y-93720000D01*
X121580361Y-93712649D01*
X121581441Y-93705368D01*
X121583229Y-93698229D01*
X121585709Y-93691299D01*
X121588856Y-93684645D01*
X121592640Y-93678332D01*
X121597024Y-93672421D01*
X121601967Y-93666967D01*
X121607421Y-93662024D01*
X121613332Y-93657640D01*
X121619645Y-93653856D01*
X121626299Y-93650709D01*
X121633229Y-93648229D01*
X121640368Y-93646441D01*
X121647649Y-93645361D01*
X121655000Y-93645000D01*
X121805000Y-93645000D01*
X121812351Y-93645361D01*
X121812351Y-93645361D01*
G37*
D16*
X121730000Y-94370000D03*
D14*
G36*
X122312351Y-93645361D02*
G01*
X122319632Y-93646441D01*
X122326771Y-93648229D01*
X122333701Y-93650709D01*
X122340355Y-93653856D01*
X122346668Y-93657640D01*
X122352579Y-93662024D01*
X122358033Y-93666967D01*
X122362976Y-93672421D01*
X122367360Y-93678332D01*
X122371144Y-93684645D01*
X122374291Y-93691299D01*
X122376771Y-93698229D01*
X122378559Y-93705368D01*
X122379639Y-93712649D01*
X122380000Y-93720000D01*
X122380000Y-95020000D01*
X122379639Y-95027351D01*
X122378559Y-95034632D01*
X122376771Y-95041771D01*
X122374291Y-95048701D01*
X122371144Y-95055355D01*
X122367360Y-95061668D01*
X122362976Y-95067579D01*
X122358033Y-95073033D01*
X122352579Y-95077976D01*
X122346668Y-95082360D01*
X122340355Y-95086144D01*
X122333701Y-95089291D01*
X122326771Y-95091771D01*
X122319632Y-95093559D01*
X122312351Y-95094639D01*
X122305000Y-95095000D01*
X122155000Y-95095000D01*
X122147649Y-95094639D01*
X122140368Y-95093559D01*
X122133229Y-95091771D01*
X122126299Y-95089291D01*
X122119645Y-95086144D01*
X122113332Y-95082360D01*
X122107421Y-95077976D01*
X122101967Y-95073033D01*
X122097024Y-95067579D01*
X122092640Y-95061668D01*
X122088856Y-95055355D01*
X122085709Y-95048701D01*
X122083229Y-95041771D01*
X122081441Y-95034632D01*
X122080361Y-95027351D01*
X122080000Y-95020000D01*
X122080000Y-93720000D01*
X122080361Y-93712649D01*
X122081441Y-93705368D01*
X122083229Y-93698229D01*
X122085709Y-93691299D01*
X122088856Y-93684645D01*
X122092640Y-93678332D01*
X122097024Y-93672421D01*
X122101967Y-93666967D01*
X122107421Y-93662024D01*
X122113332Y-93657640D01*
X122119645Y-93653856D01*
X122126299Y-93650709D01*
X122133229Y-93648229D01*
X122140368Y-93646441D01*
X122147649Y-93645361D01*
X122155000Y-93645000D01*
X122305000Y-93645000D01*
X122312351Y-93645361D01*
X122312351Y-93645361D01*
G37*
D16*
X122230000Y-94370000D03*
D14*
G36*
X122812351Y-93645361D02*
G01*
X122819632Y-93646441D01*
X122826771Y-93648229D01*
X122833701Y-93650709D01*
X122840355Y-93653856D01*
X122846668Y-93657640D01*
X122852579Y-93662024D01*
X122858033Y-93666967D01*
X122862976Y-93672421D01*
X122867360Y-93678332D01*
X122871144Y-93684645D01*
X122874291Y-93691299D01*
X122876771Y-93698229D01*
X122878559Y-93705368D01*
X122879639Y-93712649D01*
X122880000Y-93720000D01*
X122880000Y-95020000D01*
X122879639Y-95027351D01*
X122878559Y-95034632D01*
X122876771Y-95041771D01*
X122874291Y-95048701D01*
X122871144Y-95055355D01*
X122867360Y-95061668D01*
X122862976Y-95067579D01*
X122858033Y-95073033D01*
X122852579Y-95077976D01*
X122846668Y-95082360D01*
X122840355Y-95086144D01*
X122833701Y-95089291D01*
X122826771Y-95091771D01*
X122819632Y-95093559D01*
X122812351Y-95094639D01*
X122805000Y-95095000D01*
X122655000Y-95095000D01*
X122647649Y-95094639D01*
X122640368Y-95093559D01*
X122633229Y-95091771D01*
X122626299Y-95089291D01*
X122619645Y-95086144D01*
X122613332Y-95082360D01*
X122607421Y-95077976D01*
X122601967Y-95073033D01*
X122597024Y-95067579D01*
X122592640Y-95061668D01*
X122588856Y-95055355D01*
X122585709Y-95048701D01*
X122583229Y-95041771D01*
X122581441Y-95034632D01*
X122580361Y-95027351D01*
X122580000Y-95020000D01*
X122580000Y-93720000D01*
X122580361Y-93712649D01*
X122581441Y-93705368D01*
X122583229Y-93698229D01*
X122585709Y-93691299D01*
X122588856Y-93684645D01*
X122592640Y-93678332D01*
X122597024Y-93672421D01*
X122601967Y-93666967D01*
X122607421Y-93662024D01*
X122613332Y-93657640D01*
X122619645Y-93653856D01*
X122626299Y-93650709D01*
X122633229Y-93648229D01*
X122640368Y-93646441D01*
X122647649Y-93645361D01*
X122655000Y-93645000D01*
X122805000Y-93645000D01*
X122812351Y-93645361D01*
X122812351Y-93645361D01*
G37*
D16*
X122730000Y-94370000D03*
D14*
G36*
X123312351Y-93645361D02*
G01*
X123319632Y-93646441D01*
X123326771Y-93648229D01*
X123333701Y-93650709D01*
X123340355Y-93653856D01*
X123346668Y-93657640D01*
X123352579Y-93662024D01*
X123358033Y-93666967D01*
X123362976Y-93672421D01*
X123367360Y-93678332D01*
X123371144Y-93684645D01*
X123374291Y-93691299D01*
X123376771Y-93698229D01*
X123378559Y-93705368D01*
X123379639Y-93712649D01*
X123380000Y-93720000D01*
X123380000Y-95020000D01*
X123379639Y-95027351D01*
X123378559Y-95034632D01*
X123376771Y-95041771D01*
X123374291Y-95048701D01*
X123371144Y-95055355D01*
X123367360Y-95061668D01*
X123362976Y-95067579D01*
X123358033Y-95073033D01*
X123352579Y-95077976D01*
X123346668Y-95082360D01*
X123340355Y-95086144D01*
X123333701Y-95089291D01*
X123326771Y-95091771D01*
X123319632Y-95093559D01*
X123312351Y-95094639D01*
X123305000Y-95095000D01*
X123155000Y-95095000D01*
X123147649Y-95094639D01*
X123140368Y-95093559D01*
X123133229Y-95091771D01*
X123126299Y-95089291D01*
X123119645Y-95086144D01*
X123113332Y-95082360D01*
X123107421Y-95077976D01*
X123101967Y-95073033D01*
X123097024Y-95067579D01*
X123092640Y-95061668D01*
X123088856Y-95055355D01*
X123085709Y-95048701D01*
X123083229Y-95041771D01*
X123081441Y-95034632D01*
X123080361Y-95027351D01*
X123080000Y-95020000D01*
X123080000Y-93720000D01*
X123080361Y-93712649D01*
X123081441Y-93705368D01*
X123083229Y-93698229D01*
X123085709Y-93691299D01*
X123088856Y-93684645D01*
X123092640Y-93678332D01*
X123097024Y-93672421D01*
X123101967Y-93666967D01*
X123107421Y-93662024D01*
X123113332Y-93657640D01*
X123119645Y-93653856D01*
X123126299Y-93650709D01*
X123133229Y-93648229D01*
X123140368Y-93646441D01*
X123147649Y-93645361D01*
X123155000Y-93645000D01*
X123305000Y-93645000D01*
X123312351Y-93645361D01*
X123312351Y-93645361D01*
G37*
D16*
X123230000Y-94370000D03*
D14*
G36*
X123812351Y-93645361D02*
G01*
X123819632Y-93646441D01*
X123826771Y-93648229D01*
X123833701Y-93650709D01*
X123840355Y-93653856D01*
X123846668Y-93657640D01*
X123852579Y-93662024D01*
X123858033Y-93666967D01*
X123862976Y-93672421D01*
X123867360Y-93678332D01*
X123871144Y-93684645D01*
X123874291Y-93691299D01*
X123876771Y-93698229D01*
X123878559Y-93705368D01*
X123879639Y-93712649D01*
X123880000Y-93720000D01*
X123880000Y-95020000D01*
X123879639Y-95027351D01*
X123878559Y-95034632D01*
X123876771Y-95041771D01*
X123874291Y-95048701D01*
X123871144Y-95055355D01*
X123867360Y-95061668D01*
X123862976Y-95067579D01*
X123858033Y-95073033D01*
X123852579Y-95077976D01*
X123846668Y-95082360D01*
X123840355Y-95086144D01*
X123833701Y-95089291D01*
X123826771Y-95091771D01*
X123819632Y-95093559D01*
X123812351Y-95094639D01*
X123805000Y-95095000D01*
X123655000Y-95095000D01*
X123647649Y-95094639D01*
X123640368Y-95093559D01*
X123633229Y-95091771D01*
X123626299Y-95089291D01*
X123619645Y-95086144D01*
X123613332Y-95082360D01*
X123607421Y-95077976D01*
X123601967Y-95073033D01*
X123597024Y-95067579D01*
X123592640Y-95061668D01*
X123588856Y-95055355D01*
X123585709Y-95048701D01*
X123583229Y-95041771D01*
X123581441Y-95034632D01*
X123580361Y-95027351D01*
X123580000Y-95020000D01*
X123580000Y-93720000D01*
X123580361Y-93712649D01*
X123581441Y-93705368D01*
X123583229Y-93698229D01*
X123585709Y-93691299D01*
X123588856Y-93684645D01*
X123592640Y-93678332D01*
X123597024Y-93672421D01*
X123601967Y-93666967D01*
X123607421Y-93662024D01*
X123613332Y-93657640D01*
X123619645Y-93653856D01*
X123626299Y-93650709D01*
X123633229Y-93648229D01*
X123640368Y-93646441D01*
X123647649Y-93645361D01*
X123655000Y-93645000D01*
X123805000Y-93645000D01*
X123812351Y-93645361D01*
X123812351Y-93645361D01*
G37*
D16*
X123730000Y-94370000D03*
D14*
G36*
X123812351Y-97945361D02*
G01*
X123819632Y-97946441D01*
X123826771Y-97948229D01*
X123833701Y-97950709D01*
X123840355Y-97953856D01*
X123846668Y-97957640D01*
X123852579Y-97962024D01*
X123858033Y-97966967D01*
X123862976Y-97972421D01*
X123867360Y-97978332D01*
X123871144Y-97984645D01*
X123874291Y-97991299D01*
X123876771Y-97998229D01*
X123878559Y-98005368D01*
X123879639Y-98012649D01*
X123880000Y-98020000D01*
X123880000Y-99320000D01*
X123879639Y-99327351D01*
X123878559Y-99334632D01*
X123876771Y-99341771D01*
X123874291Y-99348701D01*
X123871144Y-99355355D01*
X123867360Y-99361668D01*
X123862976Y-99367579D01*
X123858033Y-99373033D01*
X123852579Y-99377976D01*
X123846668Y-99382360D01*
X123840355Y-99386144D01*
X123833701Y-99389291D01*
X123826771Y-99391771D01*
X123819632Y-99393559D01*
X123812351Y-99394639D01*
X123805000Y-99395000D01*
X123655000Y-99395000D01*
X123647649Y-99394639D01*
X123640368Y-99393559D01*
X123633229Y-99391771D01*
X123626299Y-99389291D01*
X123619645Y-99386144D01*
X123613332Y-99382360D01*
X123607421Y-99377976D01*
X123601967Y-99373033D01*
X123597024Y-99367579D01*
X123592640Y-99361668D01*
X123588856Y-99355355D01*
X123585709Y-99348701D01*
X123583229Y-99341771D01*
X123581441Y-99334632D01*
X123580361Y-99327351D01*
X123580000Y-99320000D01*
X123580000Y-98020000D01*
X123580361Y-98012649D01*
X123581441Y-98005368D01*
X123583229Y-97998229D01*
X123585709Y-97991299D01*
X123588856Y-97984645D01*
X123592640Y-97978332D01*
X123597024Y-97972421D01*
X123601967Y-97966967D01*
X123607421Y-97962024D01*
X123613332Y-97957640D01*
X123619645Y-97953856D01*
X123626299Y-97950709D01*
X123633229Y-97948229D01*
X123640368Y-97946441D01*
X123647649Y-97945361D01*
X123655000Y-97945000D01*
X123805000Y-97945000D01*
X123812351Y-97945361D01*
X123812351Y-97945361D01*
G37*
D16*
X123730000Y-98670000D03*
D14*
G36*
X123312351Y-97945361D02*
G01*
X123319632Y-97946441D01*
X123326771Y-97948229D01*
X123333701Y-97950709D01*
X123340355Y-97953856D01*
X123346668Y-97957640D01*
X123352579Y-97962024D01*
X123358033Y-97966967D01*
X123362976Y-97972421D01*
X123367360Y-97978332D01*
X123371144Y-97984645D01*
X123374291Y-97991299D01*
X123376771Y-97998229D01*
X123378559Y-98005368D01*
X123379639Y-98012649D01*
X123380000Y-98020000D01*
X123380000Y-99320000D01*
X123379639Y-99327351D01*
X123378559Y-99334632D01*
X123376771Y-99341771D01*
X123374291Y-99348701D01*
X123371144Y-99355355D01*
X123367360Y-99361668D01*
X123362976Y-99367579D01*
X123358033Y-99373033D01*
X123352579Y-99377976D01*
X123346668Y-99382360D01*
X123340355Y-99386144D01*
X123333701Y-99389291D01*
X123326771Y-99391771D01*
X123319632Y-99393559D01*
X123312351Y-99394639D01*
X123305000Y-99395000D01*
X123155000Y-99395000D01*
X123147649Y-99394639D01*
X123140368Y-99393559D01*
X123133229Y-99391771D01*
X123126299Y-99389291D01*
X123119645Y-99386144D01*
X123113332Y-99382360D01*
X123107421Y-99377976D01*
X123101967Y-99373033D01*
X123097024Y-99367579D01*
X123092640Y-99361668D01*
X123088856Y-99355355D01*
X123085709Y-99348701D01*
X123083229Y-99341771D01*
X123081441Y-99334632D01*
X123080361Y-99327351D01*
X123080000Y-99320000D01*
X123080000Y-98020000D01*
X123080361Y-98012649D01*
X123081441Y-98005368D01*
X123083229Y-97998229D01*
X123085709Y-97991299D01*
X123088856Y-97984645D01*
X123092640Y-97978332D01*
X123097024Y-97972421D01*
X123101967Y-97966967D01*
X123107421Y-97962024D01*
X123113332Y-97957640D01*
X123119645Y-97953856D01*
X123126299Y-97950709D01*
X123133229Y-97948229D01*
X123140368Y-97946441D01*
X123147649Y-97945361D01*
X123155000Y-97945000D01*
X123305000Y-97945000D01*
X123312351Y-97945361D01*
X123312351Y-97945361D01*
G37*
D16*
X123230000Y-98670000D03*
D14*
G36*
X122812351Y-97945361D02*
G01*
X122819632Y-97946441D01*
X122826771Y-97948229D01*
X122833701Y-97950709D01*
X122840355Y-97953856D01*
X122846668Y-97957640D01*
X122852579Y-97962024D01*
X122858033Y-97966967D01*
X122862976Y-97972421D01*
X122867360Y-97978332D01*
X122871144Y-97984645D01*
X122874291Y-97991299D01*
X122876771Y-97998229D01*
X122878559Y-98005368D01*
X122879639Y-98012649D01*
X122880000Y-98020000D01*
X122880000Y-99320000D01*
X122879639Y-99327351D01*
X122878559Y-99334632D01*
X122876771Y-99341771D01*
X122874291Y-99348701D01*
X122871144Y-99355355D01*
X122867360Y-99361668D01*
X122862976Y-99367579D01*
X122858033Y-99373033D01*
X122852579Y-99377976D01*
X122846668Y-99382360D01*
X122840355Y-99386144D01*
X122833701Y-99389291D01*
X122826771Y-99391771D01*
X122819632Y-99393559D01*
X122812351Y-99394639D01*
X122805000Y-99395000D01*
X122655000Y-99395000D01*
X122647649Y-99394639D01*
X122640368Y-99393559D01*
X122633229Y-99391771D01*
X122626299Y-99389291D01*
X122619645Y-99386144D01*
X122613332Y-99382360D01*
X122607421Y-99377976D01*
X122601967Y-99373033D01*
X122597024Y-99367579D01*
X122592640Y-99361668D01*
X122588856Y-99355355D01*
X122585709Y-99348701D01*
X122583229Y-99341771D01*
X122581441Y-99334632D01*
X122580361Y-99327351D01*
X122580000Y-99320000D01*
X122580000Y-98020000D01*
X122580361Y-98012649D01*
X122581441Y-98005368D01*
X122583229Y-97998229D01*
X122585709Y-97991299D01*
X122588856Y-97984645D01*
X122592640Y-97978332D01*
X122597024Y-97972421D01*
X122601967Y-97966967D01*
X122607421Y-97962024D01*
X122613332Y-97957640D01*
X122619645Y-97953856D01*
X122626299Y-97950709D01*
X122633229Y-97948229D01*
X122640368Y-97946441D01*
X122647649Y-97945361D01*
X122655000Y-97945000D01*
X122805000Y-97945000D01*
X122812351Y-97945361D01*
X122812351Y-97945361D01*
G37*
D16*
X122730000Y-98670000D03*
D14*
G36*
X122312351Y-97945361D02*
G01*
X122319632Y-97946441D01*
X122326771Y-97948229D01*
X122333701Y-97950709D01*
X122340355Y-97953856D01*
X122346668Y-97957640D01*
X122352579Y-97962024D01*
X122358033Y-97966967D01*
X122362976Y-97972421D01*
X122367360Y-97978332D01*
X122371144Y-97984645D01*
X122374291Y-97991299D01*
X122376771Y-97998229D01*
X122378559Y-98005368D01*
X122379639Y-98012649D01*
X122380000Y-98020000D01*
X122380000Y-99320000D01*
X122379639Y-99327351D01*
X122378559Y-99334632D01*
X122376771Y-99341771D01*
X122374291Y-99348701D01*
X122371144Y-99355355D01*
X122367360Y-99361668D01*
X122362976Y-99367579D01*
X122358033Y-99373033D01*
X122352579Y-99377976D01*
X122346668Y-99382360D01*
X122340355Y-99386144D01*
X122333701Y-99389291D01*
X122326771Y-99391771D01*
X122319632Y-99393559D01*
X122312351Y-99394639D01*
X122305000Y-99395000D01*
X122155000Y-99395000D01*
X122147649Y-99394639D01*
X122140368Y-99393559D01*
X122133229Y-99391771D01*
X122126299Y-99389291D01*
X122119645Y-99386144D01*
X122113332Y-99382360D01*
X122107421Y-99377976D01*
X122101967Y-99373033D01*
X122097024Y-99367579D01*
X122092640Y-99361668D01*
X122088856Y-99355355D01*
X122085709Y-99348701D01*
X122083229Y-99341771D01*
X122081441Y-99334632D01*
X122080361Y-99327351D01*
X122080000Y-99320000D01*
X122080000Y-98020000D01*
X122080361Y-98012649D01*
X122081441Y-98005368D01*
X122083229Y-97998229D01*
X122085709Y-97991299D01*
X122088856Y-97984645D01*
X122092640Y-97978332D01*
X122097024Y-97972421D01*
X122101967Y-97966967D01*
X122107421Y-97962024D01*
X122113332Y-97957640D01*
X122119645Y-97953856D01*
X122126299Y-97950709D01*
X122133229Y-97948229D01*
X122140368Y-97946441D01*
X122147649Y-97945361D01*
X122155000Y-97945000D01*
X122305000Y-97945000D01*
X122312351Y-97945361D01*
X122312351Y-97945361D01*
G37*
D16*
X122230000Y-98670000D03*
D14*
G36*
X121812351Y-97945361D02*
G01*
X121819632Y-97946441D01*
X121826771Y-97948229D01*
X121833701Y-97950709D01*
X121840355Y-97953856D01*
X121846668Y-97957640D01*
X121852579Y-97962024D01*
X121858033Y-97966967D01*
X121862976Y-97972421D01*
X121867360Y-97978332D01*
X121871144Y-97984645D01*
X121874291Y-97991299D01*
X121876771Y-97998229D01*
X121878559Y-98005368D01*
X121879639Y-98012649D01*
X121880000Y-98020000D01*
X121880000Y-99320000D01*
X121879639Y-99327351D01*
X121878559Y-99334632D01*
X121876771Y-99341771D01*
X121874291Y-99348701D01*
X121871144Y-99355355D01*
X121867360Y-99361668D01*
X121862976Y-99367579D01*
X121858033Y-99373033D01*
X121852579Y-99377976D01*
X121846668Y-99382360D01*
X121840355Y-99386144D01*
X121833701Y-99389291D01*
X121826771Y-99391771D01*
X121819632Y-99393559D01*
X121812351Y-99394639D01*
X121805000Y-99395000D01*
X121655000Y-99395000D01*
X121647649Y-99394639D01*
X121640368Y-99393559D01*
X121633229Y-99391771D01*
X121626299Y-99389291D01*
X121619645Y-99386144D01*
X121613332Y-99382360D01*
X121607421Y-99377976D01*
X121601967Y-99373033D01*
X121597024Y-99367579D01*
X121592640Y-99361668D01*
X121588856Y-99355355D01*
X121585709Y-99348701D01*
X121583229Y-99341771D01*
X121581441Y-99334632D01*
X121580361Y-99327351D01*
X121580000Y-99320000D01*
X121580000Y-98020000D01*
X121580361Y-98012649D01*
X121581441Y-98005368D01*
X121583229Y-97998229D01*
X121585709Y-97991299D01*
X121588856Y-97984645D01*
X121592640Y-97978332D01*
X121597024Y-97972421D01*
X121601967Y-97966967D01*
X121607421Y-97962024D01*
X121613332Y-97957640D01*
X121619645Y-97953856D01*
X121626299Y-97950709D01*
X121633229Y-97948229D01*
X121640368Y-97946441D01*
X121647649Y-97945361D01*
X121655000Y-97945000D01*
X121805000Y-97945000D01*
X121812351Y-97945361D01*
X121812351Y-97945361D01*
G37*
D16*
X121730000Y-98670000D03*
D14*
G36*
X121312351Y-97945361D02*
G01*
X121319632Y-97946441D01*
X121326771Y-97948229D01*
X121333701Y-97950709D01*
X121340355Y-97953856D01*
X121346668Y-97957640D01*
X121352579Y-97962024D01*
X121358033Y-97966967D01*
X121362976Y-97972421D01*
X121367360Y-97978332D01*
X121371144Y-97984645D01*
X121374291Y-97991299D01*
X121376771Y-97998229D01*
X121378559Y-98005368D01*
X121379639Y-98012649D01*
X121380000Y-98020000D01*
X121380000Y-99320000D01*
X121379639Y-99327351D01*
X121378559Y-99334632D01*
X121376771Y-99341771D01*
X121374291Y-99348701D01*
X121371144Y-99355355D01*
X121367360Y-99361668D01*
X121362976Y-99367579D01*
X121358033Y-99373033D01*
X121352579Y-99377976D01*
X121346668Y-99382360D01*
X121340355Y-99386144D01*
X121333701Y-99389291D01*
X121326771Y-99391771D01*
X121319632Y-99393559D01*
X121312351Y-99394639D01*
X121305000Y-99395000D01*
X121155000Y-99395000D01*
X121147649Y-99394639D01*
X121140368Y-99393559D01*
X121133229Y-99391771D01*
X121126299Y-99389291D01*
X121119645Y-99386144D01*
X121113332Y-99382360D01*
X121107421Y-99377976D01*
X121101967Y-99373033D01*
X121097024Y-99367579D01*
X121092640Y-99361668D01*
X121088856Y-99355355D01*
X121085709Y-99348701D01*
X121083229Y-99341771D01*
X121081441Y-99334632D01*
X121080361Y-99327351D01*
X121080000Y-99320000D01*
X121080000Y-98020000D01*
X121080361Y-98012649D01*
X121081441Y-98005368D01*
X121083229Y-97998229D01*
X121085709Y-97991299D01*
X121088856Y-97984645D01*
X121092640Y-97978332D01*
X121097024Y-97972421D01*
X121101967Y-97966967D01*
X121107421Y-97962024D01*
X121113332Y-97957640D01*
X121119645Y-97953856D01*
X121126299Y-97950709D01*
X121133229Y-97948229D01*
X121140368Y-97946441D01*
X121147649Y-97945361D01*
X121155000Y-97945000D01*
X121305000Y-97945000D01*
X121312351Y-97945361D01*
X121312351Y-97945361D01*
G37*
D16*
X121230000Y-98670000D03*
D14*
G36*
X120812351Y-97945361D02*
G01*
X120819632Y-97946441D01*
X120826771Y-97948229D01*
X120833701Y-97950709D01*
X120840355Y-97953856D01*
X120846668Y-97957640D01*
X120852579Y-97962024D01*
X120858033Y-97966967D01*
X120862976Y-97972421D01*
X120867360Y-97978332D01*
X120871144Y-97984645D01*
X120874291Y-97991299D01*
X120876771Y-97998229D01*
X120878559Y-98005368D01*
X120879639Y-98012649D01*
X120880000Y-98020000D01*
X120880000Y-99320000D01*
X120879639Y-99327351D01*
X120878559Y-99334632D01*
X120876771Y-99341771D01*
X120874291Y-99348701D01*
X120871144Y-99355355D01*
X120867360Y-99361668D01*
X120862976Y-99367579D01*
X120858033Y-99373033D01*
X120852579Y-99377976D01*
X120846668Y-99382360D01*
X120840355Y-99386144D01*
X120833701Y-99389291D01*
X120826771Y-99391771D01*
X120819632Y-99393559D01*
X120812351Y-99394639D01*
X120805000Y-99395000D01*
X120655000Y-99395000D01*
X120647649Y-99394639D01*
X120640368Y-99393559D01*
X120633229Y-99391771D01*
X120626299Y-99389291D01*
X120619645Y-99386144D01*
X120613332Y-99382360D01*
X120607421Y-99377976D01*
X120601967Y-99373033D01*
X120597024Y-99367579D01*
X120592640Y-99361668D01*
X120588856Y-99355355D01*
X120585709Y-99348701D01*
X120583229Y-99341771D01*
X120581441Y-99334632D01*
X120580361Y-99327351D01*
X120580000Y-99320000D01*
X120580000Y-98020000D01*
X120580361Y-98012649D01*
X120581441Y-98005368D01*
X120583229Y-97998229D01*
X120585709Y-97991299D01*
X120588856Y-97984645D01*
X120592640Y-97978332D01*
X120597024Y-97972421D01*
X120601967Y-97966967D01*
X120607421Y-97962024D01*
X120613332Y-97957640D01*
X120619645Y-97953856D01*
X120626299Y-97950709D01*
X120633229Y-97948229D01*
X120640368Y-97946441D01*
X120647649Y-97945361D01*
X120655000Y-97945000D01*
X120805000Y-97945000D01*
X120812351Y-97945361D01*
X120812351Y-97945361D01*
G37*
D16*
X120730000Y-98670000D03*
D14*
G36*
X120312351Y-97945361D02*
G01*
X120319632Y-97946441D01*
X120326771Y-97948229D01*
X120333701Y-97950709D01*
X120340355Y-97953856D01*
X120346668Y-97957640D01*
X120352579Y-97962024D01*
X120358033Y-97966967D01*
X120362976Y-97972421D01*
X120367360Y-97978332D01*
X120371144Y-97984645D01*
X120374291Y-97991299D01*
X120376771Y-97998229D01*
X120378559Y-98005368D01*
X120379639Y-98012649D01*
X120380000Y-98020000D01*
X120380000Y-99320000D01*
X120379639Y-99327351D01*
X120378559Y-99334632D01*
X120376771Y-99341771D01*
X120374291Y-99348701D01*
X120371144Y-99355355D01*
X120367360Y-99361668D01*
X120362976Y-99367579D01*
X120358033Y-99373033D01*
X120352579Y-99377976D01*
X120346668Y-99382360D01*
X120340355Y-99386144D01*
X120333701Y-99389291D01*
X120326771Y-99391771D01*
X120319632Y-99393559D01*
X120312351Y-99394639D01*
X120305000Y-99395000D01*
X120155000Y-99395000D01*
X120147649Y-99394639D01*
X120140368Y-99393559D01*
X120133229Y-99391771D01*
X120126299Y-99389291D01*
X120119645Y-99386144D01*
X120113332Y-99382360D01*
X120107421Y-99377976D01*
X120101967Y-99373033D01*
X120097024Y-99367579D01*
X120092640Y-99361668D01*
X120088856Y-99355355D01*
X120085709Y-99348701D01*
X120083229Y-99341771D01*
X120081441Y-99334632D01*
X120080361Y-99327351D01*
X120080000Y-99320000D01*
X120080000Y-98020000D01*
X120080361Y-98012649D01*
X120081441Y-98005368D01*
X120083229Y-97998229D01*
X120085709Y-97991299D01*
X120088856Y-97984645D01*
X120092640Y-97978332D01*
X120097024Y-97972421D01*
X120101967Y-97966967D01*
X120107421Y-97962024D01*
X120113332Y-97957640D01*
X120119645Y-97953856D01*
X120126299Y-97950709D01*
X120133229Y-97948229D01*
X120140368Y-97946441D01*
X120147649Y-97945361D01*
X120155000Y-97945000D01*
X120305000Y-97945000D01*
X120312351Y-97945361D01*
X120312351Y-97945361D01*
G37*
D16*
X120230000Y-98670000D03*
D14*
G36*
X117291779Y-96046144D02*
G01*
X117314834Y-96049563D01*
X117337443Y-96055227D01*
X117359387Y-96063079D01*
X117380457Y-96073044D01*
X117400448Y-96085026D01*
X117419168Y-96098910D01*
X117436438Y-96114562D01*
X117452090Y-96131832D01*
X117465974Y-96150552D01*
X117477956Y-96170543D01*
X117487921Y-96191613D01*
X117495773Y-96213557D01*
X117501437Y-96236166D01*
X117504856Y-96259221D01*
X117506000Y-96282500D01*
X117506000Y-96757500D01*
X117504856Y-96780779D01*
X117501437Y-96803834D01*
X117495773Y-96826443D01*
X117487921Y-96848387D01*
X117477956Y-96869457D01*
X117465974Y-96889448D01*
X117452090Y-96908168D01*
X117436438Y-96925438D01*
X117419168Y-96941090D01*
X117400448Y-96954974D01*
X117380457Y-96966956D01*
X117359387Y-96976921D01*
X117337443Y-96984773D01*
X117314834Y-96990437D01*
X117291779Y-96993856D01*
X117268500Y-96995000D01*
X116693500Y-96995000D01*
X116670221Y-96993856D01*
X116647166Y-96990437D01*
X116624557Y-96984773D01*
X116602613Y-96976921D01*
X116581543Y-96966956D01*
X116561552Y-96954974D01*
X116542832Y-96941090D01*
X116525562Y-96925438D01*
X116509910Y-96908168D01*
X116496026Y-96889448D01*
X116484044Y-96869457D01*
X116474079Y-96848387D01*
X116466227Y-96826443D01*
X116460563Y-96803834D01*
X116457144Y-96780779D01*
X116456000Y-96757500D01*
X116456000Y-96282500D01*
X116457144Y-96259221D01*
X116460563Y-96236166D01*
X116466227Y-96213557D01*
X116474079Y-96191613D01*
X116484044Y-96170543D01*
X116496026Y-96150552D01*
X116509910Y-96131832D01*
X116525562Y-96114562D01*
X116542832Y-96098910D01*
X116561552Y-96085026D01*
X116581543Y-96073044D01*
X116602613Y-96063079D01*
X116624557Y-96055227D01*
X116647166Y-96049563D01*
X116670221Y-96046144D01*
X116693500Y-96045000D01*
X117268500Y-96045000D01*
X117291779Y-96046144D01*
X117291779Y-96046144D01*
G37*
D15*
X116981000Y-96520000D03*
D14*
G36*
X119041779Y-96046144D02*
G01*
X119064834Y-96049563D01*
X119087443Y-96055227D01*
X119109387Y-96063079D01*
X119130457Y-96073044D01*
X119150448Y-96085026D01*
X119169168Y-96098910D01*
X119186438Y-96114562D01*
X119202090Y-96131832D01*
X119215974Y-96150552D01*
X119227956Y-96170543D01*
X119237921Y-96191613D01*
X119245773Y-96213557D01*
X119251437Y-96236166D01*
X119254856Y-96259221D01*
X119256000Y-96282500D01*
X119256000Y-96757500D01*
X119254856Y-96780779D01*
X119251437Y-96803834D01*
X119245773Y-96826443D01*
X119237921Y-96848387D01*
X119227956Y-96869457D01*
X119215974Y-96889448D01*
X119202090Y-96908168D01*
X119186438Y-96925438D01*
X119169168Y-96941090D01*
X119150448Y-96954974D01*
X119130457Y-96966956D01*
X119109387Y-96976921D01*
X119087443Y-96984773D01*
X119064834Y-96990437D01*
X119041779Y-96993856D01*
X119018500Y-96995000D01*
X118443500Y-96995000D01*
X118420221Y-96993856D01*
X118397166Y-96990437D01*
X118374557Y-96984773D01*
X118352613Y-96976921D01*
X118331543Y-96966956D01*
X118311552Y-96954974D01*
X118292832Y-96941090D01*
X118275562Y-96925438D01*
X118259910Y-96908168D01*
X118246026Y-96889448D01*
X118234044Y-96869457D01*
X118224079Y-96848387D01*
X118216227Y-96826443D01*
X118210563Y-96803834D01*
X118207144Y-96780779D01*
X118206000Y-96757500D01*
X118206000Y-96282500D01*
X118207144Y-96259221D01*
X118210563Y-96236166D01*
X118216227Y-96213557D01*
X118224079Y-96191613D01*
X118234044Y-96170543D01*
X118246026Y-96150552D01*
X118259910Y-96131832D01*
X118275562Y-96114562D01*
X118292832Y-96098910D01*
X118311552Y-96085026D01*
X118331543Y-96073044D01*
X118352613Y-96063079D01*
X118374557Y-96055227D01*
X118397166Y-96049563D01*
X118420221Y-96046144D01*
X118443500Y-96045000D01*
X119018500Y-96045000D01*
X119041779Y-96046144D01*
X119041779Y-96046144D01*
G37*
D15*
X118731000Y-96520000D03*
D14*
G36*
X136339505Y-104266204D02*
G01*
X136363773Y-104269804D01*
X136387572Y-104275765D01*
X136410671Y-104284030D01*
X136432850Y-104294520D01*
X136453893Y-104307132D01*
X136473599Y-104321747D01*
X136491777Y-104338223D01*
X136508253Y-104356401D01*
X136522868Y-104376107D01*
X136535480Y-104397150D01*
X136545970Y-104419329D01*
X136554235Y-104442428D01*
X136560196Y-104466227D01*
X136563796Y-104490495D01*
X136565000Y-104514999D01*
X136565000Y-105540001D01*
X136563796Y-105564505D01*
X136560196Y-105588773D01*
X136554235Y-105612572D01*
X136545970Y-105635671D01*
X136535480Y-105657850D01*
X136522868Y-105678893D01*
X136508253Y-105698599D01*
X136491777Y-105716777D01*
X136473599Y-105733253D01*
X136453893Y-105747868D01*
X136432850Y-105760480D01*
X136410671Y-105770970D01*
X136387572Y-105779235D01*
X136363773Y-105785196D01*
X136339505Y-105788796D01*
X136315001Y-105790000D01*
X133464999Y-105790000D01*
X133440495Y-105788796D01*
X133416227Y-105785196D01*
X133392428Y-105779235D01*
X133369329Y-105770970D01*
X133347150Y-105760480D01*
X133326107Y-105747868D01*
X133306401Y-105733253D01*
X133288223Y-105716777D01*
X133271747Y-105698599D01*
X133257132Y-105678893D01*
X133244520Y-105657850D01*
X133234030Y-105635671D01*
X133225765Y-105612572D01*
X133219804Y-105588773D01*
X133216204Y-105564505D01*
X133215000Y-105540001D01*
X133215000Y-104514999D01*
X133216204Y-104490495D01*
X133219804Y-104466227D01*
X133225765Y-104442428D01*
X133234030Y-104419329D01*
X133244520Y-104397150D01*
X133257132Y-104376107D01*
X133271747Y-104356401D01*
X133288223Y-104338223D01*
X133306401Y-104321747D01*
X133326107Y-104307132D01*
X133347150Y-104294520D01*
X133369329Y-104284030D01*
X133392428Y-104275765D01*
X133416227Y-104269804D01*
X133440495Y-104266204D01*
X133464999Y-104265000D01*
X136315001Y-104265000D01*
X136339505Y-104266204D01*
X136339505Y-104266204D01*
G37*
D17*
X134890000Y-105027500D03*
D14*
G36*
X136339505Y-98291204D02*
G01*
X136363773Y-98294804D01*
X136387572Y-98300765D01*
X136410671Y-98309030D01*
X136432850Y-98319520D01*
X136453893Y-98332132D01*
X136473599Y-98346747D01*
X136491777Y-98363223D01*
X136508253Y-98381401D01*
X136522868Y-98401107D01*
X136535480Y-98422150D01*
X136545970Y-98444329D01*
X136554235Y-98467428D01*
X136560196Y-98491227D01*
X136563796Y-98515495D01*
X136565000Y-98539999D01*
X136565000Y-99565001D01*
X136563796Y-99589505D01*
X136560196Y-99613773D01*
X136554235Y-99637572D01*
X136545970Y-99660671D01*
X136535480Y-99682850D01*
X136522868Y-99703893D01*
X136508253Y-99723599D01*
X136491777Y-99741777D01*
X136473599Y-99758253D01*
X136453893Y-99772868D01*
X136432850Y-99785480D01*
X136410671Y-99795970D01*
X136387572Y-99804235D01*
X136363773Y-99810196D01*
X136339505Y-99813796D01*
X136315001Y-99815000D01*
X133464999Y-99815000D01*
X133440495Y-99813796D01*
X133416227Y-99810196D01*
X133392428Y-99804235D01*
X133369329Y-99795970D01*
X133347150Y-99785480D01*
X133326107Y-99772868D01*
X133306401Y-99758253D01*
X133288223Y-99741777D01*
X133271747Y-99723599D01*
X133257132Y-99703893D01*
X133244520Y-99682850D01*
X133234030Y-99660671D01*
X133225765Y-99637572D01*
X133219804Y-99613773D01*
X133216204Y-99589505D01*
X133215000Y-99565001D01*
X133215000Y-98539999D01*
X133216204Y-98515495D01*
X133219804Y-98491227D01*
X133225765Y-98467428D01*
X133234030Y-98444329D01*
X133244520Y-98422150D01*
X133257132Y-98401107D01*
X133271747Y-98381401D01*
X133288223Y-98363223D01*
X133306401Y-98346747D01*
X133326107Y-98332132D01*
X133347150Y-98319520D01*
X133369329Y-98309030D01*
X133392428Y-98300765D01*
X133416227Y-98294804D01*
X133440495Y-98291204D01*
X133464999Y-98290000D01*
X136315001Y-98290000D01*
X136339505Y-98291204D01*
X136339505Y-98291204D01*
G37*
D17*
X134890000Y-99052500D03*
D14*
G36*
X129925779Y-96046144D02*
G01*
X129948834Y-96049563D01*
X129971443Y-96055227D01*
X129993387Y-96063079D01*
X130014457Y-96073044D01*
X130034448Y-96085026D01*
X130053168Y-96098910D01*
X130070438Y-96114562D01*
X130086090Y-96131832D01*
X130099974Y-96150552D01*
X130111956Y-96170543D01*
X130121921Y-96191613D01*
X130129773Y-96213557D01*
X130135437Y-96236166D01*
X130138856Y-96259221D01*
X130140000Y-96282500D01*
X130140000Y-96757500D01*
X130138856Y-96780779D01*
X130135437Y-96803834D01*
X130129773Y-96826443D01*
X130121921Y-96848387D01*
X130111956Y-96869457D01*
X130099974Y-96889448D01*
X130086090Y-96908168D01*
X130070438Y-96925438D01*
X130053168Y-96941090D01*
X130034448Y-96954974D01*
X130014457Y-96966956D01*
X129993387Y-96976921D01*
X129971443Y-96984773D01*
X129948834Y-96990437D01*
X129925779Y-96993856D01*
X129902500Y-96995000D01*
X129327500Y-96995000D01*
X129304221Y-96993856D01*
X129281166Y-96990437D01*
X129258557Y-96984773D01*
X129236613Y-96976921D01*
X129215543Y-96966956D01*
X129195552Y-96954974D01*
X129176832Y-96941090D01*
X129159562Y-96925438D01*
X129143910Y-96908168D01*
X129130026Y-96889448D01*
X129118044Y-96869457D01*
X129108079Y-96848387D01*
X129100227Y-96826443D01*
X129094563Y-96803834D01*
X129091144Y-96780779D01*
X129090000Y-96757500D01*
X129090000Y-96282500D01*
X129091144Y-96259221D01*
X129094563Y-96236166D01*
X129100227Y-96213557D01*
X129108079Y-96191613D01*
X129118044Y-96170543D01*
X129130026Y-96150552D01*
X129143910Y-96131832D01*
X129159562Y-96114562D01*
X129176832Y-96098910D01*
X129195552Y-96085026D01*
X129215543Y-96073044D01*
X129236613Y-96063079D01*
X129258557Y-96055227D01*
X129281166Y-96049563D01*
X129304221Y-96046144D01*
X129327500Y-96045000D01*
X129902500Y-96045000D01*
X129925779Y-96046144D01*
X129925779Y-96046144D01*
G37*
D15*
X129615000Y-96520000D03*
D14*
G36*
X131675779Y-96046144D02*
G01*
X131698834Y-96049563D01*
X131721443Y-96055227D01*
X131743387Y-96063079D01*
X131764457Y-96073044D01*
X131784448Y-96085026D01*
X131803168Y-96098910D01*
X131820438Y-96114562D01*
X131836090Y-96131832D01*
X131849974Y-96150552D01*
X131861956Y-96170543D01*
X131871921Y-96191613D01*
X131879773Y-96213557D01*
X131885437Y-96236166D01*
X131888856Y-96259221D01*
X131890000Y-96282500D01*
X131890000Y-96757500D01*
X131888856Y-96780779D01*
X131885437Y-96803834D01*
X131879773Y-96826443D01*
X131871921Y-96848387D01*
X131861956Y-96869457D01*
X131849974Y-96889448D01*
X131836090Y-96908168D01*
X131820438Y-96925438D01*
X131803168Y-96941090D01*
X131784448Y-96954974D01*
X131764457Y-96966956D01*
X131743387Y-96976921D01*
X131721443Y-96984773D01*
X131698834Y-96990437D01*
X131675779Y-96993856D01*
X131652500Y-96995000D01*
X131077500Y-96995000D01*
X131054221Y-96993856D01*
X131031166Y-96990437D01*
X131008557Y-96984773D01*
X130986613Y-96976921D01*
X130965543Y-96966956D01*
X130945552Y-96954974D01*
X130926832Y-96941090D01*
X130909562Y-96925438D01*
X130893910Y-96908168D01*
X130880026Y-96889448D01*
X130868044Y-96869457D01*
X130858079Y-96848387D01*
X130850227Y-96826443D01*
X130844563Y-96803834D01*
X130841144Y-96780779D01*
X130840000Y-96757500D01*
X130840000Y-96282500D01*
X130841144Y-96259221D01*
X130844563Y-96236166D01*
X130850227Y-96213557D01*
X130858079Y-96191613D01*
X130868044Y-96170543D01*
X130880026Y-96150552D01*
X130893910Y-96131832D01*
X130909562Y-96114562D01*
X130926832Y-96098910D01*
X130945552Y-96085026D01*
X130965543Y-96073044D01*
X130986613Y-96063079D01*
X131008557Y-96055227D01*
X131031166Y-96049563D01*
X131054221Y-96046144D01*
X131077500Y-96045000D01*
X131652500Y-96045000D01*
X131675779Y-96046144D01*
X131675779Y-96046144D01*
G37*
D15*
X131365000Y-96520000D03*
D14*
G36*
X136339505Y-92996204D02*
G01*
X136363773Y-92999804D01*
X136387572Y-93005765D01*
X136410671Y-93014030D01*
X136432850Y-93024520D01*
X136453893Y-93037132D01*
X136473599Y-93051747D01*
X136491777Y-93068223D01*
X136508253Y-93086401D01*
X136522868Y-93106107D01*
X136535480Y-93127150D01*
X136545970Y-93149329D01*
X136554235Y-93172428D01*
X136560196Y-93196227D01*
X136563796Y-93220495D01*
X136565000Y-93244999D01*
X136565000Y-94270001D01*
X136563796Y-94294505D01*
X136560196Y-94318773D01*
X136554235Y-94342572D01*
X136545970Y-94365671D01*
X136535480Y-94387850D01*
X136522868Y-94408893D01*
X136508253Y-94428599D01*
X136491777Y-94446777D01*
X136473599Y-94463253D01*
X136453893Y-94477868D01*
X136432850Y-94490480D01*
X136410671Y-94500970D01*
X136387572Y-94509235D01*
X136363773Y-94515196D01*
X136339505Y-94518796D01*
X136315001Y-94520000D01*
X133464999Y-94520000D01*
X133440495Y-94518796D01*
X133416227Y-94515196D01*
X133392428Y-94509235D01*
X133369329Y-94500970D01*
X133347150Y-94490480D01*
X133326107Y-94477868D01*
X133306401Y-94463253D01*
X133288223Y-94446777D01*
X133271747Y-94428599D01*
X133257132Y-94408893D01*
X133244520Y-94387850D01*
X133234030Y-94365671D01*
X133225765Y-94342572D01*
X133219804Y-94318773D01*
X133216204Y-94294505D01*
X133215000Y-94270001D01*
X133215000Y-93244999D01*
X133216204Y-93220495D01*
X133219804Y-93196227D01*
X133225765Y-93172428D01*
X133234030Y-93149329D01*
X133244520Y-93127150D01*
X133257132Y-93106107D01*
X133271747Y-93086401D01*
X133288223Y-93068223D01*
X133306401Y-93051747D01*
X133326107Y-93037132D01*
X133347150Y-93024520D01*
X133369329Y-93014030D01*
X133392428Y-93005765D01*
X133416227Y-92999804D01*
X133440495Y-92996204D01*
X133464999Y-92995000D01*
X136315001Y-92995000D01*
X136339505Y-92996204D01*
X136339505Y-92996204D01*
G37*
D17*
X134890000Y-93757500D03*
D14*
G36*
X136339505Y-87021204D02*
G01*
X136363773Y-87024804D01*
X136387572Y-87030765D01*
X136410671Y-87039030D01*
X136432850Y-87049520D01*
X136453893Y-87062132D01*
X136473599Y-87076747D01*
X136491777Y-87093223D01*
X136508253Y-87111401D01*
X136522868Y-87131107D01*
X136535480Y-87152150D01*
X136545970Y-87174329D01*
X136554235Y-87197428D01*
X136560196Y-87221227D01*
X136563796Y-87245495D01*
X136565000Y-87269999D01*
X136565000Y-88295001D01*
X136563796Y-88319505D01*
X136560196Y-88343773D01*
X136554235Y-88367572D01*
X136545970Y-88390671D01*
X136535480Y-88412850D01*
X136522868Y-88433893D01*
X136508253Y-88453599D01*
X136491777Y-88471777D01*
X136473599Y-88488253D01*
X136453893Y-88502868D01*
X136432850Y-88515480D01*
X136410671Y-88525970D01*
X136387572Y-88534235D01*
X136363773Y-88540196D01*
X136339505Y-88543796D01*
X136315001Y-88545000D01*
X133464999Y-88545000D01*
X133440495Y-88543796D01*
X133416227Y-88540196D01*
X133392428Y-88534235D01*
X133369329Y-88525970D01*
X133347150Y-88515480D01*
X133326107Y-88502868D01*
X133306401Y-88488253D01*
X133288223Y-88471777D01*
X133271747Y-88453599D01*
X133257132Y-88433893D01*
X133244520Y-88412850D01*
X133234030Y-88390671D01*
X133225765Y-88367572D01*
X133219804Y-88343773D01*
X133216204Y-88319505D01*
X133215000Y-88295001D01*
X133215000Y-87269999D01*
X133216204Y-87245495D01*
X133219804Y-87221227D01*
X133225765Y-87197428D01*
X133234030Y-87174329D01*
X133244520Y-87152150D01*
X133257132Y-87131107D01*
X133271747Y-87111401D01*
X133288223Y-87093223D01*
X133306401Y-87076747D01*
X133326107Y-87062132D01*
X133347150Y-87049520D01*
X133369329Y-87039030D01*
X133392428Y-87030765D01*
X133416227Y-87024804D01*
X133440495Y-87021204D01*
X133464999Y-87020000D01*
X136315001Y-87020000D01*
X136339505Y-87021204D01*
X136339505Y-87021204D01*
G37*
D17*
X134890000Y-87782500D03*
D14*
G36*
X122625779Y-100766144D02*
G01*
X122648834Y-100769563D01*
X122671443Y-100775227D01*
X122693387Y-100783079D01*
X122714457Y-100793044D01*
X122734448Y-100805026D01*
X122753168Y-100818910D01*
X122770438Y-100834562D01*
X122786090Y-100851832D01*
X122799974Y-100870552D01*
X122811956Y-100890543D01*
X122821921Y-100911613D01*
X122829773Y-100933557D01*
X122835437Y-100956166D01*
X122838856Y-100979221D01*
X122840000Y-101002500D01*
X122840000Y-101477500D01*
X122838856Y-101500779D01*
X122835437Y-101523834D01*
X122829773Y-101546443D01*
X122821921Y-101568387D01*
X122811956Y-101589457D01*
X122799974Y-101609448D01*
X122786090Y-101628168D01*
X122770438Y-101645438D01*
X122753168Y-101661090D01*
X122734448Y-101674974D01*
X122714457Y-101686956D01*
X122693387Y-101696921D01*
X122671443Y-101704773D01*
X122648834Y-101710437D01*
X122625779Y-101713856D01*
X122602500Y-101715000D01*
X122027500Y-101715000D01*
X122004221Y-101713856D01*
X121981166Y-101710437D01*
X121958557Y-101704773D01*
X121936613Y-101696921D01*
X121915543Y-101686956D01*
X121895552Y-101674974D01*
X121876832Y-101661090D01*
X121859562Y-101645438D01*
X121843910Y-101628168D01*
X121830026Y-101609448D01*
X121818044Y-101589457D01*
X121808079Y-101568387D01*
X121800227Y-101546443D01*
X121794563Y-101523834D01*
X121791144Y-101500779D01*
X121790000Y-101477500D01*
X121790000Y-101002500D01*
X121791144Y-100979221D01*
X121794563Y-100956166D01*
X121800227Y-100933557D01*
X121808079Y-100911613D01*
X121818044Y-100890543D01*
X121830026Y-100870552D01*
X121843910Y-100851832D01*
X121859562Y-100834562D01*
X121876832Y-100818910D01*
X121895552Y-100805026D01*
X121915543Y-100793044D01*
X121936613Y-100783079D01*
X121958557Y-100775227D01*
X121981166Y-100769563D01*
X122004221Y-100766144D01*
X122027500Y-100765000D01*
X122602500Y-100765000D01*
X122625779Y-100766144D01*
X122625779Y-100766144D01*
G37*
D15*
X122315000Y-101240000D03*
D14*
G36*
X124375779Y-100766144D02*
G01*
X124398834Y-100769563D01*
X124421443Y-100775227D01*
X124443387Y-100783079D01*
X124464457Y-100793044D01*
X124484448Y-100805026D01*
X124503168Y-100818910D01*
X124520438Y-100834562D01*
X124536090Y-100851832D01*
X124549974Y-100870552D01*
X124561956Y-100890543D01*
X124571921Y-100911613D01*
X124579773Y-100933557D01*
X124585437Y-100956166D01*
X124588856Y-100979221D01*
X124590000Y-101002500D01*
X124590000Y-101477500D01*
X124588856Y-101500779D01*
X124585437Y-101523834D01*
X124579773Y-101546443D01*
X124571921Y-101568387D01*
X124561956Y-101589457D01*
X124549974Y-101609448D01*
X124536090Y-101628168D01*
X124520438Y-101645438D01*
X124503168Y-101661090D01*
X124484448Y-101674974D01*
X124464457Y-101686956D01*
X124443387Y-101696921D01*
X124421443Y-101704773D01*
X124398834Y-101710437D01*
X124375779Y-101713856D01*
X124352500Y-101715000D01*
X123777500Y-101715000D01*
X123754221Y-101713856D01*
X123731166Y-101710437D01*
X123708557Y-101704773D01*
X123686613Y-101696921D01*
X123665543Y-101686956D01*
X123645552Y-101674974D01*
X123626832Y-101661090D01*
X123609562Y-101645438D01*
X123593910Y-101628168D01*
X123580026Y-101609448D01*
X123568044Y-101589457D01*
X123558079Y-101568387D01*
X123550227Y-101546443D01*
X123544563Y-101523834D01*
X123541144Y-101500779D01*
X123540000Y-101477500D01*
X123540000Y-101002500D01*
X123541144Y-100979221D01*
X123544563Y-100956166D01*
X123550227Y-100933557D01*
X123558079Y-100911613D01*
X123568044Y-100890543D01*
X123580026Y-100870552D01*
X123593910Y-100851832D01*
X123609562Y-100834562D01*
X123626832Y-100818910D01*
X123645552Y-100805026D01*
X123665543Y-100793044D01*
X123686613Y-100783079D01*
X123708557Y-100775227D01*
X123731166Y-100769563D01*
X123754221Y-100766144D01*
X123777500Y-100765000D01*
X124352500Y-100765000D01*
X124375779Y-100766144D01*
X124375779Y-100766144D01*
G37*
D15*
X124065000Y-101240000D03*
D14*
G36*
X119069779Y-100766144D02*
G01*
X119092834Y-100769563D01*
X119115443Y-100775227D01*
X119137387Y-100783079D01*
X119158457Y-100793044D01*
X119178448Y-100805026D01*
X119197168Y-100818910D01*
X119214438Y-100834562D01*
X119230090Y-100851832D01*
X119243974Y-100870552D01*
X119255956Y-100890543D01*
X119265921Y-100911613D01*
X119273773Y-100933557D01*
X119279437Y-100956166D01*
X119282856Y-100979221D01*
X119284000Y-101002500D01*
X119284000Y-101477500D01*
X119282856Y-101500779D01*
X119279437Y-101523834D01*
X119273773Y-101546443D01*
X119265921Y-101568387D01*
X119255956Y-101589457D01*
X119243974Y-101609448D01*
X119230090Y-101628168D01*
X119214438Y-101645438D01*
X119197168Y-101661090D01*
X119178448Y-101674974D01*
X119158457Y-101686956D01*
X119137387Y-101696921D01*
X119115443Y-101704773D01*
X119092834Y-101710437D01*
X119069779Y-101713856D01*
X119046500Y-101715000D01*
X118471500Y-101715000D01*
X118448221Y-101713856D01*
X118425166Y-101710437D01*
X118402557Y-101704773D01*
X118380613Y-101696921D01*
X118359543Y-101686956D01*
X118339552Y-101674974D01*
X118320832Y-101661090D01*
X118303562Y-101645438D01*
X118287910Y-101628168D01*
X118274026Y-101609448D01*
X118262044Y-101589457D01*
X118252079Y-101568387D01*
X118244227Y-101546443D01*
X118238563Y-101523834D01*
X118235144Y-101500779D01*
X118234000Y-101477500D01*
X118234000Y-101002500D01*
X118235144Y-100979221D01*
X118238563Y-100956166D01*
X118244227Y-100933557D01*
X118252079Y-100911613D01*
X118262044Y-100890543D01*
X118274026Y-100870552D01*
X118287910Y-100851832D01*
X118303562Y-100834562D01*
X118320832Y-100818910D01*
X118339552Y-100805026D01*
X118359543Y-100793044D01*
X118380613Y-100783079D01*
X118402557Y-100775227D01*
X118425166Y-100769563D01*
X118448221Y-100766144D01*
X118471500Y-100765000D01*
X119046500Y-100765000D01*
X119069779Y-100766144D01*
X119069779Y-100766144D01*
G37*
D15*
X118759000Y-101240000D03*
D14*
G36*
X120819779Y-100766144D02*
G01*
X120842834Y-100769563D01*
X120865443Y-100775227D01*
X120887387Y-100783079D01*
X120908457Y-100793044D01*
X120928448Y-100805026D01*
X120947168Y-100818910D01*
X120964438Y-100834562D01*
X120980090Y-100851832D01*
X120993974Y-100870552D01*
X121005956Y-100890543D01*
X121015921Y-100911613D01*
X121023773Y-100933557D01*
X121029437Y-100956166D01*
X121032856Y-100979221D01*
X121034000Y-101002500D01*
X121034000Y-101477500D01*
X121032856Y-101500779D01*
X121029437Y-101523834D01*
X121023773Y-101546443D01*
X121015921Y-101568387D01*
X121005956Y-101589457D01*
X120993974Y-101609448D01*
X120980090Y-101628168D01*
X120964438Y-101645438D01*
X120947168Y-101661090D01*
X120928448Y-101674974D01*
X120908457Y-101686956D01*
X120887387Y-101696921D01*
X120865443Y-101704773D01*
X120842834Y-101710437D01*
X120819779Y-101713856D01*
X120796500Y-101715000D01*
X120221500Y-101715000D01*
X120198221Y-101713856D01*
X120175166Y-101710437D01*
X120152557Y-101704773D01*
X120130613Y-101696921D01*
X120109543Y-101686956D01*
X120089552Y-101674974D01*
X120070832Y-101661090D01*
X120053562Y-101645438D01*
X120037910Y-101628168D01*
X120024026Y-101609448D01*
X120012044Y-101589457D01*
X120002079Y-101568387D01*
X119994227Y-101546443D01*
X119988563Y-101523834D01*
X119985144Y-101500779D01*
X119984000Y-101477500D01*
X119984000Y-101002500D01*
X119985144Y-100979221D01*
X119988563Y-100956166D01*
X119994227Y-100933557D01*
X120002079Y-100911613D01*
X120012044Y-100890543D01*
X120024026Y-100870552D01*
X120037910Y-100851832D01*
X120053562Y-100834562D01*
X120070832Y-100818910D01*
X120089552Y-100805026D01*
X120109543Y-100793044D01*
X120130613Y-100783079D01*
X120152557Y-100775227D01*
X120175166Y-100769563D01*
X120198221Y-100766144D01*
X120221500Y-100765000D01*
X120796500Y-100765000D01*
X120819779Y-100766144D01*
X120819779Y-100766144D01*
G37*
D15*
X120509000Y-101240000D03*
D14*
G36*
X119069779Y-91466144D02*
G01*
X119092834Y-91469563D01*
X119115443Y-91475227D01*
X119137387Y-91483079D01*
X119158457Y-91493044D01*
X119178448Y-91505026D01*
X119197168Y-91518910D01*
X119214438Y-91534562D01*
X119230090Y-91551832D01*
X119243974Y-91570552D01*
X119255956Y-91590543D01*
X119265921Y-91611613D01*
X119273773Y-91633557D01*
X119279437Y-91656166D01*
X119282856Y-91679221D01*
X119284000Y-91702500D01*
X119284000Y-92177500D01*
X119282856Y-92200779D01*
X119279437Y-92223834D01*
X119273773Y-92246443D01*
X119265921Y-92268387D01*
X119255956Y-92289457D01*
X119243974Y-92309448D01*
X119230090Y-92328168D01*
X119214438Y-92345438D01*
X119197168Y-92361090D01*
X119178448Y-92374974D01*
X119158457Y-92386956D01*
X119137387Y-92396921D01*
X119115443Y-92404773D01*
X119092834Y-92410437D01*
X119069779Y-92413856D01*
X119046500Y-92415000D01*
X118471500Y-92415000D01*
X118448221Y-92413856D01*
X118425166Y-92410437D01*
X118402557Y-92404773D01*
X118380613Y-92396921D01*
X118359543Y-92386956D01*
X118339552Y-92374974D01*
X118320832Y-92361090D01*
X118303562Y-92345438D01*
X118287910Y-92328168D01*
X118274026Y-92309448D01*
X118262044Y-92289457D01*
X118252079Y-92268387D01*
X118244227Y-92246443D01*
X118238563Y-92223834D01*
X118235144Y-92200779D01*
X118234000Y-92177500D01*
X118234000Y-91702500D01*
X118235144Y-91679221D01*
X118238563Y-91656166D01*
X118244227Y-91633557D01*
X118252079Y-91611613D01*
X118262044Y-91590543D01*
X118274026Y-91570552D01*
X118287910Y-91551832D01*
X118303562Y-91534562D01*
X118320832Y-91518910D01*
X118339552Y-91505026D01*
X118359543Y-91493044D01*
X118380613Y-91483079D01*
X118402557Y-91475227D01*
X118425166Y-91469563D01*
X118448221Y-91466144D01*
X118471500Y-91465000D01*
X119046500Y-91465000D01*
X119069779Y-91466144D01*
X119069779Y-91466144D01*
G37*
D15*
X118759000Y-91940000D03*
D14*
G36*
X120819779Y-91466144D02*
G01*
X120842834Y-91469563D01*
X120865443Y-91475227D01*
X120887387Y-91483079D01*
X120908457Y-91493044D01*
X120928448Y-91505026D01*
X120947168Y-91518910D01*
X120964438Y-91534562D01*
X120980090Y-91551832D01*
X120993974Y-91570552D01*
X121005956Y-91590543D01*
X121015921Y-91611613D01*
X121023773Y-91633557D01*
X121029437Y-91656166D01*
X121032856Y-91679221D01*
X121034000Y-91702500D01*
X121034000Y-92177500D01*
X121032856Y-92200779D01*
X121029437Y-92223834D01*
X121023773Y-92246443D01*
X121015921Y-92268387D01*
X121005956Y-92289457D01*
X120993974Y-92309448D01*
X120980090Y-92328168D01*
X120964438Y-92345438D01*
X120947168Y-92361090D01*
X120928448Y-92374974D01*
X120908457Y-92386956D01*
X120887387Y-92396921D01*
X120865443Y-92404773D01*
X120842834Y-92410437D01*
X120819779Y-92413856D01*
X120796500Y-92415000D01*
X120221500Y-92415000D01*
X120198221Y-92413856D01*
X120175166Y-92410437D01*
X120152557Y-92404773D01*
X120130613Y-92396921D01*
X120109543Y-92386956D01*
X120089552Y-92374974D01*
X120070832Y-92361090D01*
X120053562Y-92345438D01*
X120037910Y-92328168D01*
X120024026Y-92309448D01*
X120012044Y-92289457D01*
X120002079Y-92268387D01*
X119994227Y-92246443D01*
X119988563Y-92223834D01*
X119985144Y-92200779D01*
X119984000Y-92177500D01*
X119984000Y-91702500D01*
X119985144Y-91679221D01*
X119988563Y-91656166D01*
X119994227Y-91633557D01*
X120002079Y-91611613D01*
X120012044Y-91590543D01*
X120024026Y-91570552D01*
X120037910Y-91551832D01*
X120053562Y-91534562D01*
X120070832Y-91518910D01*
X120089552Y-91505026D01*
X120109543Y-91493044D01*
X120130613Y-91483079D01*
X120152557Y-91475227D01*
X120175166Y-91469563D01*
X120198221Y-91466144D01*
X120221500Y-91465000D01*
X120796500Y-91465000D01*
X120819779Y-91466144D01*
X120819779Y-91466144D01*
G37*
D15*
X120509000Y-91940000D03*
D14*
G36*
X124375779Y-91466144D02*
G01*
X124398834Y-91469563D01*
X124421443Y-91475227D01*
X124443387Y-91483079D01*
X124464457Y-91493044D01*
X124484448Y-91505026D01*
X124503168Y-91518910D01*
X124520438Y-91534562D01*
X124536090Y-91551832D01*
X124549974Y-91570552D01*
X124561956Y-91590543D01*
X124571921Y-91611613D01*
X124579773Y-91633557D01*
X124585437Y-91656166D01*
X124588856Y-91679221D01*
X124590000Y-91702500D01*
X124590000Y-92177500D01*
X124588856Y-92200779D01*
X124585437Y-92223834D01*
X124579773Y-92246443D01*
X124571921Y-92268387D01*
X124561956Y-92289457D01*
X124549974Y-92309448D01*
X124536090Y-92328168D01*
X124520438Y-92345438D01*
X124503168Y-92361090D01*
X124484448Y-92374974D01*
X124464457Y-92386956D01*
X124443387Y-92396921D01*
X124421443Y-92404773D01*
X124398834Y-92410437D01*
X124375779Y-92413856D01*
X124352500Y-92415000D01*
X123777500Y-92415000D01*
X123754221Y-92413856D01*
X123731166Y-92410437D01*
X123708557Y-92404773D01*
X123686613Y-92396921D01*
X123665543Y-92386956D01*
X123645552Y-92374974D01*
X123626832Y-92361090D01*
X123609562Y-92345438D01*
X123593910Y-92328168D01*
X123580026Y-92309448D01*
X123568044Y-92289457D01*
X123558079Y-92268387D01*
X123550227Y-92246443D01*
X123544563Y-92223834D01*
X123541144Y-92200779D01*
X123540000Y-92177500D01*
X123540000Y-91702500D01*
X123541144Y-91679221D01*
X123544563Y-91656166D01*
X123550227Y-91633557D01*
X123558079Y-91611613D01*
X123568044Y-91590543D01*
X123580026Y-91570552D01*
X123593910Y-91551832D01*
X123609562Y-91534562D01*
X123626832Y-91518910D01*
X123645552Y-91505026D01*
X123665543Y-91493044D01*
X123686613Y-91483079D01*
X123708557Y-91475227D01*
X123731166Y-91469563D01*
X123754221Y-91466144D01*
X123777500Y-91465000D01*
X124352500Y-91465000D01*
X124375779Y-91466144D01*
X124375779Y-91466144D01*
G37*
D15*
X124065000Y-91940000D03*
D14*
G36*
X122625779Y-91466144D02*
G01*
X122648834Y-91469563D01*
X122671443Y-91475227D01*
X122693387Y-91483079D01*
X122714457Y-91493044D01*
X122734448Y-91505026D01*
X122753168Y-91518910D01*
X122770438Y-91534562D01*
X122786090Y-91551832D01*
X122799974Y-91570552D01*
X122811956Y-91590543D01*
X122821921Y-91611613D01*
X122829773Y-91633557D01*
X122835437Y-91656166D01*
X122838856Y-91679221D01*
X122840000Y-91702500D01*
X122840000Y-92177500D01*
X122838856Y-92200779D01*
X122835437Y-92223834D01*
X122829773Y-92246443D01*
X122821921Y-92268387D01*
X122811956Y-92289457D01*
X122799974Y-92309448D01*
X122786090Y-92328168D01*
X122770438Y-92345438D01*
X122753168Y-92361090D01*
X122734448Y-92374974D01*
X122714457Y-92386956D01*
X122693387Y-92396921D01*
X122671443Y-92404773D01*
X122648834Y-92410437D01*
X122625779Y-92413856D01*
X122602500Y-92415000D01*
X122027500Y-92415000D01*
X122004221Y-92413856D01*
X121981166Y-92410437D01*
X121958557Y-92404773D01*
X121936613Y-92396921D01*
X121915543Y-92386956D01*
X121895552Y-92374974D01*
X121876832Y-92361090D01*
X121859562Y-92345438D01*
X121843910Y-92328168D01*
X121830026Y-92309448D01*
X121818044Y-92289457D01*
X121808079Y-92268387D01*
X121800227Y-92246443D01*
X121794563Y-92223834D01*
X121791144Y-92200779D01*
X121790000Y-92177500D01*
X121790000Y-91702500D01*
X121791144Y-91679221D01*
X121794563Y-91656166D01*
X121800227Y-91633557D01*
X121808079Y-91611613D01*
X121818044Y-91590543D01*
X121830026Y-91570552D01*
X121843910Y-91551832D01*
X121859562Y-91534562D01*
X121876832Y-91518910D01*
X121895552Y-91505026D01*
X121915543Y-91493044D01*
X121936613Y-91483079D01*
X121958557Y-91475227D01*
X121981166Y-91469563D01*
X122004221Y-91466144D01*
X122027500Y-91465000D01*
X122602500Y-91465000D01*
X122625779Y-91466144D01*
X122625779Y-91466144D01*
G37*
D15*
X122315000Y-91940000D03*
D18*
X118364000Y-97790000D03*
X119189000Y-93409000D03*
X119269000Y-99711000D03*
D19*
X122277031Y-92964000D03*
D18*
X119659400Y-84963000D03*
D19*
X122236082Y-100217004D03*
D18*
X121805700Y-102476300D03*
D20*
X124065000Y-92089000D02*
X124065000Y-91940000D01*
D21*
X123565928Y-92439072D02*
X124065000Y-91940000D01*
X123565928Y-92625346D02*
X123565928Y-92439072D01*
X122730000Y-93461274D02*
X123565928Y-92625346D01*
X122730000Y-94370000D02*
X122730000Y-93461274D01*
X122315000Y-91940000D02*
X122315000Y-90029000D01*
X122428000Y-89916000D02*
X122315000Y-90029000D01*
X121815928Y-92439072D02*
X122315000Y-91940000D01*
X121642021Y-92612979D02*
X121815928Y-92439072D01*
X121642021Y-93422570D02*
X121642021Y-92612979D01*
X121730000Y-93510549D02*
X121642021Y-93422570D01*
X121730000Y-94450000D02*
X121730000Y-93510549D01*
X117035000Y-96520000D02*
X117115000Y-96600000D01*
X113390000Y-96520000D02*
X115570000Y-96520000D01*
X115570000Y-96520000D02*
X117035000Y-96520000D01*
X118759000Y-92979000D02*
X118759000Y-91940000D01*
X120230000Y-94450000D02*
X119189000Y-93409000D01*
X119189000Y-93409000D02*
X118759000Y-92979000D01*
X117614072Y-97099072D02*
X117115000Y-96600000D01*
X119044290Y-98529290D02*
X117614072Y-97099072D01*
X120009290Y-98529290D02*
X119044290Y-98529290D01*
X120230000Y-98750000D02*
X120009290Y-98529290D01*
X118759000Y-100221000D02*
X119269000Y-99711000D01*
X118759000Y-101240000D02*
X118759000Y-100221000D01*
X119269000Y-99711000D02*
X120230000Y-98750000D01*
X120727600Y-94372400D02*
X120727600Y-94370000D01*
X120509290Y-94590710D02*
X120727600Y-94372400D01*
X120450710Y-94590710D02*
X120509290Y-94590710D01*
X120230000Y-94370000D02*
X120450710Y-94590710D01*
X121008072Y-92439072D02*
X120509000Y-91940000D01*
X121184810Y-92615810D02*
X121008072Y-92439072D01*
X121184810Y-93611951D02*
X121184810Y-92615810D01*
X121230000Y-93657141D02*
X121184810Y-93611951D01*
X121230000Y-94370000D02*
X121230000Y-93657141D01*
X120509000Y-100665000D02*
X120509000Y-101240000D01*
X121230000Y-98750000D02*
X121230000Y-99636689D01*
X121230000Y-99636689D02*
X120509000Y-100357689D01*
X120509000Y-100357689D02*
X120509000Y-100665000D01*
X121601080Y-100526080D02*
X121815928Y-100740928D01*
X121601080Y-99912202D02*
X121601080Y-100526080D01*
X121730000Y-98750000D02*
X121730000Y-99783282D01*
X121730000Y-99783282D02*
X121601080Y-99912202D01*
X121815928Y-100740928D02*
X122315000Y-101240000D01*
X121800944Y-101240000D02*
X119281944Y-103759000D01*
X122315000Y-101240000D02*
X121800944Y-101240000D01*
X123565928Y-100740928D02*
X124065000Y-101240000D01*
X123565928Y-100607048D02*
X123565928Y-100740928D01*
X122730000Y-99771120D02*
X123565928Y-100607048D01*
X122730000Y-98670000D02*
X122730000Y-99771120D01*
X121793000Y-84851000D02*
X121784000Y-84842000D01*
X121663000Y-84963000D02*
X121784000Y-84842000D01*
X119634000Y-84963000D02*
X119659400Y-84963000D01*
X122230000Y-94370000D02*
X122230000Y-93011031D01*
X122230000Y-93011031D02*
X122277031Y-92964000D01*
X119659400Y-84963000D02*
X121663000Y-84963000D01*
D20*
X121666000Y-104030000D02*
X121606000Y-104090000D01*
X121556000Y-104140000D02*
X121606000Y-104090000D01*
X122230000Y-100132000D02*
X122428000Y-100330000D01*
D21*
X121793000Y-103756000D02*
X121784000Y-103765000D01*
X121793000Y-102489000D02*
X121793000Y-103756000D01*
X122230000Y-100210922D02*
X122236082Y-100217004D01*
X122230000Y-98670000D02*
X122230000Y-100210922D01*
X127665000Y-96520000D02*
X129615000Y-96520000D01*
X119714000Y-96600000D02*
X118865000Y-96600000D01*
X120730000Y-97616000D02*
X119714000Y-96600000D01*
X120730000Y-98750000D02*
X120730000Y-97616000D01*
X125840000Y-96640000D02*
X125915000Y-96640000D01*
X123730000Y-98750000D02*
X125840000Y-96640000D01*
X125915000Y-96635000D02*
X125915000Y-96640000D01*
X123730000Y-94450000D02*
X125915000Y-96635000D01*
X128084000Y-102938000D02*
X128084000Y-106172000D01*
X123731000Y-100076000D02*
X125222000Y-100076000D01*
X123230000Y-99575000D02*
X123731000Y-100076000D01*
X125222000Y-100076000D02*
X128084000Y-102938000D01*
X123230000Y-98750000D02*
X123230000Y-99575000D01*
D20*
X121562000Y-87376000D02*
X121606000Y-87420000D01*
D21*
X128084000Y-90326800D02*
X128084000Y-87122000D01*
X125446800Y-92964000D02*
X128084000Y-90326800D01*
X123873866Y-92964000D02*
X125446800Y-92964000D01*
X123230000Y-93607866D02*
X123873866Y-92964000D01*
X123230000Y-94370000D02*
X123230000Y-93607866D01*
D22*
G36*
X141620690Y-91065206D02*
G01*
X141605185Y-101733206D01*
X130695369Y-101720794D01*
X130688408Y-99060000D01*
X138207815Y-99060000D01*
X138236487Y-99351111D01*
X138321401Y-99631034D01*
X138459294Y-99889014D01*
X138644866Y-100115134D01*
X138870986Y-100300706D01*
X139128966Y-100438599D01*
X139408889Y-100523513D01*
X139627050Y-100545000D01*
X139772950Y-100545000D01*
X139991111Y-100523513D01*
X140271034Y-100438599D01*
X140529014Y-100300706D01*
X140755134Y-100115134D01*
X140940706Y-99889014D01*
X141078599Y-99631034D01*
X141163513Y-99351111D01*
X141192185Y-99060000D01*
X141163513Y-98768889D01*
X141078599Y-98488966D01*
X140940706Y-98230986D01*
X140755134Y-98004866D01*
X140529014Y-97819294D01*
X140271034Y-97681401D01*
X139991111Y-97596487D01*
X139772950Y-97575000D01*
X139627050Y-97575000D01*
X139408889Y-97596487D01*
X139128966Y-97681401D01*
X138870986Y-97819294D01*
X138644866Y-98004866D01*
X138459294Y-98230986D01*
X138321401Y-98488966D01*
X138236487Y-98768889D01*
X138207815Y-99060000D01*
X130688408Y-99060000D01*
X130683398Y-97144999D01*
X130711423Y-97092567D01*
X130761248Y-96928316D01*
X130778072Y-96757500D01*
X130778072Y-96282500D01*
X130761248Y-96111684D01*
X130711423Y-95947433D01*
X130680111Y-95888852D01*
X130667459Y-91052794D01*
X141620690Y-91065206D01*
X141620690Y-91065206D01*
G37*
X141620690Y-91065206D02*
X141605185Y-101733206D01*
X130695369Y-101720794D01*
X130688408Y-99060000D01*
X138207815Y-99060000D01*
X138236487Y-99351111D01*
X138321401Y-99631034D01*
X138459294Y-99889014D01*
X138644866Y-100115134D01*
X138870986Y-100300706D01*
X139128966Y-100438599D01*
X139408889Y-100523513D01*
X139627050Y-100545000D01*
X139772950Y-100545000D01*
X139991111Y-100523513D01*
X140271034Y-100438599D01*
X140529014Y-100300706D01*
X140755134Y-100115134D01*
X140940706Y-99889014D01*
X141078599Y-99631034D01*
X141163513Y-99351111D01*
X141192185Y-99060000D01*
X141163513Y-98768889D01*
X141078599Y-98488966D01*
X140940706Y-98230986D01*
X140755134Y-98004866D01*
X140529014Y-97819294D01*
X140271034Y-97681401D01*
X139991111Y-97596487D01*
X139772950Y-97575000D01*
X139627050Y-97575000D01*
X139408889Y-97596487D01*
X139128966Y-97681401D01*
X138870986Y-97819294D01*
X138644866Y-98004866D01*
X138459294Y-98230986D01*
X138321401Y-98488966D01*
X138236487Y-98768889D01*
X138207815Y-99060000D01*
X130688408Y-99060000D01*
X130683398Y-97144999D01*
X130711423Y-97092567D01*
X130761248Y-96928316D01*
X130778072Y-96757500D01*
X130778072Y-96282500D01*
X130761248Y-96111684D01*
X130711423Y-95947433D01*
X130680111Y-95888852D01*
X130667459Y-91052794D01*
X141620690Y-91065206D01*
G36*
X137414000Y-90297000D02*
G01*
X124206000Y-90297000D01*
X124206000Y-88011000D01*
X124203560Y-87986224D01*
X124196333Y-87962399D01*
X124184597Y-87940443D01*
X124168803Y-87921197D01*
X124149557Y-87905403D01*
X124127601Y-87893667D01*
X124103776Y-87886440D01*
X124079000Y-87884000D01*
X120523000Y-87884000D01*
X120523000Y-86233000D01*
X124079000Y-86233000D01*
X124103776Y-86230560D01*
X124127601Y-86223333D01*
X124149557Y-86211597D01*
X124168803Y-86195803D01*
X124184597Y-86176557D01*
X124196333Y-86154601D01*
X124203560Y-86130776D01*
X124206000Y-86106000D01*
X124206000Y-83439000D01*
X137414000Y-83439000D01*
X137414000Y-90297000D01*
X137414000Y-90297000D01*
G37*
X137414000Y-90297000D02*
X124206000Y-90297000D01*
X124206000Y-88011000D01*
X124203560Y-87986224D01*
X124196333Y-87962399D01*
X124184597Y-87940443D01*
X124168803Y-87921197D01*
X124149557Y-87905403D01*
X124127601Y-87893667D01*
X124103776Y-87886440D01*
X124079000Y-87884000D01*
X120523000Y-87884000D01*
X120523000Y-86233000D01*
X124079000Y-86233000D01*
X124103776Y-86230560D01*
X124127601Y-86223333D01*
X124149557Y-86211597D01*
X124168803Y-86195803D01*
X124184597Y-86176557D01*
X124196333Y-86154601D01*
X124203560Y-86130776D01*
X124206000Y-86106000D01*
X124206000Y-83439000D01*
X137414000Y-83439000D01*
X137414000Y-90297000D01*
G36*
X119761000Y-83883500D02*
G01*
X119553079Y-83883500D01*
X119344522Y-83924985D01*
X119148065Y-84006360D01*
X118971259Y-84124498D01*
X118820898Y-84274859D01*
X118702760Y-84451665D01*
X118621385Y-84648122D01*
X118579900Y-84856679D01*
X118579900Y-85069321D01*
X118621385Y-85277878D01*
X118702760Y-85474335D01*
X118820898Y-85651141D01*
X118971259Y-85801502D01*
X119148065Y-85919640D01*
X119344522Y-86001015D01*
X119553079Y-86042500D01*
X119761000Y-86042500D01*
X119761000Y-88519000D01*
X119763440Y-88543776D01*
X119770667Y-88567601D01*
X119782403Y-88589557D01*
X119798197Y-88608803D01*
X119817443Y-88624597D01*
X119839399Y-88636333D01*
X119863224Y-88643560D01*
X119888000Y-88646000D01*
X123317000Y-88646000D01*
X123317000Y-90425381D01*
X117632362Y-90487508D01*
X117607614Y-90490218D01*
X117583870Y-90497705D01*
X117562043Y-90509681D01*
X117542971Y-90525684D01*
X117527389Y-90545101D01*
X117515893Y-90567184D01*
X117508927Y-90591086D01*
X117506762Y-90612784D01*
X117444974Y-95185060D01*
X114638712Y-95152988D01*
X114617034Y-95141401D01*
X114337111Y-95056487D01*
X114118950Y-95035000D01*
X113973050Y-95035000D01*
X113754889Y-95056487D01*
X113480407Y-95139751D01*
X112141000Y-95124443D01*
X112141000Y-83439000D01*
X119761000Y-83439000D01*
X119761000Y-83883500D01*
X119761000Y-83883500D01*
G37*
X119761000Y-83883500D02*
X119553079Y-83883500D01*
X119344522Y-83924985D01*
X119148065Y-84006360D01*
X118971259Y-84124498D01*
X118820898Y-84274859D01*
X118702760Y-84451665D01*
X118621385Y-84648122D01*
X118579900Y-84856679D01*
X118579900Y-85069321D01*
X118621385Y-85277878D01*
X118702760Y-85474335D01*
X118820898Y-85651141D01*
X118971259Y-85801502D01*
X119148065Y-85919640D01*
X119344522Y-86001015D01*
X119553079Y-86042500D01*
X119761000Y-86042500D01*
X119761000Y-88519000D01*
X119763440Y-88543776D01*
X119770667Y-88567601D01*
X119782403Y-88589557D01*
X119798197Y-88608803D01*
X119817443Y-88624597D01*
X119839399Y-88636333D01*
X119863224Y-88643560D01*
X119888000Y-88646000D01*
X123317000Y-88646000D01*
X123317000Y-90425381D01*
X117632362Y-90487508D01*
X117607614Y-90490218D01*
X117583870Y-90497705D01*
X117562043Y-90509681D01*
X117542971Y-90525684D01*
X117527389Y-90545101D01*
X117515893Y-90567184D01*
X117508927Y-90591086D01*
X117506762Y-90612784D01*
X117444974Y-95185060D01*
X114638712Y-95152988D01*
X114617034Y-95141401D01*
X114337111Y-95056487D01*
X114118950Y-95035000D01*
X113973050Y-95035000D01*
X113754889Y-95056487D01*
X113480407Y-95139751D01*
X112141000Y-95124443D01*
X112141000Y-83439000D01*
X119761000Y-83439000D01*
X119761000Y-83883500D01*
G36*
X137541000Y-102520164D02*
G01*
X137541000Y-109600764D01*
X124079000Y-109575835D01*
X124079000Y-106934000D01*
X124076560Y-106909224D01*
X124069333Y-106885399D01*
X124057597Y-106863443D01*
X124041803Y-106844197D01*
X124022557Y-106828403D01*
X124000601Y-106816667D01*
X123976776Y-106809440D01*
X123952000Y-106807000D01*
X120396000Y-106807000D01*
X120396000Y-105029000D01*
X123952000Y-105029000D01*
X123976776Y-105026560D01*
X124000601Y-105019333D01*
X124022557Y-105007597D01*
X124041803Y-104991803D01*
X124057597Y-104972557D01*
X124069333Y-104950601D01*
X124076560Y-104926776D01*
X124079000Y-104902000D01*
X124079000Y-102457840D01*
X137541000Y-102520164D01*
X137541000Y-102520164D01*
G37*
X137541000Y-102520164D02*
X137541000Y-109600764D01*
X124079000Y-109575835D01*
X124079000Y-106934000D01*
X124076560Y-106909224D01*
X124069333Y-106885399D01*
X124057597Y-106863443D01*
X124041803Y-106844197D01*
X124022557Y-106828403D01*
X124000601Y-106816667D01*
X123976776Y-106809440D01*
X123952000Y-106807000D01*
X120396000Y-106807000D01*
X120396000Y-105029000D01*
X123952000Y-105029000D01*
X123976776Y-105026560D01*
X124000601Y-105019333D01*
X124022557Y-105007597D01*
X124041803Y-104991803D01*
X124057597Y-104972557D01*
X124069333Y-104950601D01*
X124076560Y-104926776D01*
X124079000Y-104902000D01*
X124079000Y-102457840D01*
X137541000Y-102520164D01*
G36*
X113754889Y-97983513D02*
G01*
X113973050Y-98005000D01*
X114118950Y-98005000D01*
X114337111Y-97983513D01*
X114556374Y-97917000D01*
X117288613Y-97917000D01*
X117325985Y-98104878D01*
X117348000Y-98158027D01*
X117348000Y-102489000D01*
X117350440Y-102513776D01*
X117357667Y-102537601D01*
X117369403Y-102559557D01*
X117385197Y-102578803D01*
X117404443Y-102594597D01*
X117426399Y-102606333D01*
X117450224Y-102613560D01*
X117475000Y-102616000D01*
X119634000Y-102616000D01*
X119634000Y-107442000D01*
X119636440Y-107466776D01*
X119643667Y-107490601D01*
X119655403Y-107512557D01*
X119671197Y-107531803D01*
X119690443Y-107547597D01*
X119712399Y-107559333D01*
X119736224Y-107566560D01*
X119761000Y-107569000D01*
X123190000Y-107569000D01*
X123190000Y-109601000D01*
X112141000Y-109601000D01*
X112141000Y-97917000D01*
X113535626Y-97917000D01*
X113754889Y-97983513D01*
X113754889Y-97983513D01*
G37*
X113754889Y-97983513D02*
X113973050Y-98005000D01*
X114118950Y-98005000D01*
X114337111Y-97983513D01*
X114556374Y-97917000D01*
X117288613Y-97917000D01*
X117325985Y-98104878D01*
X117348000Y-98158027D01*
X117348000Y-102489000D01*
X117350440Y-102513776D01*
X117357667Y-102537601D01*
X117369403Y-102559557D01*
X117385197Y-102578803D01*
X117404443Y-102594597D01*
X117426399Y-102606333D01*
X117450224Y-102613560D01*
X117475000Y-102616000D01*
X119634000Y-102616000D01*
X119634000Y-107442000D01*
X119636440Y-107466776D01*
X119643667Y-107490601D01*
X119655403Y-107512557D01*
X119671197Y-107531803D01*
X119690443Y-107547597D01*
X119712399Y-107559333D01*
X119736224Y-107566560D01*
X119761000Y-107569000D01*
X123190000Y-107569000D01*
X123190000Y-109601000D01*
X112141000Y-109601000D01*
X112141000Y-97917000D01*
X113535626Y-97917000D01*
X113754889Y-97983513D01*
M02*
