G04 #@! TF.GenerationSoftware,KiCad,Pcbnew,(5.1.2-1)-1*
G04 #@! TF.CreationDate,2019-06-27T16:42:05-07:00*
G04 #@! TF.ProjectId,power_share,706f7765-725f-4736-9861-72652e6b6963,rev?*
G04 #@! TF.SameCoordinates,Original*
G04 #@! TF.FileFunction,Copper,L2,Bot*
G04 #@! TF.FilePolarity,Positive*
%FSLAX46Y46*%
G04 Gerber Fmt 4.6, Leading zero omitted, Abs format (unit mm)*
G04 Created by KiCad (PCBNEW (5.1.2-1)-1) date 2019-06-27 16:42:05*
%MOMM*%
%LPD*%
G04 APERTURE LIST*
%ADD10C,0.300000*%
%ADD11O,1.700000X1.700000*%
%ADD12R,1.700000X1.700000*%
%ADD13C,0.889000*%
%ADD14C,0.660400*%
%ADD15C,0.152400*%
%ADD16C,0.254000*%
G04 APERTURE END LIST*
D10*
X143906857Y-86530571D02*
X144406857Y-85816285D01*
X144764000Y-86530571D02*
X144764000Y-85030571D01*
X144192571Y-85030571D01*
X144049714Y-85102000D01*
X143978285Y-85173428D01*
X143906857Y-85316285D01*
X143906857Y-85530571D01*
X143978285Y-85673428D01*
X144049714Y-85744857D01*
X144192571Y-85816285D01*
X144764000Y-85816285D01*
X142549714Y-86530571D02*
X143264000Y-86530571D01*
X143264000Y-85030571D01*
D11*
X143800000Y-95250000D03*
D12*
X143800000Y-92710000D03*
D11*
X117200000Y-96520000D03*
X117200000Y-93980000D03*
D12*
X117200000Y-91440000D03*
D13*
X119380000Y-93980000D03*
X122999000Y-90869000D03*
X123079000Y-97171000D03*
D14*
X123698000Y-84836000D03*
X126078360Y-90569107D03*
X123698000Y-101600000D03*
X126046082Y-97677004D03*
D15*
X123698000Y-84836000D02*
X126078360Y-87216360D01*
X126078360Y-87216360D02*
X126078360Y-90102134D01*
X126078360Y-90102134D02*
X126078360Y-90569107D01*
X126238000Y-99060000D02*
X123698000Y-101600000D01*
X126238000Y-97790000D02*
X126238000Y-99060000D01*
D16*
G36*
X123240806Y-83980651D02*
G01*
X123082721Y-84086280D01*
X122948280Y-84220721D01*
X122842651Y-84378806D01*
X122769892Y-84554462D01*
X122732800Y-84740936D01*
X122732800Y-84931064D01*
X122769892Y-85117538D01*
X122842651Y-85293194D01*
X122948280Y-85451279D01*
X123082721Y-85585720D01*
X123240806Y-85691349D01*
X123416462Y-85764108D01*
X123602936Y-85801200D01*
X123657413Y-85801200D01*
X125367160Y-87510949D01*
X125367161Y-89915307D01*
X125328640Y-89953828D01*
X125223011Y-90111913D01*
X125150252Y-90287569D01*
X125113160Y-90474043D01*
X125113160Y-90664171D01*
X125150252Y-90850645D01*
X125223011Y-91026301D01*
X125328640Y-91184386D01*
X125463081Y-91318827D01*
X125621166Y-91424456D01*
X125796822Y-91497215D01*
X125983296Y-91534307D01*
X126173424Y-91534307D01*
X126359898Y-91497215D01*
X126535554Y-91424456D01*
X126693639Y-91318827D01*
X126828080Y-91184386D01*
X126933709Y-91026301D01*
X127006468Y-90850645D01*
X127043560Y-90664171D01*
X127043560Y-90474043D01*
X127006468Y-90287569D01*
X126933709Y-90111913D01*
X126828080Y-89953828D01*
X126789560Y-89915308D01*
X126789560Y-87251285D01*
X126793000Y-87216359D01*
X126789560Y-87181433D01*
X126789560Y-87181424D01*
X126779269Y-87076940D01*
X126738602Y-86942879D01*
X126672562Y-86819327D01*
X126605957Y-86738168D01*
X126605948Y-86738159D01*
X126583686Y-86711033D01*
X126556561Y-86688772D01*
X124663200Y-84795413D01*
X124663200Y-84740936D01*
X124626108Y-84554462D01*
X124553349Y-84378806D01*
X124447720Y-84220721D01*
X124313279Y-84086280D01*
X124276942Y-84062000D01*
X141621857Y-84062000D01*
X141621857Y-87882000D01*
X145906143Y-87882000D01*
X145906143Y-84062000D01*
X141621857Y-84062000D01*
X124276942Y-84062000D01*
X124155194Y-83980651D01*
X124134309Y-83972000D01*
X146152000Y-83972000D01*
X146152001Y-103734000D01*
X114960000Y-103734000D01*
X114960000Y-101504936D01*
X122732800Y-101504936D01*
X122732800Y-101695064D01*
X122769892Y-101881538D01*
X122842651Y-102057194D01*
X122948280Y-102215279D01*
X123082721Y-102349720D01*
X123240806Y-102455349D01*
X123416462Y-102528108D01*
X123602936Y-102565200D01*
X123793064Y-102565200D01*
X123979538Y-102528108D01*
X124155194Y-102455349D01*
X124313279Y-102349720D01*
X124447720Y-102215279D01*
X124553349Y-102057194D01*
X124626108Y-101881538D01*
X124663200Y-101695064D01*
X124663200Y-101640587D01*
X126716196Y-99587593D01*
X126743327Y-99565327D01*
X126765593Y-99538196D01*
X126765597Y-99538192D01*
X126832202Y-99457033D01*
X126898241Y-99333482D01*
X126898242Y-99333481D01*
X126938909Y-99199420D01*
X126949200Y-99094936D01*
X126949200Y-99094919D01*
X126952639Y-99060001D01*
X126949200Y-99025083D01*
X126949200Y-98018873D01*
X126974190Y-97958542D01*
X127011282Y-97772068D01*
X127011282Y-97581940D01*
X126974190Y-97395466D01*
X126901431Y-97219810D01*
X126795802Y-97061725D01*
X126661361Y-96927284D01*
X126503276Y-96821655D01*
X126327620Y-96748896D01*
X126141146Y-96711804D01*
X125951018Y-96711804D01*
X125764544Y-96748896D01*
X125588888Y-96821655D01*
X125430803Y-96927284D01*
X125296362Y-97061725D01*
X125190733Y-97219810D01*
X125117974Y-97395466D01*
X125080882Y-97581940D01*
X125080882Y-97772068D01*
X125117974Y-97958542D01*
X125190733Y-98134198D01*
X125296362Y-98292283D01*
X125430803Y-98426724D01*
X125526801Y-98490867D01*
X125526801Y-98765410D01*
X123657413Y-100634800D01*
X123602936Y-100634800D01*
X123416462Y-100671892D01*
X123240806Y-100744651D01*
X123082721Y-100850280D01*
X122948280Y-100984721D01*
X122842651Y-101142806D01*
X122769892Y-101318462D01*
X122732800Y-101504936D01*
X114960000Y-101504936D01*
X114960000Y-96520000D01*
X115707815Y-96520000D01*
X115736487Y-96811111D01*
X115821401Y-97091034D01*
X115959294Y-97349014D01*
X116144866Y-97575134D01*
X116370986Y-97760706D01*
X116628966Y-97898599D01*
X116908889Y-97983513D01*
X117127050Y-98005000D01*
X117272950Y-98005000D01*
X117491111Y-97983513D01*
X117771034Y-97898599D01*
X118029014Y-97760706D01*
X118255134Y-97575134D01*
X118440706Y-97349014D01*
X118578599Y-97091034D01*
X118663513Y-96811111D01*
X118692185Y-96520000D01*
X118663513Y-96228889D01*
X118578599Y-95948966D01*
X118440706Y-95690986D01*
X118371691Y-95606890D01*
X142358524Y-95606890D01*
X142403175Y-95754099D01*
X142528359Y-96016920D01*
X142702412Y-96250269D01*
X142918645Y-96445178D01*
X143168748Y-96594157D01*
X143443109Y-96691481D01*
X143673000Y-96570814D01*
X143673000Y-95377000D01*
X143927000Y-95377000D01*
X143927000Y-96570814D01*
X144156891Y-96691481D01*
X144431252Y-96594157D01*
X144681355Y-96445178D01*
X144897588Y-96250269D01*
X145071641Y-96016920D01*
X145196825Y-95754099D01*
X145241476Y-95606890D01*
X145120155Y-95377000D01*
X143927000Y-95377000D01*
X143673000Y-95377000D01*
X142479845Y-95377000D01*
X142358524Y-95606890D01*
X118371691Y-95606890D01*
X118255134Y-95464866D01*
X118029014Y-95279294D01*
X117964477Y-95244799D01*
X118081355Y-95175178D01*
X118297588Y-94980269D01*
X118471641Y-94746920D01*
X118596825Y-94484099D01*
X118641476Y-94336890D01*
X118520155Y-94107000D01*
X117327000Y-94107000D01*
X117327000Y-94127000D01*
X117073000Y-94127000D01*
X117073000Y-94107000D01*
X115879845Y-94107000D01*
X115758524Y-94336890D01*
X115803175Y-94484099D01*
X115928359Y-94746920D01*
X116102412Y-94980269D01*
X116318645Y-95175178D01*
X116435523Y-95244799D01*
X116370986Y-95279294D01*
X116144866Y-95464866D01*
X115959294Y-95690986D01*
X115821401Y-95948966D01*
X115736487Y-96228889D01*
X115707815Y-96520000D01*
X114960000Y-96520000D01*
X114960000Y-90590000D01*
X115711928Y-90590000D01*
X115711928Y-92290000D01*
X115724188Y-92414482D01*
X115760498Y-92534180D01*
X115819463Y-92644494D01*
X115898815Y-92741185D01*
X115995506Y-92820537D01*
X116105820Y-92879502D01*
X116186466Y-92903966D01*
X116102412Y-92979731D01*
X115928359Y-93213080D01*
X115803175Y-93475901D01*
X115758524Y-93623110D01*
X115879845Y-93853000D01*
X117073000Y-93853000D01*
X117073000Y-93833000D01*
X117327000Y-93833000D01*
X117327000Y-93853000D01*
X118520155Y-93853000D01*
X118641476Y-93623110D01*
X118596825Y-93475901D01*
X118471641Y-93213080D01*
X118297588Y-92979731D01*
X118213534Y-92903966D01*
X118294180Y-92879502D01*
X118404494Y-92820537D01*
X118501185Y-92741185D01*
X118580537Y-92644494D01*
X118639502Y-92534180D01*
X118675812Y-92414482D01*
X118688072Y-92290000D01*
X118688072Y-91860000D01*
X142311928Y-91860000D01*
X142311928Y-93560000D01*
X142324188Y-93684482D01*
X142360498Y-93804180D01*
X142419463Y-93914494D01*
X142498815Y-94011185D01*
X142595506Y-94090537D01*
X142705820Y-94149502D01*
X142786466Y-94173966D01*
X142702412Y-94249731D01*
X142528359Y-94483080D01*
X142403175Y-94745901D01*
X142358524Y-94893110D01*
X142479845Y-95123000D01*
X143673000Y-95123000D01*
X143673000Y-95103000D01*
X143927000Y-95103000D01*
X143927000Y-95123000D01*
X145120155Y-95123000D01*
X145241476Y-94893110D01*
X145196825Y-94745901D01*
X145071641Y-94483080D01*
X144897588Y-94249731D01*
X144813534Y-94173966D01*
X144894180Y-94149502D01*
X145004494Y-94090537D01*
X145101185Y-94011185D01*
X145180537Y-93914494D01*
X145239502Y-93804180D01*
X145275812Y-93684482D01*
X145288072Y-93560000D01*
X145288072Y-91860000D01*
X145275812Y-91735518D01*
X145239502Y-91615820D01*
X145180537Y-91505506D01*
X145101185Y-91408815D01*
X145004494Y-91329463D01*
X144894180Y-91270498D01*
X144774482Y-91234188D01*
X144650000Y-91221928D01*
X142950000Y-91221928D01*
X142825518Y-91234188D01*
X142705820Y-91270498D01*
X142595506Y-91329463D01*
X142498815Y-91408815D01*
X142419463Y-91505506D01*
X142360498Y-91615820D01*
X142324188Y-91735518D01*
X142311928Y-91860000D01*
X118688072Y-91860000D01*
X118688072Y-90590000D01*
X118675812Y-90465518D01*
X118639502Y-90345820D01*
X118580537Y-90235506D01*
X118501185Y-90138815D01*
X118404494Y-90059463D01*
X118294180Y-90000498D01*
X118174482Y-89964188D01*
X118050000Y-89951928D01*
X116350000Y-89951928D01*
X116225518Y-89964188D01*
X116105820Y-90000498D01*
X115995506Y-90059463D01*
X115898815Y-90138815D01*
X115819463Y-90235506D01*
X115760498Y-90345820D01*
X115724188Y-90465518D01*
X115711928Y-90590000D01*
X114960000Y-90590000D01*
X114960000Y-83972000D01*
X123261691Y-83972000D01*
X123240806Y-83980651D01*
X123240806Y-83980651D01*
G37*
X123240806Y-83980651D02*
X123082721Y-84086280D01*
X122948280Y-84220721D01*
X122842651Y-84378806D01*
X122769892Y-84554462D01*
X122732800Y-84740936D01*
X122732800Y-84931064D01*
X122769892Y-85117538D01*
X122842651Y-85293194D01*
X122948280Y-85451279D01*
X123082721Y-85585720D01*
X123240806Y-85691349D01*
X123416462Y-85764108D01*
X123602936Y-85801200D01*
X123657413Y-85801200D01*
X125367160Y-87510949D01*
X125367161Y-89915307D01*
X125328640Y-89953828D01*
X125223011Y-90111913D01*
X125150252Y-90287569D01*
X125113160Y-90474043D01*
X125113160Y-90664171D01*
X125150252Y-90850645D01*
X125223011Y-91026301D01*
X125328640Y-91184386D01*
X125463081Y-91318827D01*
X125621166Y-91424456D01*
X125796822Y-91497215D01*
X125983296Y-91534307D01*
X126173424Y-91534307D01*
X126359898Y-91497215D01*
X126535554Y-91424456D01*
X126693639Y-91318827D01*
X126828080Y-91184386D01*
X126933709Y-91026301D01*
X127006468Y-90850645D01*
X127043560Y-90664171D01*
X127043560Y-90474043D01*
X127006468Y-90287569D01*
X126933709Y-90111913D01*
X126828080Y-89953828D01*
X126789560Y-89915308D01*
X126789560Y-87251285D01*
X126793000Y-87216359D01*
X126789560Y-87181433D01*
X126789560Y-87181424D01*
X126779269Y-87076940D01*
X126738602Y-86942879D01*
X126672562Y-86819327D01*
X126605957Y-86738168D01*
X126605948Y-86738159D01*
X126583686Y-86711033D01*
X126556561Y-86688772D01*
X124663200Y-84795413D01*
X124663200Y-84740936D01*
X124626108Y-84554462D01*
X124553349Y-84378806D01*
X124447720Y-84220721D01*
X124313279Y-84086280D01*
X124276942Y-84062000D01*
X141621857Y-84062000D01*
X141621857Y-87882000D01*
X145906143Y-87882000D01*
X145906143Y-84062000D01*
X141621857Y-84062000D01*
X124276942Y-84062000D01*
X124155194Y-83980651D01*
X124134309Y-83972000D01*
X146152000Y-83972000D01*
X146152001Y-103734000D01*
X114960000Y-103734000D01*
X114960000Y-101504936D01*
X122732800Y-101504936D01*
X122732800Y-101695064D01*
X122769892Y-101881538D01*
X122842651Y-102057194D01*
X122948280Y-102215279D01*
X123082721Y-102349720D01*
X123240806Y-102455349D01*
X123416462Y-102528108D01*
X123602936Y-102565200D01*
X123793064Y-102565200D01*
X123979538Y-102528108D01*
X124155194Y-102455349D01*
X124313279Y-102349720D01*
X124447720Y-102215279D01*
X124553349Y-102057194D01*
X124626108Y-101881538D01*
X124663200Y-101695064D01*
X124663200Y-101640587D01*
X126716196Y-99587593D01*
X126743327Y-99565327D01*
X126765593Y-99538196D01*
X126765597Y-99538192D01*
X126832202Y-99457033D01*
X126898241Y-99333482D01*
X126898242Y-99333481D01*
X126938909Y-99199420D01*
X126949200Y-99094936D01*
X126949200Y-99094919D01*
X126952639Y-99060001D01*
X126949200Y-99025083D01*
X126949200Y-98018873D01*
X126974190Y-97958542D01*
X127011282Y-97772068D01*
X127011282Y-97581940D01*
X126974190Y-97395466D01*
X126901431Y-97219810D01*
X126795802Y-97061725D01*
X126661361Y-96927284D01*
X126503276Y-96821655D01*
X126327620Y-96748896D01*
X126141146Y-96711804D01*
X125951018Y-96711804D01*
X125764544Y-96748896D01*
X125588888Y-96821655D01*
X125430803Y-96927284D01*
X125296362Y-97061725D01*
X125190733Y-97219810D01*
X125117974Y-97395466D01*
X125080882Y-97581940D01*
X125080882Y-97772068D01*
X125117974Y-97958542D01*
X125190733Y-98134198D01*
X125296362Y-98292283D01*
X125430803Y-98426724D01*
X125526801Y-98490867D01*
X125526801Y-98765410D01*
X123657413Y-100634800D01*
X123602936Y-100634800D01*
X123416462Y-100671892D01*
X123240806Y-100744651D01*
X123082721Y-100850280D01*
X122948280Y-100984721D01*
X122842651Y-101142806D01*
X122769892Y-101318462D01*
X122732800Y-101504936D01*
X114960000Y-101504936D01*
X114960000Y-96520000D01*
X115707815Y-96520000D01*
X115736487Y-96811111D01*
X115821401Y-97091034D01*
X115959294Y-97349014D01*
X116144866Y-97575134D01*
X116370986Y-97760706D01*
X116628966Y-97898599D01*
X116908889Y-97983513D01*
X117127050Y-98005000D01*
X117272950Y-98005000D01*
X117491111Y-97983513D01*
X117771034Y-97898599D01*
X118029014Y-97760706D01*
X118255134Y-97575134D01*
X118440706Y-97349014D01*
X118578599Y-97091034D01*
X118663513Y-96811111D01*
X118692185Y-96520000D01*
X118663513Y-96228889D01*
X118578599Y-95948966D01*
X118440706Y-95690986D01*
X118371691Y-95606890D01*
X142358524Y-95606890D01*
X142403175Y-95754099D01*
X142528359Y-96016920D01*
X142702412Y-96250269D01*
X142918645Y-96445178D01*
X143168748Y-96594157D01*
X143443109Y-96691481D01*
X143673000Y-96570814D01*
X143673000Y-95377000D01*
X143927000Y-95377000D01*
X143927000Y-96570814D01*
X144156891Y-96691481D01*
X144431252Y-96594157D01*
X144681355Y-96445178D01*
X144897588Y-96250269D01*
X145071641Y-96016920D01*
X145196825Y-95754099D01*
X145241476Y-95606890D01*
X145120155Y-95377000D01*
X143927000Y-95377000D01*
X143673000Y-95377000D01*
X142479845Y-95377000D01*
X142358524Y-95606890D01*
X118371691Y-95606890D01*
X118255134Y-95464866D01*
X118029014Y-95279294D01*
X117964477Y-95244799D01*
X118081355Y-95175178D01*
X118297588Y-94980269D01*
X118471641Y-94746920D01*
X118596825Y-94484099D01*
X118641476Y-94336890D01*
X118520155Y-94107000D01*
X117327000Y-94107000D01*
X117327000Y-94127000D01*
X117073000Y-94127000D01*
X117073000Y-94107000D01*
X115879845Y-94107000D01*
X115758524Y-94336890D01*
X115803175Y-94484099D01*
X115928359Y-94746920D01*
X116102412Y-94980269D01*
X116318645Y-95175178D01*
X116435523Y-95244799D01*
X116370986Y-95279294D01*
X116144866Y-95464866D01*
X115959294Y-95690986D01*
X115821401Y-95948966D01*
X115736487Y-96228889D01*
X115707815Y-96520000D01*
X114960000Y-96520000D01*
X114960000Y-90590000D01*
X115711928Y-90590000D01*
X115711928Y-92290000D01*
X115724188Y-92414482D01*
X115760498Y-92534180D01*
X115819463Y-92644494D01*
X115898815Y-92741185D01*
X115995506Y-92820537D01*
X116105820Y-92879502D01*
X116186466Y-92903966D01*
X116102412Y-92979731D01*
X115928359Y-93213080D01*
X115803175Y-93475901D01*
X115758524Y-93623110D01*
X115879845Y-93853000D01*
X117073000Y-93853000D01*
X117073000Y-93833000D01*
X117327000Y-93833000D01*
X117327000Y-93853000D01*
X118520155Y-93853000D01*
X118641476Y-93623110D01*
X118596825Y-93475901D01*
X118471641Y-93213080D01*
X118297588Y-92979731D01*
X118213534Y-92903966D01*
X118294180Y-92879502D01*
X118404494Y-92820537D01*
X118501185Y-92741185D01*
X118580537Y-92644494D01*
X118639502Y-92534180D01*
X118675812Y-92414482D01*
X118688072Y-92290000D01*
X118688072Y-91860000D01*
X142311928Y-91860000D01*
X142311928Y-93560000D01*
X142324188Y-93684482D01*
X142360498Y-93804180D01*
X142419463Y-93914494D01*
X142498815Y-94011185D01*
X142595506Y-94090537D01*
X142705820Y-94149502D01*
X142786466Y-94173966D01*
X142702412Y-94249731D01*
X142528359Y-94483080D01*
X142403175Y-94745901D01*
X142358524Y-94893110D01*
X142479845Y-95123000D01*
X143673000Y-95123000D01*
X143673000Y-95103000D01*
X143927000Y-95103000D01*
X143927000Y-95123000D01*
X145120155Y-95123000D01*
X145241476Y-94893110D01*
X145196825Y-94745901D01*
X145071641Y-94483080D01*
X144897588Y-94249731D01*
X144813534Y-94173966D01*
X144894180Y-94149502D01*
X145004494Y-94090537D01*
X145101185Y-94011185D01*
X145180537Y-93914494D01*
X145239502Y-93804180D01*
X145275812Y-93684482D01*
X145288072Y-93560000D01*
X145288072Y-91860000D01*
X145275812Y-91735518D01*
X145239502Y-91615820D01*
X145180537Y-91505506D01*
X145101185Y-91408815D01*
X145004494Y-91329463D01*
X144894180Y-91270498D01*
X144774482Y-91234188D01*
X144650000Y-91221928D01*
X142950000Y-91221928D01*
X142825518Y-91234188D01*
X142705820Y-91270498D01*
X142595506Y-91329463D01*
X142498815Y-91408815D01*
X142419463Y-91505506D01*
X142360498Y-91615820D01*
X142324188Y-91735518D01*
X142311928Y-91860000D01*
X118688072Y-91860000D01*
X118688072Y-90590000D01*
X118675812Y-90465518D01*
X118639502Y-90345820D01*
X118580537Y-90235506D01*
X118501185Y-90138815D01*
X118404494Y-90059463D01*
X118294180Y-90000498D01*
X118174482Y-89964188D01*
X118050000Y-89951928D01*
X116350000Y-89951928D01*
X116225518Y-89964188D01*
X116105820Y-90000498D01*
X115995506Y-90059463D01*
X115898815Y-90138815D01*
X115819463Y-90235506D01*
X115760498Y-90345820D01*
X115724188Y-90465518D01*
X115711928Y-90590000D01*
X114960000Y-90590000D01*
X114960000Y-83972000D01*
X123261691Y-83972000D01*
X123240806Y-83980651D01*
M02*
