G04 #@! TF.GenerationSoftware,KiCad,Pcbnew,(5.1.2-1)-1*
G04 #@! TF.CreationDate,2019-06-30T23:14:58-07:00*
G04 #@! TF.ProjectId,power_share,706f7765-725f-4736-9861-72652e6b6963,rev?*
G04 #@! TF.SameCoordinates,Original*
G04 #@! TF.FileFunction,Legend,Top*
G04 #@! TF.FilePolarity,Positive*
%FSLAX46Y46*%
G04 Gerber Fmt 4.6, Leading zero omitted, Abs format (unit mm)*
G04 Created by KiCad (PCBNEW (5.1.2-1)-1) date 2019-06-30 23:14:58*
%MOMM*%
%LPD*%
G04 APERTURE LIST*
%ADD10C,0.254000*%
%ADD11C,0.152400*%
%ADD12C,0.120000*%
%ADD13C,0.150000*%
G04 APERTURE END LIST*
D10*
X120218200Y-99803857D02*
X120266580Y-99852238D01*
X120218200Y-99900619D01*
X120169819Y-99852238D01*
X120218200Y-99803857D01*
X120218200Y-99900619D01*
D11*
X111607600Y-97139276D02*
X111568895Y-97216685D01*
X111568895Y-97332800D01*
X111607600Y-97448914D01*
X111685009Y-97526323D01*
X111762419Y-97565028D01*
X111917238Y-97603733D01*
X112033352Y-97603733D01*
X112188171Y-97565028D01*
X112265580Y-97526323D01*
X112342990Y-97448914D01*
X112381695Y-97332800D01*
X112381695Y-97255390D01*
X112342990Y-97139276D01*
X112304285Y-97100571D01*
X112033352Y-97100571D01*
X112033352Y-97255390D01*
X112381695Y-96752228D02*
X111568895Y-96752228D01*
X112381695Y-96287771D01*
X111568895Y-96287771D01*
X112381695Y-95900723D02*
X111568895Y-95900723D01*
X111568895Y-95707200D01*
X111607600Y-95591085D01*
X111685009Y-95513676D01*
X111762419Y-95474971D01*
X111917238Y-95436266D01*
X112033352Y-95436266D01*
X112188171Y-95474971D01*
X112265580Y-95513676D01*
X112342990Y-95591085D01*
X112381695Y-95707200D01*
X112381695Y-95900723D01*
X139080723Y-100812600D02*
X139003314Y-100773895D01*
X138887200Y-100773895D01*
X138771085Y-100812600D01*
X138693676Y-100890009D01*
X138654971Y-100967419D01*
X138616266Y-101122238D01*
X138616266Y-101238352D01*
X138654971Y-101393171D01*
X138693676Y-101470580D01*
X138771085Y-101547990D01*
X138887200Y-101586695D01*
X138964609Y-101586695D01*
X139080723Y-101547990D01*
X139119428Y-101509285D01*
X139119428Y-101238352D01*
X138964609Y-101238352D01*
X139467771Y-101586695D02*
X139467771Y-100773895D01*
X139932228Y-101586695D01*
X139932228Y-100773895D01*
X140319276Y-101586695D02*
X140319276Y-100773895D01*
X140512800Y-100773895D01*
X140628914Y-100812600D01*
X140706323Y-100890009D01*
X140745028Y-100967419D01*
X140783733Y-101122238D01*
X140783733Y-101238352D01*
X140745028Y-101393171D01*
X140706323Y-101470580D01*
X140628914Y-101547990D01*
X140512800Y-101586695D01*
X140319276Y-101586695D01*
X138209866Y-93915895D02*
X137822819Y-93915895D01*
X137784114Y-94302942D01*
X137822819Y-94264238D01*
X137900228Y-94225533D01*
X138093752Y-94225533D01*
X138171161Y-94264238D01*
X138209866Y-94302942D01*
X138248571Y-94380352D01*
X138248571Y-94573876D01*
X138209866Y-94651285D01*
X138171161Y-94689990D01*
X138093752Y-94728695D01*
X137900228Y-94728695D01*
X137822819Y-94689990D01*
X137784114Y-94651285D01*
X138480800Y-93915895D02*
X138751733Y-94728695D01*
X139022666Y-93915895D01*
X140067695Y-93915895D02*
X140222514Y-93915895D01*
X140299923Y-93954600D01*
X140377333Y-94032009D01*
X140416038Y-94186828D01*
X140416038Y-94457761D01*
X140377333Y-94612580D01*
X140299923Y-94689990D01*
X140222514Y-94728695D01*
X140067695Y-94728695D01*
X139990285Y-94689990D01*
X139912876Y-94612580D01*
X139874171Y-94457761D01*
X139874171Y-94186828D01*
X139912876Y-94032009D01*
X139990285Y-93954600D01*
X140067695Y-93915895D01*
X141112723Y-94186828D02*
X141112723Y-94728695D01*
X140764380Y-94186828D02*
X140764380Y-94612580D01*
X140803085Y-94689990D01*
X140880495Y-94728695D01*
X140996609Y-94728695D01*
X141074019Y-94689990D01*
X141112723Y-94651285D01*
X141383657Y-94186828D02*
X141693295Y-94186828D01*
X141499771Y-93915895D02*
X141499771Y-94612580D01*
X141538476Y-94689990D01*
X141615885Y-94728695D01*
X141693295Y-94728695D01*
X112766323Y-100773895D02*
X112379276Y-100773895D01*
X112340571Y-101160942D01*
X112379276Y-101122238D01*
X112456685Y-101083533D01*
X112650209Y-101083533D01*
X112727619Y-101122238D01*
X112766323Y-101160942D01*
X112805028Y-101238352D01*
X112805028Y-101431876D01*
X112766323Y-101509285D01*
X112727619Y-101547990D01*
X112650209Y-101586695D01*
X112456685Y-101586695D01*
X112379276Y-101547990D01*
X112340571Y-101509285D01*
X113037257Y-100773895D02*
X113308190Y-101586695D01*
X113579123Y-100773895D01*
X114469333Y-101586695D02*
X114469333Y-100773895D01*
X114856380Y-101044828D02*
X114856380Y-101586695D01*
X114856380Y-101122238D02*
X114895085Y-101083533D01*
X114972495Y-101044828D01*
X115088609Y-101044828D01*
X115166019Y-101083533D01*
X115204723Y-101160942D01*
X115204723Y-101586695D01*
X112766323Y-91502895D02*
X112379276Y-91502895D01*
X112340571Y-91889942D01*
X112379276Y-91851238D01*
X112456685Y-91812533D01*
X112650209Y-91812533D01*
X112727619Y-91851238D01*
X112766323Y-91889942D01*
X112805028Y-91967352D01*
X112805028Y-92160876D01*
X112766323Y-92238285D01*
X112727619Y-92276990D01*
X112650209Y-92315695D01*
X112456685Y-92315695D01*
X112379276Y-92276990D01*
X112340571Y-92238285D01*
X113037257Y-91502895D02*
X113308190Y-92315695D01*
X113579123Y-91502895D01*
X114469333Y-92315695D02*
X114469333Y-91502895D01*
X114856380Y-91773828D02*
X114856380Y-92315695D01*
X114856380Y-91851238D02*
X114895085Y-91812533D01*
X114972495Y-91773828D01*
X115088609Y-91773828D01*
X115166019Y-91812533D01*
X115204723Y-91889942D01*
X115204723Y-92315695D01*
X125305457Y-98449190D02*
X125421571Y-98487895D01*
X125615095Y-98487895D01*
X125692504Y-98449190D01*
X125731209Y-98410485D01*
X125769914Y-98333076D01*
X125769914Y-98255666D01*
X125731209Y-98178257D01*
X125692504Y-98139552D01*
X125615095Y-98100847D01*
X125460276Y-98062142D01*
X125382866Y-98023438D01*
X125344161Y-97984733D01*
X125305457Y-97907323D01*
X125305457Y-97829914D01*
X125344161Y-97752504D01*
X125382866Y-97713800D01*
X125460276Y-97675095D01*
X125653800Y-97675095D01*
X125769914Y-97713800D01*
X126118257Y-98487895D02*
X126118257Y-97675095D01*
X126466600Y-98487895D02*
X126466600Y-98062142D01*
X126427895Y-97984733D01*
X126350485Y-97946028D01*
X126234371Y-97946028D01*
X126156961Y-97984733D01*
X126118257Y-98023438D01*
X127201990Y-98487895D02*
X127201990Y-98062142D01*
X127163285Y-97984733D01*
X127085876Y-97946028D01*
X126931057Y-97946028D01*
X126853647Y-97984733D01*
X127201990Y-98449190D02*
X127124580Y-98487895D01*
X126931057Y-98487895D01*
X126853647Y-98449190D01*
X126814942Y-98371780D01*
X126814942Y-98294371D01*
X126853647Y-98216961D01*
X126931057Y-98178257D01*
X127124580Y-98178257D01*
X127201990Y-98139552D01*
X127589038Y-98487895D02*
X127589038Y-97946028D01*
X127589038Y-98100847D02*
X127627742Y-98023438D01*
X127666447Y-97984733D01*
X127743857Y-97946028D01*
X127821266Y-97946028D01*
X128401838Y-98449190D02*
X128324428Y-98487895D01*
X128169609Y-98487895D01*
X128092200Y-98449190D01*
X128053495Y-98371780D01*
X128053495Y-98062142D01*
X128092200Y-97984733D01*
X128169609Y-97946028D01*
X128324428Y-97946028D01*
X128401838Y-97984733D01*
X128440542Y-98062142D01*
X128440542Y-98139552D01*
X128053495Y-98216961D01*
X126331133Y-99046695D02*
X126485952Y-99046695D01*
X126563361Y-99085400D01*
X126640771Y-99162809D01*
X126679476Y-99317628D01*
X126679476Y-99588561D01*
X126640771Y-99743380D01*
X126563361Y-99820790D01*
X126485952Y-99859495D01*
X126331133Y-99859495D01*
X126253723Y-99820790D01*
X126176314Y-99743380D01*
X126137609Y-99588561D01*
X126137609Y-99317628D01*
X126176314Y-99162809D01*
X126253723Y-99085400D01*
X126331133Y-99046695D01*
X126911704Y-99317628D02*
X127221342Y-99317628D01*
X127027819Y-99859495D02*
X127027819Y-99162809D01*
X127066523Y-99085400D01*
X127143933Y-99046695D01*
X127221342Y-99046695D01*
X127376161Y-99317628D02*
X127685800Y-99317628D01*
X127492276Y-99859495D02*
X127492276Y-99162809D01*
X127530980Y-99085400D01*
X127608390Y-99046695D01*
X127685800Y-99046695D01*
D12*
X123514000Y-109225000D02*
X122414000Y-109225000D01*
X123514000Y-109495000D02*
X123514000Y-109225000D01*
X125014000Y-109495000D02*
X123514000Y-109495000D01*
X123514000Y-102865000D02*
X120684000Y-102865000D01*
X123514000Y-102595000D02*
X123514000Y-102865000D01*
X125014000Y-102595000D02*
X123514000Y-102595000D01*
X123514000Y-90302000D02*
X122414000Y-90302000D01*
X123514000Y-90572000D02*
X123514000Y-90302000D01*
X125014000Y-90572000D02*
X123514000Y-90572000D01*
X123514000Y-83942000D02*
X120684000Y-83942000D01*
X123514000Y-83672000D02*
X123514000Y-83942000D01*
X125014000Y-83672000D02*
X123514000Y-83672000D01*
X138370000Y-95190000D02*
X139700000Y-95190000D01*
X138370000Y-96520000D02*
X138370000Y-95190000D01*
X138370000Y-97790000D02*
X141030000Y-97790000D01*
X141030000Y-97790000D02*
X141030000Y-100390000D01*
X138370000Y-97790000D02*
X138370000Y-100390000D01*
X138370000Y-100390000D02*
X141030000Y-100390000D01*
X112716000Y-92650000D02*
X114046000Y-92650000D01*
X112716000Y-93980000D02*
X112716000Y-92650000D01*
X112716000Y-95250000D02*
X115376000Y-95250000D01*
X115376000Y-95250000D02*
X115376000Y-100390000D01*
X112716000Y-95250000D02*
X112716000Y-100390000D01*
X112716000Y-100390000D02*
X115376000Y-100390000D01*
X125130000Y-97255000D02*
X127590000Y-97255000D01*
X125130000Y-95785000D02*
X125130000Y-97255000D01*
X127590000Y-95785000D02*
X125130000Y-95785000D01*
X119820000Y-96520000D02*
X119820000Y-99395000D01*
X119820000Y-96520000D02*
X119820000Y-95020000D01*
X124140000Y-96520000D02*
X124140000Y-98020000D01*
X124140000Y-96520000D02*
X124140000Y-95020000D01*
X118027267Y-96010000D02*
X117684733Y-96010000D01*
X118027267Y-97030000D02*
X117684733Y-97030000D01*
X133180000Y-99987936D02*
X133180000Y-104092064D01*
X136600000Y-99987936D02*
X136600000Y-104092064D01*
X130661267Y-96010000D02*
X130318733Y-96010000D01*
X130661267Y-97030000D02*
X130318733Y-97030000D01*
X133180000Y-88717936D02*
X133180000Y-92822064D01*
X136600000Y-88717936D02*
X136600000Y-92822064D01*
X123361267Y-100730000D02*
X123018733Y-100730000D01*
X123361267Y-101750000D02*
X123018733Y-101750000D01*
X119805267Y-100730000D02*
X119462733Y-100730000D01*
X119805267Y-101750000D02*
X119462733Y-101750000D01*
X119805267Y-91430000D02*
X119462733Y-91430000D01*
X119805267Y-92450000D02*
X119462733Y-92450000D01*
X123018733Y-92450000D02*
X123361267Y-92450000D01*
X123018733Y-91430000D02*
X123361267Y-91430000D01*
D13*
X126015761Y-106084619D02*
X125920523Y-106037000D01*
X125825285Y-105941761D01*
X125682428Y-105798904D01*
X125587190Y-105751285D01*
X125491952Y-105751285D01*
X125539571Y-105989380D02*
X125444333Y-105941761D01*
X125349095Y-105846523D01*
X125301476Y-105656047D01*
X125301476Y-105322714D01*
X125349095Y-105132238D01*
X125444333Y-105037000D01*
X125539571Y-104989380D01*
X125730047Y-104989380D01*
X125825285Y-105037000D01*
X125920523Y-105132238D01*
X125968142Y-105322714D01*
X125968142Y-105656047D01*
X125920523Y-105846523D01*
X125825285Y-105941761D01*
X125730047Y-105989380D01*
X125539571Y-105989380D01*
X126349095Y-105084619D02*
X126396714Y-105037000D01*
X126491952Y-104989380D01*
X126730047Y-104989380D01*
X126825285Y-105037000D01*
X126872904Y-105084619D01*
X126920523Y-105179857D01*
X126920523Y-105275095D01*
X126872904Y-105417952D01*
X126301476Y-105989380D01*
X126920523Y-105989380D01*
X126142761Y-87415619D02*
X126047523Y-87368000D01*
X125952285Y-87272761D01*
X125809428Y-87129904D01*
X125714190Y-87082285D01*
X125618952Y-87082285D01*
X125666571Y-87320380D02*
X125571333Y-87272761D01*
X125476095Y-87177523D01*
X125428476Y-86987047D01*
X125428476Y-86653714D01*
X125476095Y-86463238D01*
X125571333Y-86368000D01*
X125666571Y-86320380D01*
X125857047Y-86320380D01*
X125952285Y-86368000D01*
X126047523Y-86463238D01*
X126095142Y-86653714D01*
X126095142Y-86987047D01*
X126047523Y-87177523D01*
X125952285Y-87272761D01*
X125857047Y-87320380D01*
X125666571Y-87320380D01*
X127047523Y-87320380D02*
X126476095Y-87320380D01*
X126761809Y-87320380D02*
X126761809Y-86320380D01*
X126666571Y-86463238D01*
X126571333Y-86558476D01*
X126476095Y-86606095D01*
X121158095Y-95972380D02*
X121158095Y-96781904D01*
X121205714Y-96877142D01*
X121253333Y-96924761D01*
X121348571Y-96972380D01*
X121539047Y-96972380D01*
X121634285Y-96924761D01*
X121681904Y-96877142D01*
X121729523Y-96781904D01*
X121729523Y-95972380D01*
X122729523Y-96972380D02*
X122158095Y-96972380D01*
X122443809Y-96972380D02*
X122443809Y-95972380D01*
X122348571Y-96115238D01*
X122253333Y-96210476D01*
X122158095Y-96258095D01*
D11*
X117720533Y-95537695D02*
X117449600Y-95150647D01*
X117256076Y-95537695D02*
X117256076Y-94724895D01*
X117565714Y-94724895D01*
X117643123Y-94763600D01*
X117681828Y-94802304D01*
X117720533Y-94879714D01*
X117720533Y-94995828D01*
X117681828Y-95073238D01*
X117643123Y-95111942D01*
X117565714Y-95150647D01*
X117256076Y-95150647D01*
X118417219Y-94995828D02*
X118417219Y-95537695D01*
X118223695Y-94686190D02*
X118030171Y-95266761D01*
X118533333Y-95266761D01*
D13*
X134707333Y-102560380D02*
X134374000Y-102084190D01*
X134135904Y-102560380D02*
X134135904Y-101560380D01*
X134516857Y-101560380D01*
X134612095Y-101608000D01*
X134659714Y-101655619D01*
X134707333Y-101750857D01*
X134707333Y-101893714D01*
X134659714Y-101988952D01*
X134612095Y-102036571D01*
X134516857Y-102084190D01*
X134135904Y-102084190D01*
X135040666Y-101560380D02*
X135659714Y-101560380D01*
X135326380Y-101941333D01*
X135469238Y-101941333D01*
X135564476Y-101988952D01*
X135612095Y-102036571D01*
X135659714Y-102131809D01*
X135659714Y-102369904D01*
X135612095Y-102465142D01*
X135564476Y-102512761D01*
X135469238Y-102560380D01*
X135183523Y-102560380D01*
X135088285Y-102512761D01*
X135040666Y-102465142D01*
D11*
X130166533Y-95624695D02*
X129895600Y-95237647D01*
X129702076Y-95624695D02*
X129702076Y-94811895D01*
X130011714Y-94811895D01*
X130089123Y-94850600D01*
X130127828Y-94889304D01*
X130166533Y-94966714D01*
X130166533Y-95082828D01*
X130127828Y-95160238D01*
X130089123Y-95198942D01*
X130011714Y-95237647D01*
X129702076Y-95237647D01*
X130476171Y-94889304D02*
X130514876Y-94850600D01*
X130592285Y-94811895D01*
X130785809Y-94811895D01*
X130863219Y-94850600D01*
X130901923Y-94889304D01*
X130940628Y-94966714D01*
X130940628Y-95044123D01*
X130901923Y-95160238D01*
X130437466Y-95624695D01*
X130940628Y-95624695D01*
D13*
X134707333Y-91130380D02*
X134374000Y-90654190D01*
X134135904Y-91130380D02*
X134135904Y-90130380D01*
X134516857Y-90130380D01*
X134612095Y-90178000D01*
X134659714Y-90225619D01*
X134707333Y-90320857D01*
X134707333Y-90463714D01*
X134659714Y-90558952D01*
X134612095Y-90606571D01*
X134516857Y-90654190D01*
X134135904Y-90654190D01*
X135659714Y-91130380D02*
X135088285Y-91130380D01*
X135374000Y-91130380D02*
X135374000Y-90130380D01*
X135278761Y-90273238D01*
X135183523Y-90368476D01*
X135088285Y-90416095D01*
D11*
X125467533Y-101509285D02*
X125428828Y-101547990D01*
X125312714Y-101586695D01*
X125235304Y-101586695D01*
X125119190Y-101547990D01*
X125041780Y-101470580D01*
X125003076Y-101393171D01*
X124964371Y-101238352D01*
X124964371Y-101122238D01*
X125003076Y-100967419D01*
X125041780Y-100890009D01*
X125119190Y-100812600D01*
X125235304Y-100773895D01*
X125312714Y-100773895D01*
X125428828Y-100812600D01*
X125467533Y-100851304D01*
X126164219Y-101044828D02*
X126164219Y-101586695D01*
X125970695Y-100735190D02*
X125777171Y-101315761D01*
X126280333Y-101315761D01*
X117085533Y-101509285D02*
X117046828Y-101547990D01*
X116930714Y-101586695D01*
X116853304Y-101586695D01*
X116737190Y-101547990D01*
X116659780Y-101470580D01*
X116621076Y-101393171D01*
X116582371Y-101238352D01*
X116582371Y-101122238D01*
X116621076Y-100967419D01*
X116659780Y-100890009D01*
X116737190Y-100812600D01*
X116853304Y-100773895D01*
X116930714Y-100773895D01*
X117046828Y-100812600D01*
X117085533Y-100851304D01*
X117356466Y-100773895D02*
X117859628Y-100773895D01*
X117588695Y-101083533D01*
X117704809Y-101083533D01*
X117782219Y-101122238D01*
X117820923Y-101160942D01*
X117859628Y-101238352D01*
X117859628Y-101431876D01*
X117820923Y-101509285D01*
X117782219Y-101547990D01*
X117704809Y-101586695D01*
X117472580Y-101586695D01*
X117395171Y-101547990D01*
X117356466Y-101509285D01*
X117085533Y-92238285D02*
X117046828Y-92276990D01*
X116930714Y-92315695D01*
X116853304Y-92315695D01*
X116737190Y-92276990D01*
X116659780Y-92199580D01*
X116621076Y-92122171D01*
X116582371Y-91967352D01*
X116582371Y-91851238D01*
X116621076Y-91696419D01*
X116659780Y-91619009D01*
X116737190Y-91541600D01*
X116853304Y-91502895D01*
X116930714Y-91502895D01*
X117046828Y-91541600D01*
X117085533Y-91580304D01*
X117395171Y-91580304D02*
X117433876Y-91541600D01*
X117511285Y-91502895D01*
X117704809Y-91502895D01*
X117782219Y-91541600D01*
X117820923Y-91580304D01*
X117859628Y-91657714D01*
X117859628Y-91735123D01*
X117820923Y-91851238D01*
X117356466Y-92315695D01*
X117859628Y-92315695D01*
X125594533Y-92238285D02*
X125555828Y-92276990D01*
X125439714Y-92315695D01*
X125362304Y-92315695D01*
X125246190Y-92276990D01*
X125168780Y-92199580D01*
X125130076Y-92122171D01*
X125091371Y-91967352D01*
X125091371Y-91851238D01*
X125130076Y-91696419D01*
X125168780Y-91619009D01*
X125246190Y-91541600D01*
X125362304Y-91502895D01*
X125439714Y-91502895D01*
X125555828Y-91541600D01*
X125594533Y-91580304D01*
X126368628Y-92315695D02*
X125904171Y-92315695D01*
X126136400Y-92315695D02*
X126136400Y-91502895D01*
X126058990Y-91619009D01*
X125981580Y-91696419D01*
X125904171Y-91735123D01*
M02*
