G04 #@! TF.GenerationSoftware,KiCad,Pcbnew,(5.1.2-1)-1*
G04 #@! TF.CreationDate,2019-06-28T15:13:53-07:00*
G04 #@! TF.ProjectId,power_share,706f7765-725f-4736-9861-72652e6b6963,rev?*
G04 #@! TF.SameCoordinates,Original*
G04 #@! TF.FileFunction,Soldermask,Bot*
G04 #@! TF.FilePolarity,Negative*
%FSLAX46Y46*%
G04 Gerber Fmt 4.6, Leading zero omitted, Abs format (unit mm)*
G04 Created by KiCad (PCBNEW (5.1.2-1)-1) date 2019-06-28 15:13:53*
%MOMM*%
%LPD*%
G04 APERTURE LIST*
%ADD10C,0.100000*%
G04 APERTURE END LIST*
D10*
G36*
X117310442Y-95625518D02*
G01*
X117376627Y-95632037D01*
X117546466Y-95683557D01*
X117702991Y-95767222D01*
X117738729Y-95796552D01*
X117840186Y-95879814D01*
X117923448Y-95981271D01*
X117952778Y-96017009D01*
X118036443Y-96173534D01*
X118087963Y-96343373D01*
X118105359Y-96520000D01*
X118087963Y-96696627D01*
X118036443Y-96866466D01*
X117952778Y-97022991D01*
X117923448Y-97058729D01*
X117840186Y-97160186D01*
X117738729Y-97243448D01*
X117702991Y-97272778D01*
X117546466Y-97356443D01*
X117376627Y-97407963D01*
X117310442Y-97414482D01*
X117244260Y-97421000D01*
X117155740Y-97421000D01*
X117089558Y-97414482D01*
X117023373Y-97407963D01*
X116853534Y-97356443D01*
X116697009Y-97272778D01*
X116661271Y-97243448D01*
X116559814Y-97160186D01*
X116476552Y-97058729D01*
X116447222Y-97022991D01*
X116363557Y-96866466D01*
X116312037Y-96696627D01*
X116294641Y-96520000D01*
X116312037Y-96343373D01*
X116363557Y-96173534D01*
X116447222Y-96017009D01*
X116476552Y-95981271D01*
X116559814Y-95879814D01*
X116661271Y-95796552D01*
X116697009Y-95767222D01*
X116853534Y-95683557D01*
X117023373Y-95632037D01*
X117089558Y-95625518D01*
X117155740Y-95619000D01*
X117244260Y-95619000D01*
X117310442Y-95625518D01*
X117310442Y-95625518D01*
G37*
G36*
X143910442Y-94355518D02*
G01*
X143976627Y-94362037D01*
X144146466Y-94413557D01*
X144302991Y-94497222D01*
X144338729Y-94526552D01*
X144440186Y-94609814D01*
X144523448Y-94711271D01*
X144552778Y-94747009D01*
X144636443Y-94903534D01*
X144687963Y-95073373D01*
X144705359Y-95250000D01*
X144687963Y-95426627D01*
X144636443Y-95596466D01*
X144552778Y-95752991D01*
X144523448Y-95788729D01*
X144440186Y-95890186D01*
X144338729Y-95973448D01*
X144302991Y-96002778D01*
X144146466Y-96086443D01*
X143976627Y-96137963D01*
X143910443Y-96144481D01*
X143844260Y-96151000D01*
X143755740Y-96151000D01*
X143689558Y-96144482D01*
X143623373Y-96137963D01*
X143453534Y-96086443D01*
X143297009Y-96002778D01*
X143261271Y-95973448D01*
X143159814Y-95890186D01*
X143076552Y-95788729D01*
X143047222Y-95752991D01*
X142963557Y-95596466D01*
X142912037Y-95426627D01*
X142894641Y-95250000D01*
X142912037Y-95073373D01*
X142963557Y-94903534D01*
X143047222Y-94747009D01*
X143076552Y-94711271D01*
X143159814Y-94609814D01*
X143261271Y-94526552D01*
X143297009Y-94497222D01*
X143453534Y-94413557D01*
X143623373Y-94362037D01*
X143689557Y-94355519D01*
X143755740Y-94349000D01*
X143844260Y-94349000D01*
X143910442Y-94355518D01*
X143910442Y-94355518D01*
G37*
G36*
X117310443Y-93085519D02*
G01*
X117376627Y-93092037D01*
X117546466Y-93143557D01*
X117702991Y-93227222D01*
X117738729Y-93256552D01*
X117840186Y-93339814D01*
X117923448Y-93441271D01*
X117952778Y-93477009D01*
X118036443Y-93633534D01*
X118087963Y-93803373D01*
X118105359Y-93980000D01*
X118087963Y-94156627D01*
X118036443Y-94326466D01*
X117952778Y-94482991D01*
X117923448Y-94518729D01*
X117840186Y-94620186D01*
X117738729Y-94703448D01*
X117702991Y-94732778D01*
X117546466Y-94816443D01*
X117376627Y-94867963D01*
X117310443Y-94874481D01*
X117244260Y-94881000D01*
X117155740Y-94881000D01*
X117089557Y-94874481D01*
X117023373Y-94867963D01*
X116853534Y-94816443D01*
X116697009Y-94732778D01*
X116661271Y-94703448D01*
X116559814Y-94620186D01*
X116476552Y-94518729D01*
X116447222Y-94482991D01*
X116363557Y-94326466D01*
X116312037Y-94156627D01*
X116294641Y-93980000D01*
X116312037Y-93803373D01*
X116363557Y-93633534D01*
X116447222Y-93477009D01*
X116476552Y-93441271D01*
X116559814Y-93339814D01*
X116661271Y-93256552D01*
X116697009Y-93227222D01*
X116853534Y-93143557D01*
X117023373Y-93092037D01*
X117089557Y-93085519D01*
X117155740Y-93079000D01*
X117244260Y-93079000D01*
X117310443Y-93085519D01*
X117310443Y-93085519D01*
G37*
G36*
X144701000Y-93611000D02*
G01*
X142899000Y-93611000D01*
X142899000Y-91809000D01*
X144701000Y-91809000D01*
X144701000Y-93611000D01*
X144701000Y-93611000D01*
G37*
G36*
X118101000Y-92341000D02*
G01*
X116299000Y-92341000D01*
X116299000Y-90539000D01*
X118101000Y-90539000D01*
X118101000Y-92341000D01*
X118101000Y-92341000D01*
G37*
M02*
