G04 #@! TF.GenerationSoftware,KiCad,Pcbnew,(5.1.2-1)-1*
G04 #@! TF.CreationDate,2019-06-28T15:13:53-07:00*
G04 #@! TF.ProjectId,power_share,706f7765-725f-4736-9861-72652e6b6963,rev?*
G04 #@! TF.SameCoordinates,Original*
G04 #@! TF.FileFunction,Copper,L1,Top*
G04 #@! TF.FilePolarity,Positive*
%FSLAX46Y46*%
G04 Gerber Fmt 4.6, Leading zero omitted, Abs format (unit mm)*
G04 Created by KiCad (PCBNEW (5.1.2-1)-1) date 2019-06-28 15:13:53*
%MOMM*%
%LPD*%
G04 APERTURE LIST*
%ADD10R,6.400000X5.800000*%
%ADD11R,2.200000X1.200000*%
%ADD12O,1.700000X1.700000*%
%ADD13R,1.700000X1.700000*%
%ADD14C,0.100000*%
%ADD15C,0.950000*%
%ADD16C,0.300000*%
%ADD17C,1.525000*%
%ADD18C,0.889000*%
%ADD19C,0.660400*%
%ADD20C,0.152400*%
%ADD21C,0.203200*%
%ADD22C,0.304800*%
%ADD23C,0.254000*%
G04 APERTURE END LIST*
D10*
X131894000Y-103505000D03*
D11*
X125594000Y-105785000D03*
X125594000Y-103505000D03*
X125594000Y-101225000D03*
D10*
X131894000Y-84582000D03*
D11*
X125594000Y-86862000D03*
X125594000Y-84582000D03*
X125594000Y-82302000D03*
D12*
X143800000Y-95250000D03*
D13*
X143800000Y-92710000D03*
D12*
X117200000Y-96520000D03*
X117200000Y-93980000D03*
D13*
X117200000Y-91440000D03*
D14*
G36*
X131785779Y-93626144D02*
G01*
X131808834Y-93629563D01*
X131831443Y-93635227D01*
X131853387Y-93643079D01*
X131874457Y-93653044D01*
X131894448Y-93665026D01*
X131913168Y-93678910D01*
X131930438Y-93694562D01*
X131946090Y-93711832D01*
X131959974Y-93730552D01*
X131971956Y-93750543D01*
X131981921Y-93771613D01*
X131989773Y-93793557D01*
X131995437Y-93816166D01*
X131998856Y-93839221D01*
X132000000Y-93862500D01*
X132000000Y-94337500D01*
X131998856Y-94360779D01*
X131995437Y-94383834D01*
X131989773Y-94406443D01*
X131981921Y-94428387D01*
X131971956Y-94449457D01*
X131959974Y-94469448D01*
X131946090Y-94488168D01*
X131930438Y-94505438D01*
X131913168Y-94521090D01*
X131894448Y-94534974D01*
X131874457Y-94546956D01*
X131853387Y-94556921D01*
X131831443Y-94564773D01*
X131808834Y-94570437D01*
X131785779Y-94573856D01*
X131762500Y-94575000D01*
X131187500Y-94575000D01*
X131164221Y-94573856D01*
X131141166Y-94570437D01*
X131118557Y-94564773D01*
X131096613Y-94556921D01*
X131075543Y-94546956D01*
X131055552Y-94534974D01*
X131036832Y-94521090D01*
X131019562Y-94505438D01*
X131003910Y-94488168D01*
X130990026Y-94469448D01*
X130978044Y-94449457D01*
X130968079Y-94428387D01*
X130960227Y-94406443D01*
X130954563Y-94383834D01*
X130951144Y-94360779D01*
X130950000Y-94337500D01*
X130950000Y-93862500D01*
X130951144Y-93839221D01*
X130954563Y-93816166D01*
X130960227Y-93793557D01*
X130968079Y-93771613D01*
X130978044Y-93750543D01*
X130990026Y-93730552D01*
X131003910Y-93711832D01*
X131019562Y-93694562D01*
X131036832Y-93678910D01*
X131055552Y-93665026D01*
X131075543Y-93653044D01*
X131096613Y-93643079D01*
X131118557Y-93635227D01*
X131141166Y-93629563D01*
X131164221Y-93626144D01*
X131187500Y-93625000D01*
X131762500Y-93625000D01*
X131785779Y-93626144D01*
X131785779Y-93626144D01*
G37*
D15*
X131475000Y-94100000D03*
D14*
G36*
X130035779Y-93626144D02*
G01*
X130058834Y-93629563D01*
X130081443Y-93635227D01*
X130103387Y-93643079D01*
X130124457Y-93653044D01*
X130144448Y-93665026D01*
X130163168Y-93678910D01*
X130180438Y-93694562D01*
X130196090Y-93711832D01*
X130209974Y-93730552D01*
X130221956Y-93750543D01*
X130231921Y-93771613D01*
X130239773Y-93793557D01*
X130245437Y-93816166D01*
X130248856Y-93839221D01*
X130250000Y-93862500D01*
X130250000Y-94337500D01*
X130248856Y-94360779D01*
X130245437Y-94383834D01*
X130239773Y-94406443D01*
X130231921Y-94428387D01*
X130221956Y-94449457D01*
X130209974Y-94469448D01*
X130196090Y-94488168D01*
X130180438Y-94505438D01*
X130163168Y-94521090D01*
X130144448Y-94534974D01*
X130124457Y-94546956D01*
X130103387Y-94556921D01*
X130081443Y-94564773D01*
X130058834Y-94570437D01*
X130035779Y-94573856D01*
X130012500Y-94575000D01*
X129437500Y-94575000D01*
X129414221Y-94573856D01*
X129391166Y-94570437D01*
X129368557Y-94564773D01*
X129346613Y-94556921D01*
X129325543Y-94546956D01*
X129305552Y-94534974D01*
X129286832Y-94521090D01*
X129269562Y-94505438D01*
X129253910Y-94488168D01*
X129240026Y-94469448D01*
X129228044Y-94449457D01*
X129218079Y-94428387D01*
X129210227Y-94406443D01*
X129204563Y-94383834D01*
X129201144Y-94360779D01*
X129200000Y-94337500D01*
X129200000Y-93862500D01*
X129201144Y-93839221D01*
X129204563Y-93816166D01*
X129210227Y-93793557D01*
X129218079Y-93771613D01*
X129228044Y-93750543D01*
X129240026Y-93730552D01*
X129253910Y-93711832D01*
X129269562Y-93694562D01*
X129286832Y-93678910D01*
X129305552Y-93665026D01*
X129325543Y-93653044D01*
X129346613Y-93643079D01*
X129368557Y-93635227D01*
X129391166Y-93629563D01*
X129414221Y-93626144D01*
X129437500Y-93625000D01*
X130012500Y-93625000D01*
X130035779Y-93626144D01*
X130035779Y-93626144D01*
G37*
D15*
X129725000Y-94100000D03*
D14*
G36*
X124122351Y-91185361D02*
G01*
X124129632Y-91186441D01*
X124136771Y-91188229D01*
X124143701Y-91190709D01*
X124150355Y-91193856D01*
X124156668Y-91197640D01*
X124162579Y-91202024D01*
X124168033Y-91206967D01*
X124172976Y-91212421D01*
X124177360Y-91218332D01*
X124181144Y-91224645D01*
X124184291Y-91231299D01*
X124186771Y-91238229D01*
X124188559Y-91245368D01*
X124189639Y-91252649D01*
X124190000Y-91260000D01*
X124190000Y-92560000D01*
X124189639Y-92567351D01*
X124188559Y-92574632D01*
X124186771Y-92581771D01*
X124184291Y-92588701D01*
X124181144Y-92595355D01*
X124177360Y-92601668D01*
X124172976Y-92607579D01*
X124168033Y-92613033D01*
X124162579Y-92617976D01*
X124156668Y-92622360D01*
X124150355Y-92626144D01*
X124143701Y-92629291D01*
X124136771Y-92631771D01*
X124129632Y-92633559D01*
X124122351Y-92634639D01*
X124115000Y-92635000D01*
X123965000Y-92635000D01*
X123957649Y-92634639D01*
X123950368Y-92633559D01*
X123943229Y-92631771D01*
X123936299Y-92629291D01*
X123929645Y-92626144D01*
X123923332Y-92622360D01*
X123917421Y-92617976D01*
X123911967Y-92613033D01*
X123907024Y-92607579D01*
X123902640Y-92601668D01*
X123898856Y-92595355D01*
X123895709Y-92588701D01*
X123893229Y-92581771D01*
X123891441Y-92574632D01*
X123890361Y-92567351D01*
X123890000Y-92560000D01*
X123890000Y-91260000D01*
X123890361Y-91252649D01*
X123891441Y-91245368D01*
X123893229Y-91238229D01*
X123895709Y-91231299D01*
X123898856Y-91224645D01*
X123902640Y-91218332D01*
X123907024Y-91212421D01*
X123911967Y-91206967D01*
X123917421Y-91202024D01*
X123923332Y-91197640D01*
X123929645Y-91193856D01*
X123936299Y-91190709D01*
X123943229Y-91188229D01*
X123950368Y-91186441D01*
X123957649Y-91185361D01*
X123965000Y-91185000D01*
X124115000Y-91185000D01*
X124122351Y-91185361D01*
X124122351Y-91185361D01*
G37*
D16*
X124040000Y-91910000D03*
D14*
G36*
X124622351Y-91185361D02*
G01*
X124629632Y-91186441D01*
X124636771Y-91188229D01*
X124643701Y-91190709D01*
X124650355Y-91193856D01*
X124656668Y-91197640D01*
X124662579Y-91202024D01*
X124668033Y-91206967D01*
X124672976Y-91212421D01*
X124677360Y-91218332D01*
X124681144Y-91224645D01*
X124684291Y-91231299D01*
X124686771Y-91238229D01*
X124688559Y-91245368D01*
X124689639Y-91252649D01*
X124690000Y-91260000D01*
X124690000Y-92560000D01*
X124689639Y-92567351D01*
X124688559Y-92574632D01*
X124686771Y-92581771D01*
X124684291Y-92588701D01*
X124681144Y-92595355D01*
X124677360Y-92601668D01*
X124672976Y-92607579D01*
X124668033Y-92613033D01*
X124662579Y-92617976D01*
X124656668Y-92622360D01*
X124650355Y-92626144D01*
X124643701Y-92629291D01*
X124636771Y-92631771D01*
X124629632Y-92633559D01*
X124622351Y-92634639D01*
X124615000Y-92635000D01*
X124465000Y-92635000D01*
X124457649Y-92634639D01*
X124450368Y-92633559D01*
X124443229Y-92631771D01*
X124436299Y-92629291D01*
X124429645Y-92626144D01*
X124423332Y-92622360D01*
X124417421Y-92617976D01*
X124411967Y-92613033D01*
X124407024Y-92607579D01*
X124402640Y-92601668D01*
X124398856Y-92595355D01*
X124395709Y-92588701D01*
X124393229Y-92581771D01*
X124391441Y-92574632D01*
X124390361Y-92567351D01*
X124390000Y-92560000D01*
X124390000Y-91260000D01*
X124390361Y-91252649D01*
X124391441Y-91245368D01*
X124393229Y-91238229D01*
X124395709Y-91231299D01*
X124398856Y-91224645D01*
X124402640Y-91218332D01*
X124407024Y-91212421D01*
X124411967Y-91206967D01*
X124417421Y-91202024D01*
X124423332Y-91197640D01*
X124429645Y-91193856D01*
X124436299Y-91190709D01*
X124443229Y-91188229D01*
X124450368Y-91186441D01*
X124457649Y-91185361D01*
X124465000Y-91185000D01*
X124615000Y-91185000D01*
X124622351Y-91185361D01*
X124622351Y-91185361D01*
G37*
D16*
X124540000Y-91910000D03*
D14*
G36*
X125122351Y-91185361D02*
G01*
X125129632Y-91186441D01*
X125136771Y-91188229D01*
X125143701Y-91190709D01*
X125150355Y-91193856D01*
X125156668Y-91197640D01*
X125162579Y-91202024D01*
X125168033Y-91206967D01*
X125172976Y-91212421D01*
X125177360Y-91218332D01*
X125181144Y-91224645D01*
X125184291Y-91231299D01*
X125186771Y-91238229D01*
X125188559Y-91245368D01*
X125189639Y-91252649D01*
X125190000Y-91260000D01*
X125190000Y-92560000D01*
X125189639Y-92567351D01*
X125188559Y-92574632D01*
X125186771Y-92581771D01*
X125184291Y-92588701D01*
X125181144Y-92595355D01*
X125177360Y-92601668D01*
X125172976Y-92607579D01*
X125168033Y-92613033D01*
X125162579Y-92617976D01*
X125156668Y-92622360D01*
X125150355Y-92626144D01*
X125143701Y-92629291D01*
X125136771Y-92631771D01*
X125129632Y-92633559D01*
X125122351Y-92634639D01*
X125115000Y-92635000D01*
X124965000Y-92635000D01*
X124957649Y-92634639D01*
X124950368Y-92633559D01*
X124943229Y-92631771D01*
X124936299Y-92629291D01*
X124929645Y-92626144D01*
X124923332Y-92622360D01*
X124917421Y-92617976D01*
X124911967Y-92613033D01*
X124907024Y-92607579D01*
X124902640Y-92601668D01*
X124898856Y-92595355D01*
X124895709Y-92588701D01*
X124893229Y-92581771D01*
X124891441Y-92574632D01*
X124890361Y-92567351D01*
X124890000Y-92560000D01*
X124890000Y-91260000D01*
X124890361Y-91252649D01*
X124891441Y-91245368D01*
X124893229Y-91238229D01*
X124895709Y-91231299D01*
X124898856Y-91224645D01*
X124902640Y-91218332D01*
X124907024Y-91212421D01*
X124911967Y-91206967D01*
X124917421Y-91202024D01*
X124923332Y-91197640D01*
X124929645Y-91193856D01*
X124936299Y-91190709D01*
X124943229Y-91188229D01*
X124950368Y-91186441D01*
X124957649Y-91185361D01*
X124965000Y-91185000D01*
X125115000Y-91185000D01*
X125122351Y-91185361D01*
X125122351Y-91185361D01*
G37*
D16*
X125040000Y-91910000D03*
D14*
G36*
X125622351Y-91185361D02*
G01*
X125629632Y-91186441D01*
X125636771Y-91188229D01*
X125643701Y-91190709D01*
X125650355Y-91193856D01*
X125656668Y-91197640D01*
X125662579Y-91202024D01*
X125668033Y-91206967D01*
X125672976Y-91212421D01*
X125677360Y-91218332D01*
X125681144Y-91224645D01*
X125684291Y-91231299D01*
X125686771Y-91238229D01*
X125688559Y-91245368D01*
X125689639Y-91252649D01*
X125690000Y-91260000D01*
X125690000Y-92560000D01*
X125689639Y-92567351D01*
X125688559Y-92574632D01*
X125686771Y-92581771D01*
X125684291Y-92588701D01*
X125681144Y-92595355D01*
X125677360Y-92601668D01*
X125672976Y-92607579D01*
X125668033Y-92613033D01*
X125662579Y-92617976D01*
X125656668Y-92622360D01*
X125650355Y-92626144D01*
X125643701Y-92629291D01*
X125636771Y-92631771D01*
X125629632Y-92633559D01*
X125622351Y-92634639D01*
X125615000Y-92635000D01*
X125465000Y-92635000D01*
X125457649Y-92634639D01*
X125450368Y-92633559D01*
X125443229Y-92631771D01*
X125436299Y-92629291D01*
X125429645Y-92626144D01*
X125423332Y-92622360D01*
X125417421Y-92617976D01*
X125411967Y-92613033D01*
X125407024Y-92607579D01*
X125402640Y-92601668D01*
X125398856Y-92595355D01*
X125395709Y-92588701D01*
X125393229Y-92581771D01*
X125391441Y-92574632D01*
X125390361Y-92567351D01*
X125390000Y-92560000D01*
X125390000Y-91260000D01*
X125390361Y-91252649D01*
X125391441Y-91245368D01*
X125393229Y-91238229D01*
X125395709Y-91231299D01*
X125398856Y-91224645D01*
X125402640Y-91218332D01*
X125407024Y-91212421D01*
X125411967Y-91206967D01*
X125417421Y-91202024D01*
X125423332Y-91197640D01*
X125429645Y-91193856D01*
X125436299Y-91190709D01*
X125443229Y-91188229D01*
X125450368Y-91186441D01*
X125457649Y-91185361D01*
X125465000Y-91185000D01*
X125615000Y-91185000D01*
X125622351Y-91185361D01*
X125622351Y-91185361D01*
G37*
D16*
X125540000Y-91910000D03*
D14*
G36*
X126122351Y-91185361D02*
G01*
X126129632Y-91186441D01*
X126136771Y-91188229D01*
X126143701Y-91190709D01*
X126150355Y-91193856D01*
X126156668Y-91197640D01*
X126162579Y-91202024D01*
X126168033Y-91206967D01*
X126172976Y-91212421D01*
X126177360Y-91218332D01*
X126181144Y-91224645D01*
X126184291Y-91231299D01*
X126186771Y-91238229D01*
X126188559Y-91245368D01*
X126189639Y-91252649D01*
X126190000Y-91260000D01*
X126190000Y-92560000D01*
X126189639Y-92567351D01*
X126188559Y-92574632D01*
X126186771Y-92581771D01*
X126184291Y-92588701D01*
X126181144Y-92595355D01*
X126177360Y-92601668D01*
X126172976Y-92607579D01*
X126168033Y-92613033D01*
X126162579Y-92617976D01*
X126156668Y-92622360D01*
X126150355Y-92626144D01*
X126143701Y-92629291D01*
X126136771Y-92631771D01*
X126129632Y-92633559D01*
X126122351Y-92634639D01*
X126115000Y-92635000D01*
X125965000Y-92635000D01*
X125957649Y-92634639D01*
X125950368Y-92633559D01*
X125943229Y-92631771D01*
X125936299Y-92629291D01*
X125929645Y-92626144D01*
X125923332Y-92622360D01*
X125917421Y-92617976D01*
X125911967Y-92613033D01*
X125907024Y-92607579D01*
X125902640Y-92601668D01*
X125898856Y-92595355D01*
X125895709Y-92588701D01*
X125893229Y-92581771D01*
X125891441Y-92574632D01*
X125890361Y-92567351D01*
X125890000Y-92560000D01*
X125890000Y-91260000D01*
X125890361Y-91252649D01*
X125891441Y-91245368D01*
X125893229Y-91238229D01*
X125895709Y-91231299D01*
X125898856Y-91224645D01*
X125902640Y-91218332D01*
X125907024Y-91212421D01*
X125911967Y-91206967D01*
X125917421Y-91202024D01*
X125923332Y-91197640D01*
X125929645Y-91193856D01*
X125936299Y-91190709D01*
X125943229Y-91188229D01*
X125950368Y-91186441D01*
X125957649Y-91185361D01*
X125965000Y-91185000D01*
X126115000Y-91185000D01*
X126122351Y-91185361D01*
X126122351Y-91185361D01*
G37*
D16*
X126040000Y-91910000D03*
D14*
G36*
X126622351Y-91185361D02*
G01*
X126629632Y-91186441D01*
X126636771Y-91188229D01*
X126643701Y-91190709D01*
X126650355Y-91193856D01*
X126656668Y-91197640D01*
X126662579Y-91202024D01*
X126668033Y-91206967D01*
X126672976Y-91212421D01*
X126677360Y-91218332D01*
X126681144Y-91224645D01*
X126684291Y-91231299D01*
X126686771Y-91238229D01*
X126688559Y-91245368D01*
X126689639Y-91252649D01*
X126690000Y-91260000D01*
X126690000Y-92560000D01*
X126689639Y-92567351D01*
X126688559Y-92574632D01*
X126686771Y-92581771D01*
X126684291Y-92588701D01*
X126681144Y-92595355D01*
X126677360Y-92601668D01*
X126672976Y-92607579D01*
X126668033Y-92613033D01*
X126662579Y-92617976D01*
X126656668Y-92622360D01*
X126650355Y-92626144D01*
X126643701Y-92629291D01*
X126636771Y-92631771D01*
X126629632Y-92633559D01*
X126622351Y-92634639D01*
X126615000Y-92635000D01*
X126465000Y-92635000D01*
X126457649Y-92634639D01*
X126450368Y-92633559D01*
X126443229Y-92631771D01*
X126436299Y-92629291D01*
X126429645Y-92626144D01*
X126423332Y-92622360D01*
X126417421Y-92617976D01*
X126411967Y-92613033D01*
X126407024Y-92607579D01*
X126402640Y-92601668D01*
X126398856Y-92595355D01*
X126395709Y-92588701D01*
X126393229Y-92581771D01*
X126391441Y-92574632D01*
X126390361Y-92567351D01*
X126390000Y-92560000D01*
X126390000Y-91260000D01*
X126390361Y-91252649D01*
X126391441Y-91245368D01*
X126393229Y-91238229D01*
X126395709Y-91231299D01*
X126398856Y-91224645D01*
X126402640Y-91218332D01*
X126407024Y-91212421D01*
X126411967Y-91206967D01*
X126417421Y-91202024D01*
X126423332Y-91197640D01*
X126429645Y-91193856D01*
X126436299Y-91190709D01*
X126443229Y-91188229D01*
X126450368Y-91186441D01*
X126457649Y-91185361D01*
X126465000Y-91185000D01*
X126615000Y-91185000D01*
X126622351Y-91185361D01*
X126622351Y-91185361D01*
G37*
D16*
X126540000Y-91910000D03*
D14*
G36*
X127122351Y-91185361D02*
G01*
X127129632Y-91186441D01*
X127136771Y-91188229D01*
X127143701Y-91190709D01*
X127150355Y-91193856D01*
X127156668Y-91197640D01*
X127162579Y-91202024D01*
X127168033Y-91206967D01*
X127172976Y-91212421D01*
X127177360Y-91218332D01*
X127181144Y-91224645D01*
X127184291Y-91231299D01*
X127186771Y-91238229D01*
X127188559Y-91245368D01*
X127189639Y-91252649D01*
X127190000Y-91260000D01*
X127190000Y-92560000D01*
X127189639Y-92567351D01*
X127188559Y-92574632D01*
X127186771Y-92581771D01*
X127184291Y-92588701D01*
X127181144Y-92595355D01*
X127177360Y-92601668D01*
X127172976Y-92607579D01*
X127168033Y-92613033D01*
X127162579Y-92617976D01*
X127156668Y-92622360D01*
X127150355Y-92626144D01*
X127143701Y-92629291D01*
X127136771Y-92631771D01*
X127129632Y-92633559D01*
X127122351Y-92634639D01*
X127115000Y-92635000D01*
X126965000Y-92635000D01*
X126957649Y-92634639D01*
X126950368Y-92633559D01*
X126943229Y-92631771D01*
X126936299Y-92629291D01*
X126929645Y-92626144D01*
X126923332Y-92622360D01*
X126917421Y-92617976D01*
X126911967Y-92613033D01*
X126907024Y-92607579D01*
X126902640Y-92601668D01*
X126898856Y-92595355D01*
X126895709Y-92588701D01*
X126893229Y-92581771D01*
X126891441Y-92574632D01*
X126890361Y-92567351D01*
X126890000Y-92560000D01*
X126890000Y-91260000D01*
X126890361Y-91252649D01*
X126891441Y-91245368D01*
X126893229Y-91238229D01*
X126895709Y-91231299D01*
X126898856Y-91224645D01*
X126902640Y-91218332D01*
X126907024Y-91212421D01*
X126911967Y-91206967D01*
X126917421Y-91202024D01*
X126923332Y-91197640D01*
X126929645Y-91193856D01*
X126936299Y-91190709D01*
X126943229Y-91188229D01*
X126950368Y-91186441D01*
X126957649Y-91185361D01*
X126965000Y-91185000D01*
X127115000Y-91185000D01*
X127122351Y-91185361D01*
X127122351Y-91185361D01*
G37*
D16*
X127040000Y-91910000D03*
D14*
G36*
X127622351Y-91185361D02*
G01*
X127629632Y-91186441D01*
X127636771Y-91188229D01*
X127643701Y-91190709D01*
X127650355Y-91193856D01*
X127656668Y-91197640D01*
X127662579Y-91202024D01*
X127668033Y-91206967D01*
X127672976Y-91212421D01*
X127677360Y-91218332D01*
X127681144Y-91224645D01*
X127684291Y-91231299D01*
X127686771Y-91238229D01*
X127688559Y-91245368D01*
X127689639Y-91252649D01*
X127690000Y-91260000D01*
X127690000Y-92560000D01*
X127689639Y-92567351D01*
X127688559Y-92574632D01*
X127686771Y-92581771D01*
X127684291Y-92588701D01*
X127681144Y-92595355D01*
X127677360Y-92601668D01*
X127672976Y-92607579D01*
X127668033Y-92613033D01*
X127662579Y-92617976D01*
X127656668Y-92622360D01*
X127650355Y-92626144D01*
X127643701Y-92629291D01*
X127636771Y-92631771D01*
X127629632Y-92633559D01*
X127622351Y-92634639D01*
X127615000Y-92635000D01*
X127465000Y-92635000D01*
X127457649Y-92634639D01*
X127450368Y-92633559D01*
X127443229Y-92631771D01*
X127436299Y-92629291D01*
X127429645Y-92626144D01*
X127423332Y-92622360D01*
X127417421Y-92617976D01*
X127411967Y-92613033D01*
X127407024Y-92607579D01*
X127402640Y-92601668D01*
X127398856Y-92595355D01*
X127395709Y-92588701D01*
X127393229Y-92581771D01*
X127391441Y-92574632D01*
X127390361Y-92567351D01*
X127390000Y-92560000D01*
X127390000Y-91260000D01*
X127390361Y-91252649D01*
X127391441Y-91245368D01*
X127393229Y-91238229D01*
X127395709Y-91231299D01*
X127398856Y-91224645D01*
X127402640Y-91218332D01*
X127407024Y-91212421D01*
X127411967Y-91206967D01*
X127417421Y-91202024D01*
X127423332Y-91197640D01*
X127429645Y-91193856D01*
X127436299Y-91190709D01*
X127443229Y-91188229D01*
X127450368Y-91186441D01*
X127457649Y-91185361D01*
X127465000Y-91185000D01*
X127615000Y-91185000D01*
X127622351Y-91185361D01*
X127622351Y-91185361D01*
G37*
D16*
X127540000Y-91910000D03*
D14*
G36*
X127622351Y-95485361D02*
G01*
X127629632Y-95486441D01*
X127636771Y-95488229D01*
X127643701Y-95490709D01*
X127650355Y-95493856D01*
X127656668Y-95497640D01*
X127662579Y-95502024D01*
X127668033Y-95506967D01*
X127672976Y-95512421D01*
X127677360Y-95518332D01*
X127681144Y-95524645D01*
X127684291Y-95531299D01*
X127686771Y-95538229D01*
X127688559Y-95545368D01*
X127689639Y-95552649D01*
X127690000Y-95560000D01*
X127690000Y-96860000D01*
X127689639Y-96867351D01*
X127688559Y-96874632D01*
X127686771Y-96881771D01*
X127684291Y-96888701D01*
X127681144Y-96895355D01*
X127677360Y-96901668D01*
X127672976Y-96907579D01*
X127668033Y-96913033D01*
X127662579Y-96917976D01*
X127656668Y-96922360D01*
X127650355Y-96926144D01*
X127643701Y-96929291D01*
X127636771Y-96931771D01*
X127629632Y-96933559D01*
X127622351Y-96934639D01*
X127615000Y-96935000D01*
X127465000Y-96935000D01*
X127457649Y-96934639D01*
X127450368Y-96933559D01*
X127443229Y-96931771D01*
X127436299Y-96929291D01*
X127429645Y-96926144D01*
X127423332Y-96922360D01*
X127417421Y-96917976D01*
X127411967Y-96913033D01*
X127407024Y-96907579D01*
X127402640Y-96901668D01*
X127398856Y-96895355D01*
X127395709Y-96888701D01*
X127393229Y-96881771D01*
X127391441Y-96874632D01*
X127390361Y-96867351D01*
X127390000Y-96860000D01*
X127390000Y-95560000D01*
X127390361Y-95552649D01*
X127391441Y-95545368D01*
X127393229Y-95538229D01*
X127395709Y-95531299D01*
X127398856Y-95524645D01*
X127402640Y-95518332D01*
X127407024Y-95512421D01*
X127411967Y-95506967D01*
X127417421Y-95502024D01*
X127423332Y-95497640D01*
X127429645Y-95493856D01*
X127436299Y-95490709D01*
X127443229Y-95488229D01*
X127450368Y-95486441D01*
X127457649Y-95485361D01*
X127465000Y-95485000D01*
X127615000Y-95485000D01*
X127622351Y-95485361D01*
X127622351Y-95485361D01*
G37*
D16*
X127540000Y-96210000D03*
D14*
G36*
X127122351Y-95485361D02*
G01*
X127129632Y-95486441D01*
X127136771Y-95488229D01*
X127143701Y-95490709D01*
X127150355Y-95493856D01*
X127156668Y-95497640D01*
X127162579Y-95502024D01*
X127168033Y-95506967D01*
X127172976Y-95512421D01*
X127177360Y-95518332D01*
X127181144Y-95524645D01*
X127184291Y-95531299D01*
X127186771Y-95538229D01*
X127188559Y-95545368D01*
X127189639Y-95552649D01*
X127190000Y-95560000D01*
X127190000Y-96860000D01*
X127189639Y-96867351D01*
X127188559Y-96874632D01*
X127186771Y-96881771D01*
X127184291Y-96888701D01*
X127181144Y-96895355D01*
X127177360Y-96901668D01*
X127172976Y-96907579D01*
X127168033Y-96913033D01*
X127162579Y-96917976D01*
X127156668Y-96922360D01*
X127150355Y-96926144D01*
X127143701Y-96929291D01*
X127136771Y-96931771D01*
X127129632Y-96933559D01*
X127122351Y-96934639D01*
X127115000Y-96935000D01*
X126965000Y-96935000D01*
X126957649Y-96934639D01*
X126950368Y-96933559D01*
X126943229Y-96931771D01*
X126936299Y-96929291D01*
X126929645Y-96926144D01*
X126923332Y-96922360D01*
X126917421Y-96917976D01*
X126911967Y-96913033D01*
X126907024Y-96907579D01*
X126902640Y-96901668D01*
X126898856Y-96895355D01*
X126895709Y-96888701D01*
X126893229Y-96881771D01*
X126891441Y-96874632D01*
X126890361Y-96867351D01*
X126890000Y-96860000D01*
X126890000Y-95560000D01*
X126890361Y-95552649D01*
X126891441Y-95545368D01*
X126893229Y-95538229D01*
X126895709Y-95531299D01*
X126898856Y-95524645D01*
X126902640Y-95518332D01*
X126907024Y-95512421D01*
X126911967Y-95506967D01*
X126917421Y-95502024D01*
X126923332Y-95497640D01*
X126929645Y-95493856D01*
X126936299Y-95490709D01*
X126943229Y-95488229D01*
X126950368Y-95486441D01*
X126957649Y-95485361D01*
X126965000Y-95485000D01*
X127115000Y-95485000D01*
X127122351Y-95485361D01*
X127122351Y-95485361D01*
G37*
D16*
X127040000Y-96210000D03*
D14*
G36*
X126622351Y-95485361D02*
G01*
X126629632Y-95486441D01*
X126636771Y-95488229D01*
X126643701Y-95490709D01*
X126650355Y-95493856D01*
X126656668Y-95497640D01*
X126662579Y-95502024D01*
X126668033Y-95506967D01*
X126672976Y-95512421D01*
X126677360Y-95518332D01*
X126681144Y-95524645D01*
X126684291Y-95531299D01*
X126686771Y-95538229D01*
X126688559Y-95545368D01*
X126689639Y-95552649D01*
X126690000Y-95560000D01*
X126690000Y-96860000D01*
X126689639Y-96867351D01*
X126688559Y-96874632D01*
X126686771Y-96881771D01*
X126684291Y-96888701D01*
X126681144Y-96895355D01*
X126677360Y-96901668D01*
X126672976Y-96907579D01*
X126668033Y-96913033D01*
X126662579Y-96917976D01*
X126656668Y-96922360D01*
X126650355Y-96926144D01*
X126643701Y-96929291D01*
X126636771Y-96931771D01*
X126629632Y-96933559D01*
X126622351Y-96934639D01*
X126615000Y-96935000D01*
X126465000Y-96935000D01*
X126457649Y-96934639D01*
X126450368Y-96933559D01*
X126443229Y-96931771D01*
X126436299Y-96929291D01*
X126429645Y-96926144D01*
X126423332Y-96922360D01*
X126417421Y-96917976D01*
X126411967Y-96913033D01*
X126407024Y-96907579D01*
X126402640Y-96901668D01*
X126398856Y-96895355D01*
X126395709Y-96888701D01*
X126393229Y-96881771D01*
X126391441Y-96874632D01*
X126390361Y-96867351D01*
X126390000Y-96860000D01*
X126390000Y-95560000D01*
X126390361Y-95552649D01*
X126391441Y-95545368D01*
X126393229Y-95538229D01*
X126395709Y-95531299D01*
X126398856Y-95524645D01*
X126402640Y-95518332D01*
X126407024Y-95512421D01*
X126411967Y-95506967D01*
X126417421Y-95502024D01*
X126423332Y-95497640D01*
X126429645Y-95493856D01*
X126436299Y-95490709D01*
X126443229Y-95488229D01*
X126450368Y-95486441D01*
X126457649Y-95485361D01*
X126465000Y-95485000D01*
X126615000Y-95485000D01*
X126622351Y-95485361D01*
X126622351Y-95485361D01*
G37*
D16*
X126540000Y-96210000D03*
D14*
G36*
X126122351Y-95485361D02*
G01*
X126129632Y-95486441D01*
X126136771Y-95488229D01*
X126143701Y-95490709D01*
X126150355Y-95493856D01*
X126156668Y-95497640D01*
X126162579Y-95502024D01*
X126168033Y-95506967D01*
X126172976Y-95512421D01*
X126177360Y-95518332D01*
X126181144Y-95524645D01*
X126184291Y-95531299D01*
X126186771Y-95538229D01*
X126188559Y-95545368D01*
X126189639Y-95552649D01*
X126190000Y-95560000D01*
X126190000Y-96860000D01*
X126189639Y-96867351D01*
X126188559Y-96874632D01*
X126186771Y-96881771D01*
X126184291Y-96888701D01*
X126181144Y-96895355D01*
X126177360Y-96901668D01*
X126172976Y-96907579D01*
X126168033Y-96913033D01*
X126162579Y-96917976D01*
X126156668Y-96922360D01*
X126150355Y-96926144D01*
X126143701Y-96929291D01*
X126136771Y-96931771D01*
X126129632Y-96933559D01*
X126122351Y-96934639D01*
X126115000Y-96935000D01*
X125965000Y-96935000D01*
X125957649Y-96934639D01*
X125950368Y-96933559D01*
X125943229Y-96931771D01*
X125936299Y-96929291D01*
X125929645Y-96926144D01*
X125923332Y-96922360D01*
X125917421Y-96917976D01*
X125911967Y-96913033D01*
X125907024Y-96907579D01*
X125902640Y-96901668D01*
X125898856Y-96895355D01*
X125895709Y-96888701D01*
X125893229Y-96881771D01*
X125891441Y-96874632D01*
X125890361Y-96867351D01*
X125890000Y-96860000D01*
X125890000Y-95560000D01*
X125890361Y-95552649D01*
X125891441Y-95545368D01*
X125893229Y-95538229D01*
X125895709Y-95531299D01*
X125898856Y-95524645D01*
X125902640Y-95518332D01*
X125907024Y-95512421D01*
X125911967Y-95506967D01*
X125917421Y-95502024D01*
X125923332Y-95497640D01*
X125929645Y-95493856D01*
X125936299Y-95490709D01*
X125943229Y-95488229D01*
X125950368Y-95486441D01*
X125957649Y-95485361D01*
X125965000Y-95485000D01*
X126115000Y-95485000D01*
X126122351Y-95485361D01*
X126122351Y-95485361D01*
G37*
D16*
X126040000Y-96210000D03*
D14*
G36*
X125622351Y-95485361D02*
G01*
X125629632Y-95486441D01*
X125636771Y-95488229D01*
X125643701Y-95490709D01*
X125650355Y-95493856D01*
X125656668Y-95497640D01*
X125662579Y-95502024D01*
X125668033Y-95506967D01*
X125672976Y-95512421D01*
X125677360Y-95518332D01*
X125681144Y-95524645D01*
X125684291Y-95531299D01*
X125686771Y-95538229D01*
X125688559Y-95545368D01*
X125689639Y-95552649D01*
X125690000Y-95560000D01*
X125690000Y-96860000D01*
X125689639Y-96867351D01*
X125688559Y-96874632D01*
X125686771Y-96881771D01*
X125684291Y-96888701D01*
X125681144Y-96895355D01*
X125677360Y-96901668D01*
X125672976Y-96907579D01*
X125668033Y-96913033D01*
X125662579Y-96917976D01*
X125656668Y-96922360D01*
X125650355Y-96926144D01*
X125643701Y-96929291D01*
X125636771Y-96931771D01*
X125629632Y-96933559D01*
X125622351Y-96934639D01*
X125615000Y-96935000D01*
X125465000Y-96935000D01*
X125457649Y-96934639D01*
X125450368Y-96933559D01*
X125443229Y-96931771D01*
X125436299Y-96929291D01*
X125429645Y-96926144D01*
X125423332Y-96922360D01*
X125417421Y-96917976D01*
X125411967Y-96913033D01*
X125407024Y-96907579D01*
X125402640Y-96901668D01*
X125398856Y-96895355D01*
X125395709Y-96888701D01*
X125393229Y-96881771D01*
X125391441Y-96874632D01*
X125390361Y-96867351D01*
X125390000Y-96860000D01*
X125390000Y-95560000D01*
X125390361Y-95552649D01*
X125391441Y-95545368D01*
X125393229Y-95538229D01*
X125395709Y-95531299D01*
X125398856Y-95524645D01*
X125402640Y-95518332D01*
X125407024Y-95512421D01*
X125411967Y-95506967D01*
X125417421Y-95502024D01*
X125423332Y-95497640D01*
X125429645Y-95493856D01*
X125436299Y-95490709D01*
X125443229Y-95488229D01*
X125450368Y-95486441D01*
X125457649Y-95485361D01*
X125465000Y-95485000D01*
X125615000Y-95485000D01*
X125622351Y-95485361D01*
X125622351Y-95485361D01*
G37*
D16*
X125540000Y-96210000D03*
D14*
G36*
X125122351Y-95485361D02*
G01*
X125129632Y-95486441D01*
X125136771Y-95488229D01*
X125143701Y-95490709D01*
X125150355Y-95493856D01*
X125156668Y-95497640D01*
X125162579Y-95502024D01*
X125168033Y-95506967D01*
X125172976Y-95512421D01*
X125177360Y-95518332D01*
X125181144Y-95524645D01*
X125184291Y-95531299D01*
X125186771Y-95538229D01*
X125188559Y-95545368D01*
X125189639Y-95552649D01*
X125190000Y-95560000D01*
X125190000Y-96860000D01*
X125189639Y-96867351D01*
X125188559Y-96874632D01*
X125186771Y-96881771D01*
X125184291Y-96888701D01*
X125181144Y-96895355D01*
X125177360Y-96901668D01*
X125172976Y-96907579D01*
X125168033Y-96913033D01*
X125162579Y-96917976D01*
X125156668Y-96922360D01*
X125150355Y-96926144D01*
X125143701Y-96929291D01*
X125136771Y-96931771D01*
X125129632Y-96933559D01*
X125122351Y-96934639D01*
X125115000Y-96935000D01*
X124965000Y-96935000D01*
X124957649Y-96934639D01*
X124950368Y-96933559D01*
X124943229Y-96931771D01*
X124936299Y-96929291D01*
X124929645Y-96926144D01*
X124923332Y-96922360D01*
X124917421Y-96917976D01*
X124911967Y-96913033D01*
X124907024Y-96907579D01*
X124902640Y-96901668D01*
X124898856Y-96895355D01*
X124895709Y-96888701D01*
X124893229Y-96881771D01*
X124891441Y-96874632D01*
X124890361Y-96867351D01*
X124890000Y-96860000D01*
X124890000Y-95560000D01*
X124890361Y-95552649D01*
X124891441Y-95545368D01*
X124893229Y-95538229D01*
X124895709Y-95531299D01*
X124898856Y-95524645D01*
X124902640Y-95518332D01*
X124907024Y-95512421D01*
X124911967Y-95506967D01*
X124917421Y-95502024D01*
X124923332Y-95497640D01*
X124929645Y-95493856D01*
X124936299Y-95490709D01*
X124943229Y-95488229D01*
X124950368Y-95486441D01*
X124957649Y-95485361D01*
X124965000Y-95485000D01*
X125115000Y-95485000D01*
X125122351Y-95485361D01*
X125122351Y-95485361D01*
G37*
D16*
X125040000Y-96210000D03*
D14*
G36*
X124622351Y-95485361D02*
G01*
X124629632Y-95486441D01*
X124636771Y-95488229D01*
X124643701Y-95490709D01*
X124650355Y-95493856D01*
X124656668Y-95497640D01*
X124662579Y-95502024D01*
X124668033Y-95506967D01*
X124672976Y-95512421D01*
X124677360Y-95518332D01*
X124681144Y-95524645D01*
X124684291Y-95531299D01*
X124686771Y-95538229D01*
X124688559Y-95545368D01*
X124689639Y-95552649D01*
X124690000Y-95560000D01*
X124690000Y-96860000D01*
X124689639Y-96867351D01*
X124688559Y-96874632D01*
X124686771Y-96881771D01*
X124684291Y-96888701D01*
X124681144Y-96895355D01*
X124677360Y-96901668D01*
X124672976Y-96907579D01*
X124668033Y-96913033D01*
X124662579Y-96917976D01*
X124656668Y-96922360D01*
X124650355Y-96926144D01*
X124643701Y-96929291D01*
X124636771Y-96931771D01*
X124629632Y-96933559D01*
X124622351Y-96934639D01*
X124615000Y-96935000D01*
X124465000Y-96935000D01*
X124457649Y-96934639D01*
X124450368Y-96933559D01*
X124443229Y-96931771D01*
X124436299Y-96929291D01*
X124429645Y-96926144D01*
X124423332Y-96922360D01*
X124417421Y-96917976D01*
X124411967Y-96913033D01*
X124407024Y-96907579D01*
X124402640Y-96901668D01*
X124398856Y-96895355D01*
X124395709Y-96888701D01*
X124393229Y-96881771D01*
X124391441Y-96874632D01*
X124390361Y-96867351D01*
X124390000Y-96860000D01*
X124390000Y-95560000D01*
X124390361Y-95552649D01*
X124391441Y-95545368D01*
X124393229Y-95538229D01*
X124395709Y-95531299D01*
X124398856Y-95524645D01*
X124402640Y-95518332D01*
X124407024Y-95512421D01*
X124411967Y-95506967D01*
X124417421Y-95502024D01*
X124423332Y-95497640D01*
X124429645Y-95493856D01*
X124436299Y-95490709D01*
X124443229Y-95488229D01*
X124450368Y-95486441D01*
X124457649Y-95485361D01*
X124465000Y-95485000D01*
X124615000Y-95485000D01*
X124622351Y-95485361D01*
X124622351Y-95485361D01*
G37*
D16*
X124540000Y-96210000D03*
D14*
G36*
X124122351Y-95485361D02*
G01*
X124129632Y-95486441D01*
X124136771Y-95488229D01*
X124143701Y-95490709D01*
X124150355Y-95493856D01*
X124156668Y-95497640D01*
X124162579Y-95502024D01*
X124168033Y-95506967D01*
X124172976Y-95512421D01*
X124177360Y-95518332D01*
X124181144Y-95524645D01*
X124184291Y-95531299D01*
X124186771Y-95538229D01*
X124188559Y-95545368D01*
X124189639Y-95552649D01*
X124190000Y-95560000D01*
X124190000Y-96860000D01*
X124189639Y-96867351D01*
X124188559Y-96874632D01*
X124186771Y-96881771D01*
X124184291Y-96888701D01*
X124181144Y-96895355D01*
X124177360Y-96901668D01*
X124172976Y-96907579D01*
X124168033Y-96913033D01*
X124162579Y-96917976D01*
X124156668Y-96922360D01*
X124150355Y-96926144D01*
X124143701Y-96929291D01*
X124136771Y-96931771D01*
X124129632Y-96933559D01*
X124122351Y-96934639D01*
X124115000Y-96935000D01*
X123965000Y-96935000D01*
X123957649Y-96934639D01*
X123950368Y-96933559D01*
X123943229Y-96931771D01*
X123936299Y-96929291D01*
X123929645Y-96926144D01*
X123923332Y-96922360D01*
X123917421Y-96917976D01*
X123911967Y-96913033D01*
X123907024Y-96907579D01*
X123902640Y-96901668D01*
X123898856Y-96895355D01*
X123895709Y-96888701D01*
X123893229Y-96881771D01*
X123891441Y-96874632D01*
X123890361Y-96867351D01*
X123890000Y-96860000D01*
X123890000Y-95560000D01*
X123890361Y-95552649D01*
X123891441Y-95545368D01*
X123893229Y-95538229D01*
X123895709Y-95531299D01*
X123898856Y-95524645D01*
X123902640Y-95518332D01*
X123907024Y-95512421D01*
X123911967Y-95506967D01*
X123917421Y-95502024D01*
X123923332Y-95497640D01*
X123929645Y-95493856D01*
X123936299Y-95490709D01*
X123943229Y-95488229D01*
X123950368Y-95486441D01*
X123957649Y-95485361D01*
X123965000Y-95485000D01*
X124115000Y-95485000D01*
X124122351Y-95485361D01*
X124122351Y-95485361D01*
G37*
D16*
X124040000Y-96210000D03*
D14*
G36*
X121235779Y-93586144D02*
G01*
X121258834Y-93589563D01*
X121281443Y-93595227D01*
X121303387Y-93603079D01*
X121324457Y-93613044D01*
X121344448Y-93625026D01*
X121363168Y-93638910D01*
X121380438Y-93654562D01*
X121396090Y-93671832D01*
X121409974Y-93690552D01*
X121421956Y-93710543D01*
X121431921Y-93731613D01*
X121439773Y-93753557D01*
X121445437Y-93776166D01*
X121448856Y-93799221D01*
X121450000Y-93822500D01*
X121450000Y-94297500D01*
X121448856Y-94320779D01*
X121445437Y-94343834D01*
X121439773Y-94366443D01*
X121431921Y-94388387D01*
X121421956Y-94409457D01*
X121409974Y-94429448D01*
X121396090Y-94448168D01*
X121380438Y-94465438D01*
X121363168Y-94481090D01*
X121344448Y-94494974D01*
X121324457Y-94506956D01*
X121303387Y-94516921D01*
X121281443Y-94524773D01*
X121258834Y-94530437D01*
X121235779Y-94533856D01*
X121212500Y-94535000D01*
X120637500Y-94535000D01*
X120614221Y-94533856D01*
X120591166Y-94530437D01*
X120568557Y-94524773D01*
X120546613Y-94516921D01*
X120525543Y-94506956D01*
X120505552Y-94494974D01*
X120486832Y-94481090D01*
X120469562Y-94465438D01*
X120453910Y-94448168D01*
X120440026Y-94429448D01*
X120428044Y-94409457D01*
X120418079Y-94388387D01*
X120410227Y-94366443D01*
X120404563Y-94343834D01*
X120401144Y-94320779D01*
X120400000Y-94297500D01*
X120400000Y-93822500D01*
X120401144Y-93799221D01*
X120404563Y-93776166D01*
X120410227Y-93753557D01*
X120418079Y-93731613D01*
X120428044Y-93710543D01*
X120440026Y-93690552D01*
X120453910Y-93671832D01*
X120469562Y-93654562D01*
X120486832Y-93638910D01*
X120505552Y-93625026D01*
X120525543Y-93613044D01*
X120546613Y-93603079D01*
X120568557Y-93595227D01*
X120591166Y-93589563D01*
X120614221Y-93586144D01*
X120637500Y-93585000D01*
X121212500Y-93585000D01*
X121235779Y-93586144D01*
X121235779Y-93586144D01*
G37*
D15*
X120925000Y-94060000D03*
D14*
G36*
X122985779Y-93586144D02*
G01*
X123008834Y-93589563D01*
X123031443Y-93595227D01*
X123053387Y-93603079D01*
X123074457Y-93613044D01*
X123094448Y-93625026D01*
X123113168Y-93638910D01*
X123130438Y-93654562D01*
X123146090Y-93671832D01*
X123159974Y-93690552D01*
X123171956Y-93710543D01*
X123181921Y-93731613D01*
X123189773Y-93753557D01*
X123195437Y-93776166D01*
X123198856Y-93799221D01*
X123200000Y-93822500D01*
X123200000Y-94297500D01*
X123198856Y-94320779D01*
X123195437Y-94343834D01*
X123189773Y-94366443D01*
X123181921Y-94388387D01*
X123171956Y-94409457D01*
X123159974Y-94429448D01*
X123146090Y-94448168D01*
X123130438Y-94465438D01*
X123113168Y-94481090D01*
X123094448Y-94494974D01*
X123074457Y-94506956D01*
X123053387Y-94516921D01*
X123031443Y-94524773D01*
X123008834Y-94530437D01*
X122985779Y-94533856D01*
X122962500Y-94535000D01*
X122387500Y-94535000D01*
X122364221Y-94533856D01*
X122341166Y-94530437D01*
X122318557Y-94524773D01*
X122296613Y-94516921D01*
X122275543Y-94506956D01*
X122255552Y-94494974D01*
X122236832Y-94481090D01*
X122219562Y-94465438D01*
X122203910Y-94448168D01*
X122190026Y-94429448D01*
X122178044Y-94409457D01*
X122168079Y-94388387D01*
X122160227Y-94366443D01*
X122154563Y-94343834D01*
X122151144Y-94320779D01*
X122150000Y-94297500D01*
X122150000Y-93822500D01*
X122151144Y-93799221D01*
X122154563Y-93776166D01*
X122160227Y-93753557D01*
X122168079Y-93731613D01*
X122178044Y-93710543D01*
X122190026Y-93690552D01*
X122203910Y-93671832D01*
X122219562Y-93654562D01*
X122236832Y-93638910D01*
X122255552Y-93625026D01*
X122275543Y-93613044D01*
X122296613Y-93603079D01*
X122318557Y-93595227D01*
X122341166Y-93589563D01*
X122364221Y-93586144D01*
X122387500Y-93585000D01*
X122962500Y-93585000D01*
X122985779Y-93586144D01*
X122985779Y-93586144D01*
G37*
D15*
X122675000Y-94060000D03*
D14*
G36*
X140149505Y-101726204D02*
G01*
X140173773Y-101729804D01*
X140197572Y-101735765D01*
X140220671Y-101744030D01*
X140242850Y-101754520D01*
X140263893Y-101767132D01*
X140283599Y-101781747D01*
X140301777Y-101798223D01*
X140318253Y-101816401D01*
X140332868Y-101836107D01*
X140345480Y-101857150D01*
X140355970Y-101879329D01*
X140364235Y-101902428D01*
X140370196Y-101926227D01*
X140373796Y-101950495D01*
X140375000Y-101974999D01*
X140375000Y-103000001D01*
X140373796Y-103024505D01*
X140370196Y-103048773D01*
X140364235Y-103072572D01*
X140355970Y-103095671D01*
X140345480Y-103117850D01*
X140332868Y-103138893D01*
X140318253Y-103158599D01*
X140301777Y-103176777D01*
X140283599Y-103193253D01*
X140263893Y-103207868D01*
X140242850Y-103220480D01*
X140220671Y-103230970D01*
X140197572Y-103239235D01*
X140173773Y-103245196D01*
X140149505Y-103248796D01*
X140125001Y-103250000D01*
X137274999Y-103250000D01*
X137250495Y-103248796D01*
X137226227Y-103245196D01*
X137202428Y-103239235D01*
X137179329Y-103230970D01*
X137157150Y-103220480D01*
X137136107Y-103207868D01*
X137116401Y-103193253D01*
X137098223Y-103176777D01*
X137081747Y-103158599D01*
X137067132Y-103138893D01*
X137054520Y-103117850D01*
X137044030Y-103095671D01*
X137035765Y-103072572D01*
X137029804Y-103048773D01*
X137026204Y-103024505D01*
X137025000Y-103000001D01*
X137025000Y-101974999D01*
X137026204Y-101950495D01*
X137029804Y-101926227D01*
X137035765Y-101902428D01*
X137044030Y-101879329D01*
X137054520Y-101857150D01*
X137067132Y-101836107D01*
X137081747Y-101816401D01*
X137098223Y-101798223D01*
X137116401Y-101781747D01*
X137136107Y-101767132D01*
X137157150Y-101754520D01*
X137179329Y-101744030D01*
X137202428Y-101735765D01*
X137226227Y-101729804D01*
X137250495Y-101726204D01*
X137274999Y-101725000D01*
X140125001Y-101725000D01*
X140149505Y-101726204D01*
X140149505Y-101726204D01*
G37*
D17*
X138700000Y-102487500D03*
D14*
G36*
X140149505Y-95751204D02*
G01*
X140173773Y-95754804D01*
X140197572Y-95760765D01*
X140220671Y-95769030D01*
X140242850Y-95779520D01*
X140263893Y-95792132D01*
X140283599Y-95806747D01*
X140301777Y-95823223D01*
X140318253Y-95841401D01*
X140332868Y-95861107D01*
X140345480Y-95882150D01*
X140355970Y-95904329D01*
X140364235Y-95927428D01*
X140370196Y-95951227D01*
X140373796Y-95975495D01*
X140375000Y-95999999D01*
X140375000Y-97025001D01*
X140373796Y-97049505D01*
X140370196Y-97073773D01*
X140364235Y-97097572D01*
X140355970Y-97120671D01*
X140345480Y-97142850D01*
X140332868Y-97163893D01*
X140318253Y-97183599D01*
X140301777Y-97201777D01*
X140283599Y-97218253D01*
X140263893Y-97232868D01*
X140242850Y-97245480D01*
X140220671Y-97255970D01*
X140197572Y-97264235D01*
X140173773Y-97270196D01*
X140149505Y-97273796D01*
X140125001Y-97275000D01*
X137274999Y-97275000D01*
X137250495Y-97273796D01*
X137226227Y-97270196D01*
X137202428Y-97264235D01*
X137179329Y-97255970D01*
X137157150Y-97245480D01*
X137136107Y-97232868D01*
X137116401Y-97218253D01*
X137098223Y-97201777D01*
X137081747Y-97183599D01*
X137067132Y-97163893D01*
X137054520Y-97142850D01*
X137044030Y-97120671D01*
X137035765Y-97097572D01*
X137029804Y-97073773D01*
X137026204Y-97049505D01*
X137025000Y-97025001D01*
X137025000Y-95999999D01*
X137026204Y-95975495D01*
X137029804Y-95951227D01*
X137035765Y-95927428D01*
X137044030Y-95904329D01*
X137054520Y-95882150D01*
X137067132Y-95861107D01*
X137081747Y-95841401D01*
X137098223Y-95823223D01*
X137116401Y-95806747D01*
X137136107Y-95792132D01*
X137157150Y-95779520D01*
X137179329Y-95769030D01*
X137202428Y-95760765D01*
X137226227Y-95754804D01*
X137250495Y-95751204D01*
X137274999Y-95750000D01*
X140125001Y-95750000D01*
X140149505Y-95751204D01*
X140149505Y-95751204D01*
G37*
D17*
X138700000Y-96512500D03*
D14*
G36*
X133735779Y-93626144D02*
G01*
X133758834Y-93629563D01*
X133781443Y-93635227D01*
X133803387Y-93643079D01*
X133824457Y-93653044D01*
X133844448Y-93665026D01*
X133863168Y-93678910D01*
X133880438Y-93694562D01*
X133896090Y-93711832D01*
X133909974Y-93730552D01*
X133921956Y-93750543D01*
X133931921Y-93771613D01*
X133939773Y-93793557D01*
X133945437Y-93816166D01*
X133948856Y-93839221D01*
X133950000Y-93862500D01*
X133950000Y-94337500D01*
X133948856Y-94360779D01*
X133945437Y-94383834D01*
X133939773Y-94406443D01*
X133931921Y-94428387D01*
X133921956Y-94449457D01*
X133909974Y-94469448D01*
X133896090Y-94488168D01*
X133880438Y-94505438D01*
X133863168Y-94521090D01*
X133844448Y-94534974D01*
X133824457Y-94546956D01*
X133803387Y-94556921D01*
X133781443Y-94564773D01*
X133758834Y-94570437D01*
X133735779Y-94573856D01*
X133712500Y-94575000D01*
X133137500Y-94575000D01*
X133114221Y-94573856D01*
X133091166Y-94570437D01*
X133068557Y-94564773D01*
X133046613Y-94556921D01*
X133025543Y-94546956D01*
X133005552Y-94534974D01*
X132986832Y-94521090D01*
X132969562Y-94505438D01*
X132953910Y-94488168D01*
X132940026Y-94469448D01*
X132928044Y-94449457D01*
X132918079Y-94428387D01*
X132910227Y-94406443D01*
X132904563Y-94383834D01*
X132901144Y-94360779D01*
X132900000Y-94337500D01*
X132900000Y-93862500D01*
X132901144Y-93839221D01*
X132904563Y-93816166D01*
X132910227Y-93793557D01*
X132918079Y-93771613D01*
X132928044Y-93750543D01*
X132940026Y-93730552D01*
X132953910Y-93711832D01*
X132969562Y-93694562D01*
X132986832Y-93678910D01*
X133005552Y-93665026D01*
X133025543Y-93653044D01*
X133046613Y-93643079D01*
X133068557Y-93635227D01*
X133091166Y-93629563D01*
X133114221Y-93626144D01*
X133137500Y-93625000D01*
X133712500Y-93625000D01*
X133735779Y-93626144D01*
X133735779Y-93626144D01*
G37*
D15*
X133425000Y-94100000D03*
D14*
G36*
X135485779Y-93626144D02*
G01*
X135508834Y-93629563D01*
X135531443Y-93635227D01*
X135553387Y-93643079D01*
X135574457Y-93653044D01*
X135594448Y-93665026D01*
X135613168Y-93678910D01*
X135630438Y-93694562D01*
X135646090Y-93711832D01*
X135659974Y-93730552D01*
X135671956Y-93750543D01*
X135681921Y-93771613D01*
X135689773Y-93793557D01*
X135695437Y-93816166D01*
X135698856Y-93839221D01*
X135700000Y-93862500D01*
X135700000Y-94337500D01*
X135698856Y-94360779D01*
X135695437Y-94383834D01*
X135689773Y-94406443D01*
X135681921Y-94428387D01*
X135671956Y-94449457D01*
X135659974Y-94469448D01*
X135646090Y-94488168D01*
X135630438Y-94505438D01*
X135613168Y-94521090D01*
X135594448Y-94534974D01*
X135574457Y-94546956D01*
X135553387Y-94556921D01*
X135531443Y-94564773D01*
X135508834Y-94570437D01*
X135485779Y-94573856D01*
X135462500Y-94575000D01*
X134887500Y-94575000D01*
X134864221Y-94573856D01*
X134841166Y-94570437D01*
X134818557Y-94564773D01*
X134796613Y-94556921D01*
X134775543Y-94546956D01*
X134755552Y-94534974D01*
X134736832Y-94521090D01*
X134719562Y-94505438D01*
X134703910Y-94488168D01*
X134690026Y-94469448D01*
X134678044Y-94449457D01*
X134668079Y-94428387D01*
X134660227Y-94406443D01*
X134654563Y-94383834D01*
X134651144Y-94360779D01*
X134650000Y-94337500D01*
X134650000Y-93862500D01*
X134651144Y-93839221D01*
X134654563Y-93816166D01*
X134660227Y-93793557D01*
X134668079Y-93771613D01*
X134678044Y-93750543D01*
X134690026Y-93730552D01*
X134703910Y-93711832D01*
X134719562Y-93694562D01*
X134736832Y-93678910D01*
X134755552Y-93665026D01*
X134775543Y-93653044D01*
X134796613Y-93643079D01*
X134818557Y-93635227D01*
X134841166Y-93629563D01*
X134864221Y-93626144D01*
X134887500Y-93625000D01*
X135462500Y-93625000D01*
X135485779Y-93626144D01*
X135485779Y-93626144D01*
G37*
D15*
X135175000Y-94100000D03*
D14*
G36*
X140149505Y-90456204D02*
G01*
X140173773Y-90459804D01*
X140197572Y-90465765D01*
X140220671Y-90474030D01*
X140242850Y-90484520D01*
X140263893Y-90497132D01*
X140283599Y-90511747D01*
X140301777Y-90528223D01*
X140318253Y-90546401D01*
X140332868Y-90566107D01*
X140345480Y-90587150D01*
X140355970Y-90609329D01*
X140364235Y-90632428D01*
X140370196Y-90656227D01*
X140373796Y-90680495D01*
X140375000Y-90704999D01*
X140375000Y-91730001D01*
X140373796Y-91754505D01*
X140370196Y-91778773D01*
X140364235Y-91802572D01*
X140355970Y-91825671D01*
X140345480Y-91847850D01*
X140332868Y-91868893D01*
X140318253Y-91888599D01*
X140301777Y-91906777D01*
X140283599Y-91923253D01*
X140263893Y-91937868D01*
X140242850Y-91950480D01*
X140220671Y-91960970D01*
X140197572Y-91969235D01*
X140173773Y-91975196D01*
X140149505Y-91978796D01*
X140125001Y-91980000D01*
X137274999Y-91980000D01*
X137250495Y-91978796D01*
X137226227Y-91975196D01*
X137202428Y-91969235D01*
X137179329Y-91960970D01*
X137157150Y-91950480D01*
X137136107Y-91937868D01*
X137116401Y-91923253D01*
X137098223Y-91906777D01*
X137081747Y-91888599D01*
X137067132Y-91868893D01*
X137054520Y-91847850D01*
X137044030Y-91825671D01*
X137035765Y-91802572D01*
X137029804Y-91778773D01*
X137026204Y-91754505D01*
X137025000Y-91730001D01*
X137025000Y-90704999D01*
X137026204Y-90680495D01*
X137029804Y-90656227D01*
X137035765Y-90632428D01*
X137044030Y-90609329D01*
X137054520Y-90587150D01*
X137067132Y-90566107D01*
X137081747Y-90546401D01*
X137098223Y-90528223D01*
X137116401Y-90511747D01*
X137136107Y-90497132D01*
X137157150Y-90484520D01*
X137179329Y-90474030D01*
X137202428Y-90465765D01*
X137226227Y-90459804D01*
X137250495Y-90456204D01*
X137274999Y-90455000D01*
X140125001Y-90455000D01*
X140149505Y-90456204D01*
X140149505Y-90456204D01*
G37*
D17*
X138700000Y-91217500D03*
D14*
G36*
X140149505Y-84481204D02*
G01*
X140173773Y-84484804D01*
X140197572Y-84490765D01*
X140220671Y-84499030D01*
X140242850Y-84509520D01*
X140263893Y-84522132D01*
X140283599Y-84536747D01*
X140301777Y-84553223D01*
X140318253Y-84571401D01*
X140332868Y-84591107D01*
X140345480Y-84612150D01*
X140355970Y-84634329D01*
X140364235Y-84657428D01*
X140370196Y-84681227D01*
X140373796Y-84705495D01*
X140375000Y-84729999D01*
X140375000Y-85755001D01*
X140373796Y-85779505D01*
X140370196Y-85803773D01*
X140364235Y-85827572D01*
X140355970Y-85850671D01*
X140345480Y-85872850D01*
X140332868Y-85893893D01*
X140318253Y-85913599D01*
X140301777Y-85931777D01*
X140283599Y-85948253D01*
X140263893Y-85962868D01*
X140242850Y-85975480D01*
X140220671Y-85985970D01*
X140197572Y-85994235D01*
X140173773Y-86000196D01*
X140149505Y-86003796D01*
X140125001Y-86005000D01*
X137274999Y-86005000D01*
X137250495Y-86003796D01*
X137226227Y-86000196D01*
X137202428Y-85994235D01*
X137179329Y-85985970D01*
X137157150Y-85975480D01*
X137136107Y-85962868D01*
X137116401Y-85948253D01*
X137098223Y-85931777D01*
X137081747Y-85913599D01*
X137067132Y-85893893D01*
X137054520Y-85872850D01*
X137044030Y-85850671D01*
X137035765Y-85827572D01*
X137029804Y-85803773D01*
X137026204Y-85779505D01*
X137025000Y-85755001D01*
X137025000Y-84729999D01*
X137026204Y-84705495D01*
X137029804Y-84681227D01*
X137035765Y-84657428D01*
X137044030Y-84634329D01*
X137054520Y-84612150D01*
X137067132Y-84591107D01*
X137081747Y-84571401D01*
X137098223Y-84553223D01*
X137116401Y-84536747D01*
X137136107Y-84522132D01*
X137157150Y-84509520D01*
X137179329Y-84499030D01*
X137202428Y-84490765D01*
X137226227Y-84484804D01*
X137250495Y-84481204D01*
X137274999Y-84480000D01*
X140125001Y-84480000D01*
X140149505Y-84481204D01*
X140149505Y-84481204D01*
G37*
D17*
X138700000Y-85242500D03*
D14*
G36*
X126435779Y-98226144D02*
G01*
X126458834Y-98229563D01*
X126481443Y-98235227D01*
X126503387Y-98243079D01*
X126524457Y-98253044D01*
X126544448Y-98265026D01*
X126563168Y-98278910D01*
X126580438Y-98294562D01*
X126596090Y-98311832D01*
X126609974Y-98330552D01*
X126621956Y-98350543D01*
X126631921Y-98371613D01*
X126639773Y-98393557D01*
X126645437Y-98416166D01*
X126648856Y-98439221D01*
X126650000Y-98462500D01*
X126650000Y-98937500D01*
X126648856Y-98960779D01*
X126645437Y-98983834D01*
X126639773Y-99006443D01*
X126631921Y-99028387D01*
X126621956Y-99049457D01*
X126609974Y-99069448D01*
X126596090Y-99088168D01*
X126580438Y-99105438D01*
X126563168Y-99121090D01*
X126544448Y-99134974D01*
X126524457Y-99146956D01*
X126503387Y-99156921D01*
X126481443Y-99164773D01*
X126458834Y-99170437D01*
X126435779Y-99173856D01*
X126412500Y-99175000D01*
X125837500Y-99175000D01*
X125814221Y-99173856D01*
X125791166Y-99170437D01*
X125768557Y-99164773D01*
X125746613Y-99156921D01*
X125725543Y-99146956D01*
X125705552Y-99134974D01*
X125686832Y-99121090D01*
X125669562Y-99105438D01*
X125653910Y-99088168D01*
X125640026Y-99069448D01*
X125628044Y-99049457D01*
X125618079Y-99028387D01*
X125610227Y-99006443D01*
X125604563Y-98983834D01*
X125601144Y-98960779D01*
X125600000Y-98937500D01*
X125600000Y-98462500D01*
X125601144Y-98439221D01*
X125604563Y-98416166D01*
X125610227Y-98393557D01*
X125618079Y-98371613D01*
X125628044Y-98350543D01*
X125640026Y-98330552D01*
X125653910Y-98311832D01*
X125669562Y-98294562D01*
X125686832Y-98278910D01*
X125705552Y-98265026D01*
X125725543Y-98253044D01*
X125746613Y-98243079D01*
X125768557Y-98235227D01*
X125791166Y-98229563D01*
X125814221Y-98226144D01*
X125837500Y-98225000D01*
X126412500Y-98225000D01*
X126435779Y-98226144D01*
X126435779Y-98226144D01*
G37*
D15*
X126125000Y-98700000D03*
D14*
G36*
X128185779Y-98226144D02*
G01*
X128208834Y-98229563D01*
X128231443Y-98235227D01*
X128253387Y-98243079D01*
X128274457Y-98253044D01*
X128294448Y-98265026D01*
X128313168Y-98278910D01*
X128330438Y-98294562D01*
X128346090Y-98311832D01*
X128359974Y-98330552D01*
X128371956Y-98350543D01*
X128381921Y-98371613D01*
X128389773Y-98393557D01*
X128395437Y-98416166D01*
X128398856Y-98439221D01*
X128400000Y-98462500D01*
X128400000Y-98937500D01*
X128398856Y-98960779D01*
X128395437Y-98983834D01*
X128389773Y-99006443D01*
X128381921Y-99028387D01*
X128371956Y-99049457D01*
X128359974Y-99069448D01*
X128346090Y-99088168D01*
X128330438Y-99105438D01*
X128313168Y-99121090D01*
X128294448Y-99134974D01*
X128274457Y-99146956D01*
X128253387Y-99156921D01*
X128231443Y-99164773D01*
X128208834Y-99170437D01*
X128185779Y-99173856D01*
X128162500Y-99175000D01*
X127587500Y-99175000D01*
X127564221Y-99173856D01*
X127541166Y-99170437D01*
X127518557Y-99164773D01*
X127496613Y-99156921D01*
X127475543Y-99146956D01*
X127455552Y-99134974D01*
X127436832Y-99121090D01*
X127419562Y-99105438D01*
X127403910Y-99088168D01*
X127390026Y-99069448D01*
X127378044Y-99049457D01*
X127368079Y-99028387D01*
X127360227Y-99006443D01*
X127354563Y-98983834D01*
X127351144Y-98960779D01*
X127350000Y-98937500D01*
X127350000Y-98462500D01*
X127351144Y-98439221D01*
X127354563Y-98416166D01*
X127360227Y-98393557D01*
X127368079Y-98371613D01*
X127378044Y-98350543D01*
X127390026Y-98330552D01*
X127403910Y-98311832D01*
X127419562Y-98294562D01*
X127436832Y-98278910D01*
X127455552Y-98265026D01*
X127475543Y-98253044D01*
X127496613Y-98243079D01*
X127518557Y-98235227D01*
X127541166Y-98229563D01*
X127564221Y-98226144D01*
X127587500Y-98225000D01*
X128162500Y-98225000D01*
X128185779Y-98226144D01*
X128185779Y-98226144D01*
G37*
D15*
X127875000Y-98700000D03*
D14*
G36*
X122879779Y-98226144D02*
G01*
X122902834Y-98229563D01*
X122925443Y-98235227D01*
X122947387Y-98243079D01*
X122968457Y-98253044D01*
X122988448Y-98265026D01*
X123007168Y-98278910D01*
X123024438Y-98294562D01*
X123040090Y-98311832D01*
X123053974Y-98330552D01*
X123065956Y-98350543D01*
X123075921Y-98371613D01*
X123083773Y-98393557D01*
X123089437Y-98416166D01*
X123092856Y-98439221D01*
X123094000Y-98462500D01*
X123094000Y-98937500D01*
X123092856Y-98960779D01*
X123089437Y-98983834D01*
X123083773Y-99006443D01*
X123075921Y-99028387D01*
X123065956Y-99049457D01*
X123053974Y-99069448D01*
X123040090Y-99088168D01*
X123024438Y-99105438D01*
X123007168Y-99121090D01*
X122988448Y-99134974D01*
X122968457Y-99146956D01*
X122947387Y-99156921D01*
X122925443Y-99164773D01*
X122902834Y-99170437D01*
X122879779Y-99173856D01*
X122856500Y-99175000D01*
X122281500Y-99175000D01*
X122258221Y-99173856D01*
X122235166Y-99170437D01*
X122212557Y-99164773D01*
X122190613Y-99156921D01*
X122169543Y-99146956D01*
X122149552Y-99134974D01*
X122130832Y-99121090D01*
X122113562Y-99105438D01*
X122097910Y-99088168D01*
X122084026Y-99069448D01*
X122072044Y-99049457D01*
X122062079Y-99028387D01*
X122054227Y-99006443D01*
X122048563Y-98983834D01*
X122045144Y-98960779D01*
X122044000Y-98937500D01*
X122044000Y-98462500D01*
X122045144Y-98439221D01*
X122048563Y-98416166D01*
X122054227Y-98393557D01*
X122062079Y-98371613D01*
X122072044Y-98350543D01*
X122084026Y-98330552D01*
X122097910Y-98311832D01*
X122113562Y-98294562D01*
X122130832Y-98278910D01*
X122149552Y-98265026D01*
X122169543Y-98253044D01*
X122190613Y-98243079D01*
X122212557Y-98235227D01*
X122235166Y-98229563D01*
X122258221Y-98226144D01*
X122281500Y-98225000D01*
X122856500Y-98225000D01*
X122879779Y-98226144D01*
X122879779Y-98226144D01*
G37*
D15*
X122569000Y-98700000D03*
D14*
G36*
X124629779Y-98226144D02*
G01*
X124652834Y-98229563D01*
X124675443Y-98235227D01*
X124697387Y-98243079D01*
X124718457Y-98253044D01*
X124738448Y-98265026D01*
X124757168Y-98278910D01*
X124774438Y-98294562D01*
X124790090Y-98311832D01*
X124803974Y-98330552D01*
X124815956Y-98350543D01*
X124825921Y-98371613D01*
X124833773Y-98393557D01*
X124839437Y-98416166D01*
X124842856Y-98439221D01*
X124844000Y-98462500D01*
X124844000Y-98937500D01*
X124842856Y-98960779D01*
X124839437Y-98983834D01*
X124833773Y-99006443D01*
X124825921Y-99028387D01*
X124815956Y-99049457D01*
X124803974Y-99069448D01*
X124790090Y-99088168D01*
X124774438Y-99105438D01*
X124757168Y-99121090D01*
X124738448Y-99134974D01*
X124718457Y-99146956D01*
X124697387Y-99156921D01*
X124675443Y-99164773D01*
X124652834Y-99170437D01*
X124629779Y-99173856D01*
X124606500Y-99175000D01*
X124031500Y-99175000D01*
X124008221Y-99173856D01*
X123985166Y-99170437D01*
X123962557Y-99164773D01*
X123940613Y-99156921D01*
X123919543Y-99146956D01*
X123899552Y-99134974D01*
X123880832Y-99121090D01*
X123863562Y-99105438D01*
X123847910Y-99088168D01*
X123834026Y-99069448D01*
X123822044Y-99049457D01*
X123812079Y-99028387D01*
X123804227Y-99006443D01*
X123798563Y-98983834D01*
X123795144Y-98960779D01*
X123794000Y-98937500D01*
X123794000Y-98462500D01*
X123795144Y-98439221D01*
X123798563Y-98416166D01*
X123804227Y-98393557D01*
X123812079Y-98371613D01*
X123822044Y-98350543D01*
X123834026Y-98330552D01*
X123847910Y-98311832D01*
X123863562Y-98294562D01*
X123880832Y-98278910D01*
X123899552Y-98265026D01*
X123919543Y-98253044D01*
X123940613Y-98243079D01*
X123962557Y-98235227D01*
X123985166Y-98229563D01*
X124008221Y-98226144D01*
X124031500Y-98225000D01*
X124606500Y-98225000D01*
X124629779Y-98226144D01*
X124629779Y-98226144D01*
G37*
D15*
X124319000Y-98700000D03*
D14*
G36*
X122879779Y-88926144D02*
G01*
X122902834Y-88929563D01*
X122925443Y-88935227D01*
X122947387Y-88943079D01*
X122968457Y-88953044D01*
X122988448Y-88965026D01*
X123007168Y-88978910D01*
X123024438Y-88994562D01*
X123040090Y-89011832D01*
X123053974Y-89030552D01*
X123065956Y-89050543D01*
X123075921Y-89071613D01*
X123083773Y-89093557D01*
X123089437Y-89116166D01*
X123092856Y-89139221D01*
X123094000Y-89162500D01*
X123094000Y-89637500D01*
X123092856Y-89660779D01*
X123089437Y-89683834D01*
X123083773Y-89706443D01*
X123075921Y-89728387D01*
X123065956Y-89749457D01*
X123053974Y-89769448D01*
X123040090Y-89788168D01*
X123024438Y-89805438D01*
X123007168Y-89821090D01*
X122988448Y-89834974D01*
X122968457Y-89846956D01*
X122947387Y-89856921D01*
X122925443Y-89864773D01*
X122902834Y-89870437D01*
X122879779Y-89873856D01*
X122856500Y-89875000D01*
X122281500Y-89875000D01*
X122258221Y-89873856D01*
X122235166Y-89870437D01*
X122212557Y-89864773D01*
X122190613Y-89856921D01*
X122169543Y-89846956D01*
X122149552Y-89834974D01*
X122130832Y-89821090D01*
X122113562Y-89805438D01*
X122097910Y-89788168D01*
X122084026Y-89769448D01*
X122072044Y-89749457D01*
X122062079Y-89728387D01*
X122054227Y-89706443D01*
X122048563Y-89683834D01*
X122045144Y-89660779D01*
X122044000Y-89637500D01*
X122044000Y-89162500D01*
X122045144Y-89139221D01*
X122048563Y-89116166D01*
X122054227Y-89093557D01*
X122062079Y-89071613D01*
X122072044Y-89050543D01*
X122084026Y-89030552D01*
X122097910Y-89011832D01*
X122113562Y-88994562D01*
X122130832Y-88978910D01*
X122149552Y-88965026D01*
X122169543Y-88953044D01*
X122190613Y-88943079D01*
X122212557Y-88935227D01*
X122235166Y-88929563D01*
X122258221Y-88926144D01*
X122281500Y-88925000D01*
X122856500Y-88925000D01*
X122879779Y-88926144D01*
X122879779Y-88926144D01*
G37*
D15*
X122569000Y-89400000D03*
D14*
G36*
X124629779Y-88926144D02*
G01*
X124652834Y-88929563D01*
X124675443Y-88935227D01*
X124697387Y-88943079D01*
X124718457Y-88953044D01*
X124738448Y-88965026D01*
X124757168Y-88978910D01*
X124774438Y-88994562D01*
X124790090Y-89011832D01*
X124803974Y-89030552D01*
X124815956Y-89050543D01*
X124825921Y-89071613D01*
X124833773Y-89093557D01*
X124839437Y-89116166D01*
X124842856Y-89139221D01*
X124844000Y-89162500D01*
X124844000Y-89637500D01*
X124842856Y-89660779D01*
X124839437Y-89683834D01*
X124833773Y-89706443D01*
X124825921Y-89728387D01*
X124815956Y-89749457D01*
X124803974Y-89769448D01*
X124790090Y-89788168D01*
X124774438Y-89805438D01*
X124757168Y-89821090D01*
X124738448Y-89834974D01*
X124718457Y-89846956D01*
X124697387Y-89856921D01*
X124675443Y-89864773D01*
X124652834Y-89870437D01*
X124629779Y-89873856D01*
X124606500Y-89875000D01*
X124031500Y-89875000D01*
X124008221Y-89873856D01*
X123985166Y-89870437D01*
X123962557Y-89864773D01*
X123940613Y-89856921D01*
X123919543Y-89846956D01*
X123899552Y-89834974D01*
X123880832Y-89821090D01*
X123863562Y-89805438D01*
X123847910Y-89788168D01*
X123834026Y-89769448D01*
X123822044Y-89749457D01*
X123812079Y-89728387D01*
X123804227Y-89706443D01*
X123798563Y-89683834D01*
X123795144Y-89660779D01*
X123794000Y-89637500D01*
X123794000Y-89162500D01*
X123795144Y-89139221D01*
X123798563Y-89116166D01*
X123804227Y-89093557D01*
X123812079Y-89071613D01*
X123822044Y-89050543D01*
X123834026Y-89030552D01*
X123847910Y-89011832D01*
X123863562Y-88994562D01*
X123880832Y-88978910D01*
X123899552Y-88965026D01*
X123919543Y-88953044D01*
X123940613Y-88943079D01*
X123962557Y-88935227D01*
X123985166Y-88929563D01*
X124008221Y-88926144D01*
X124031500Y-88925000D01*
X124606500Y-88925000D01*
X124629779Y-88926144D01*
X124629779Y-88926144D01*
G37*
D15*
X124319000Y-89400000D03*
D14*
G36*
X128185779Y-88926144D02*
G01*
X128208834Y-88929563D01*
X128231443Y-88935227D01*
X128253387Y-88943079D01*
X128274457Y-88953044D01*
X128294448Y-88965026D01*
X128313168Y-88978910D01*
X128330438Y-88994562D01*
X128346090Y-89011832D01*
X128359974Y-89030552D01*
X128371956Y-89050543D01*
X128381921Y-89071613D01*
X128389773Y-89093557D01*
X128395437Y-89116166D01*
X128398856Y-89139221D01*
X128400000Y-89162500D01*
X128400000Y-89637500D01*
X128398856Y-89660779D01*
X128395437Y-89683834D01*
X128389773Y-89706443D01*
X128381921Y-89728387D01*
X128371956Y-89749457D01*
X128359974Y-89769448D01*
X128346090Y-89788168D01*
X128330438Y-89805438D01*
X128313168Y-89821090D01*
X128294448Y-89834974D01*
X128274457Y-89846956D01*
X128253387Y-89856921D01*
X128231443Y-89864773D01*
X128208834Y-89870437D01*
X128185779Y-89873856D01*
X128162500Y-89875000D01*
X127587500Y-89875000D01*
X127564221Y-89873856D01*
X127541166Y-89870437D01*
X127518557Y-89864773D01*
X127496613Y-89856921D01*
X127475543Y-89846956D01*
X127455552Y-89834974D01*
X127436832Y-89821090D01*
X127419562Y-89805438D01*
X127403910Y-89788168D01*
X127390026Y-89769448D01*
X127378044Y-89749457D01*
X127368079Y-89728387D01*
X127360227Y-89706443D01*
X127354563Y-89683834D01*
X127351144Y-89660779D01*
X127350000Y-89637500D01*
X127350000Y-89162500D01*
X127351144Y-89139221D01*
X127354563Y-89116166D01*
X127360227Y-89093557D01*
X127368079Y-89071613D01*
X127378044Y-89050543D01*
X127390026Y-89030552D01*
X127403910Y-89011832D01*
X127419562Y-88994562D01*
X127436832Y-88978910D01*
X127455552Y-88965026D01*
X127475543Y-88953044D01*
X127496613Y-88943079D01*
X127518557Y-88935227D01*
X127541166Y-88929563D01*
X127564221Y-88926144D01*
X127587500Y-88925000D01*
X128162500Y-88925000D01*
X128185779Y-88926144D01*
X128185779Y-88926144D01*
G37*
D15*
X127875000Y-89400000D03*
D14*
G36*
X126435779Y-88926144D02*
G01*
X126458834Y-88929563D01*
X126481443Y-88935227D01*
X126503387Y-88943079D01*
X126524457Y-88953044D01*
X126544448Y-88965026D01*
X126563168Y-88978910D01*
X126580438Y-88994562D01*
X126596090Y-89011832D01*
X126609974Y-89030552D01*
X126621956Y-89050543D01*
X126631921Y-89071613D01*
X126639773Y-89093557D01*
X126645437Y-89116166D01*
X126648856Y-89139221D01*
X126650000Y-89162500D01*
X126650000Y-89637500D01*
X126648856Y-89660779D01*
X126645437Y-89683834D01*
X126639773Y-89706443D01*
X126631921Y-89728387D01*
X126621956Y-89749457D01*
X126609974Y-89769448D01*
X126596090Y-89788168D01*
X126580438Y-89805438D01*
X126563168Y-89821090D01*
X126544448Y-89834974D01*
X126524457Y-89846956D01*
X126503387Y-89856921D01*
X126481443Y-89864773D01*
X126458834Y-89870437D01*
X126435779Y-89873856D01*
X126412500Y-89875000D01*
X125837500Y-89875000D01*
X125814221Y-89873856D01*
X125791166Y-89870437D01*
X125768557Y-89864773D01*
X125746613Y-89856921D01*
X125725543Y-89846956D01*
X125705552Y-89834974D01*
X125686832Y-89821090D01*
X125669562Y-89805438D01*
X125653910Y-89788168D01*
X125640026Y-89769448D01*
X125628044Y-89749457D01*
X125618079Y-89728387D01*
X125610227Y-89706443D01*
X125604563Y-89683834D01*
X125601144Y-89660779D01*
X125600000Y-89637500D01*
X125600000Y-89162500D01*
X125601144Y-89139221D01*
X125604563Y-89116166D01*
X125610227Y-89093557D01*
X125618079Y-89071613D01*
X125628044Y-89050543D01*
X125640026Y-89030552D01*
X125653910Y-89011832D01*
X125669562Y-88994562D01*
X125686832Y-88978910D01*
X125705552Y-88965026D01*
X125725543Y-88953044D01*
X125746613Y-88943079D01*
X125768557Y-88935227D01*
X125791166Y-88929563D01*
X125814221Y-88926144D01*
X125837500Y-88925000D01*
X126412500Y-88925000D01*
X126435779Y-88926144D01*
X126435779Y-88926144D01*
G37*
D15*
X126125000Y-89400000D03*
D18*
X122174000Y-95250000D03*
X122999000Y-90869000D03*
X123079000Y-97171000D03*
D19*
X126078360Y-90569107D03*
X123444000Y-82423000D03*
X126046082Y-97677004D03*
X125603000Y-99949000D03*
D20*
X127875000Y-89549000D02*
X127875000Y-89400000D01*
D21*
X127375928Y-89899072D02*
X127875000Y-89400000D01*
X127375928Y-90174322D02*
X127375928Y-89899072D01*
X126540000Y-91010250D02*
X127375928Y-90174322D01*
X126540000Y-91910000D02*
X126540000Y-91010250D01*
D22*
X126125000Y-89400000D02*
X126125000Y-87489000D01*
X126238000Y-87376000D02*
X126125000Y-87489000D01*
X125540000Y-91910000D02*
X125540000Y-90970549D01*
X125443359Y-90081641D02*
X125625928Y-89899072D01*
X125443359Y-90873908D02*
X125443359Y-90081641D01*
X125540000Y-90970549D02*
X125443359Y-90873908D01*
X125625928Y-89899072D02*
X126125000Y-89400000D01*
X120845000Y-93980000D02*
X120925000Y-94060000D01*
X117200000Y-93980000D02*
X119380000Y-93980000D01*
X119380000Y-93980000D02*
X120845000Y-93980000D01*
X124540000Y-91910000D02*
X124040000Y-91910000D01*
X122569000Y-90439000D02*
X122569000Y-89400000D01*
X124040000Y-91910000D02*
X122999000Y-90869000D01*
X122999000Y-90869000D02*
X122569000Y-90439000D01*
X121424072Y-94559072D02*
X120925000Y-94060000D01*
X122854290Y-95989290D02*
X121424072Y-94559072D01*
X123819290Y-95989290D02*
X122854290Y-95989290D01*
X124040000Y-96210000D02*
X123819290Y-95989290D01*
X122569000Y-97681000D02*
X123079000Y-97171000D01*
X122569000Y-98700000D02*
X122569000Y-97681000D01*
X123079000Y-97171000D02*
X124040000Y-96210000D01*
X125040000Y-91910000D02*
X125040000Y-91117142D01*
X125040000Y-91117142D02*
X124319000Y-90396142D01*
X124319000Y-90396142D02*
X124319000Y-89975000D01*
X124319000Y-89975000D02*
X124319000Y-89400000D01*
X124319000Y-98125000D02*
X124319000Y-98700000D01*
X125040000Y-96210000D02*
X125040000Y-97096689D01*
X125040000Y-97096689D02*
X124319000Y-97817689D01*
X124319000Y-97817689D02*
X124319000Y-98125000D01*
X125411080Y-97986080D02*
X125625928Y-98200928D01*
X125411080Y-97372202D02*
X125411080Y-97986080D01*
X125540000Y-96210000D02*
X125540000Y-97243282D01*
X125540000Y-97243282D02*
X125411080Y-97372202D01*
X125625928Y-98200928D02*
X126125000Y-98700000D01*
X125610944Y-98700000D02*
X123091944Y-101219000D01*
X126125000Y-98700000D02*
X125610944Y-98700000D01*
D21*
X127375928Y-98200928D02*
X127875000Y-98700000D01*
X126540000Y-97365000D02*
X127375928Y-98200928D01*
X126540000Y-96210000D02*
X126540000Y-97365000D01*
X126040000Y-90607467D02*
X126078360Y-90569107D01*
X126040000Y-91910000D02*
X126040000Y-90607467D01*
D22*
X125603000Y-82311000D02*
X125594000Y-82302000D01*
X125473000Y-82423000D02*
X125594000Y-82302000D01*
X123444000Y-82423000D02*
X125473000Y-82423000D01*
D20*
X125476000Y-101490000D02*
X125416000Y-101550000D01*
X125366000Y-101600000D02*
X125416000Y-101550000D01*
X126040000Y-97592000D02*
X126238000Y-97790000D01*
D21*
X126040000Y-96210000D02*
X126040000Y-97670922D01*
X126040000Y-97670922D02*
X126046082Y-97677004D01*
D22*
X125603000Y-101216000D02*
X125594000Y-101225000D01*
X125603000Y-99949000D02*
X125603000Y-101216000D01*
X131475000Y-94100000D02*
X133425000Y-94100000D01*
X123524000Y-94060000D02*
X122675000Y-94060000D01*
X124540000Y-95076000D02*
X123524000Y-94060000D01*
X124540000Y-96210000D02*
X124540000Y-95076000D01*
X129650000Y-94100000D02*
X129725000Y-94100000D01*
X127540000Y-96210000D02*
X129650000Y-94100000D01*
X129725000Y-94095000D02*
X129725000Y-94100000D01*
X127540000Y-91910000D02*
X129725000Y-94095000D01*
X131894000Y-100398000D02*
X131894000Y-103632000D01*
X127541000Y-97536000D02*
X129032000Y-97536000D01*
X127040000Y-97035000D02*
X127541000Y-97536000D01*
X129032000Y-97536000D02*
X131894000Y-100398000D01*
X127040000Y-96210000D02*
X127040000Y-97035000D01*
D20*
X125372000Y-84836000D02*
X125416000Y-84880000D01*
D22*
X127040000Y-91085000D02*
X127701000Y-90424000D01*
X127040000Y-91910000D02*
X127040000Y-91085000D01*
X131894000Y-87786800D02*
X131894000Y-84582000D01*
X129256800Y-90424000D02*
X131894000Y-87786800D01*
X127701000Y-90424000D02*
X129256800Y-90424000D01*
D23*
G36*
X145923000Y-88772862D02*
G01*
X145923000Y-99313862D01*
X134505179Y-99301437D01*
X134488497Y-95250000D01*
X142307815Y-95250000D01*
X142336487Y-95541111D01*
X142421401Y-95821034D01*
X142559294Y-96079014D01*
X142744866Y-96305134D01*
X142970986Y-96490706D01*
X143228966Y-96628599D01*
X143508889Y-96713513D01*
X143727050Y-96735000D01*
X143872950Y-96735000D01*
X144091111Y-96713513D01*
X144371034Y-96628599D01*
X144629014Y-96490706D01*
X144855134Y-96305134D01*
X145040706Y-96079014D01*
X145178599Y-95821034D01*
X145263513Y-95541111D01*
X145292185Y-95250000D01*
X145263513Y-94958889D01*
X145178599Y-94678966D01*
X145040706Y-94420986D01*
X144855134Y-94194866D01*
X144629014Y-94009294D01*
X144371034Y-93871401D01*
X144091111Y-93786487D01*
X143872950Y-93765000D01*
X143727050Y-93765000D01*
X143508889Y-93786487D01*
X143228966Y-93871401D01*
X142970986Y-94009294D01*
X142744866Y-94194866D01*
X142559294Y-94420986D01*
X142421401Y-94678966D01*
X142336487Y-94958889D01*
X142307815Y-95250000D01*
X134488497Y-95250000D01*
X134486389Y-94738112D01*
X134521423Y-94672567D01*
X134571248Y-94508316D01*
X134588072Y-94337500D01*
X134588072Y-93862500D01*
X134571248Y-93691684D01*
X134521423Y-93527433D01*
X134481093Y-93451980D01*
X134461775Y-88760438D01*
X145923000Y-88772862D01*
X145923000Y-88772862D01*
G37*
X145923000Y-88772862D02*
X145923000Y-99313862D01*
X134505179Y-99301437D01*
X134488497Y-95250000D01*
X142307815Y-95250000D01*
X142336487Y-95541111D01*
X142421401Y-95821034D01*
X142559294Y-96079014D01*
X142744866Y-96305134D01*
X142970986Y-96490706D01*
X143228966Y-96628599D01*
X143508889Y-96713513D01*
X143727050Y-96735000D01*
X143872950Y-96735000D01*
X144091111Y-96713513D01*
X144371034Y-96628599D01*
X144629014Y-96490706D01*
X144855134Y-96305134D01*
X145040706Y-96079014D01*
X145178599Y-95821034D01*
X145263513Y-95541111D01*
X145292185Y-95250000D01*
X145263513Y-94958889D01*
X145178599Y-94678966D01*
X145040706Y-94420986D01*
X144855134Y-94194866D01*
X144629014Y-94009294D01*
X144371034Y-93871401D01*
X144091111Y-93786487D01*
X143872950Y-93765000D01*
X143727050Y-93765000D01*
X143508889Y-93786487D01*
X143228966Y-93871401D01*
X142970986Y-94009294D01*
X142744866Y-94194866D01*
X142559294Y-94420986D01*
X142421401Y-94678966D01*
X142336487Y-94958889D01*
X142307815Y-95250000D01*
X134488497Y-95250000D01*
X134486389Y-94738112D01*
X134521423Y-94672567D01*
X134571248Y-94508316D01*
X134588072Y-94337500D01*
X134588072Y-93862500D01*
X134571248Y-93691684D01*
X134521423Y-93527433D01*
X134481093Y-93451980D01*
X134461775Y-88760438D01*
X145923000Y-88772862D01*
G36*
X141224000Y-87884000D02*
G01*
X128016000Y-87884000D01*
X128016000Y-85471000D01*
X128013560Y-85446224D01*
X128006333Y-85422399D01*
X127994597Y-85400443D01*
X127978803Y-85381197D01*
X127959557Y-85365403D01*
X127937601Y-85353667D01*
X127913776Y-85346440D01*
X127889000Y-85344000D01*
X124333000Y-85344000D01*
X124333000Y-83693000D01*
X127889000Y-83693000D01*
X127913776Y-83690560D01*
X127937601Y-83683333D01*
X127959557Y-83671597D01*
X127978803Y-83655803D01*
X127994597Y-83636557D01*
X128006333Y-83614601D01*
X128013560Y-83590776D01*
X128016000Y-83566000D01*
X128016000Y-80899000D01*
X141224000Y-80899000D01*
X141224000Y-87884000D01*
X141224000Y-87884000D01*
G37*
X141224000Y-87884000D02*
X128016000Y-87884000D01*
X128016000Y-85471000D01*
X128013560Y-85446224D01*
X128006333Y-85422399D01*
X127994597Y-85400443D01*
X127978803Y-85381197D01*
X127959557Y-85365403D01*
X127937601Y-85353667D01*
X127913776Y-85346440D01*
X127889000Y-85344000D01*
X124333000Y-85344000D01*
X124333000Y-83693000D01*
X127889000Y-83693000D01*
X127913776Y-83690560D01*
X127937601Y-83683333D01*
X127959557Y-83671597D01*
X127978803Y-83655803D01*
X127994597Y-83636557D01*
X128006333Y-83614601D01*
X128013560Y-83590776D01*
X128016000Y-83566000D01*
X128016000Y-80899000D01*
X141224000Y-80899000D01*
X141224000Y-87884000D01*
G36*
X123571000Y-81464152D02*
G01*
X123539064Y-81457800D01*
X123348936Y-81457800D01*
X123162462Y-81494892D01*
X122986806Y-81567651D01*
X122828721Y-81673280D01*
X122694280Y-81807721D01*
X122588651Y-81965806D01*
X122515892Y-82141462D01*
X122478800Y-82327936D01*
X122478800Y-82518064D01*
X122515892Y-82704538D01*
X122588651Y-82880194D01*
X122694280Y-83038279D01*
X122828721Y-83172720D01*
X122986806Y-83278349D01*
X123162462Y-83351108D01*
X123348936Y-83388200D01*
X123539064Y-83388200D01*
X123571000Y-83381848D01*
X123571000Y-85979000D01*
X123573440Y-86003776D01*
X123580667Y-86027601D01*
X123592403Y-86049557D01*
X123608197Y-86068803D01*
X123627443Y-86084597D01*
X123649399Y-86096333D01*
X123673224Y-86103560D01*
X123698000Y-86106000D01*
X127127000Y-86106000D01*
X127127000Y-87885381D01*
X121442362Y-87947508D01*
X121417614Y-87950218D01*
X121393870Y-87957705D01*
X121372043Y-87969681D01*
X121352971Y-87985684D01*
X121337389Y-88005101D01*
X121325893Y-88027184D01*
X121318927Y-88051086D01*
X121316762Y-88072784D01*
X121254973Y-92645181D01*
X117784963Y-92608846D01*
X117771034Y-92601401D01*
X117491111Y-92516487D01*
X117272950Y-92495000D01*
X117127050Y-92495000D01*
X116908889Y-92516487D01*
X116643814Y-92596897D01*
X115443000Y-92584323D01*
X115443000Y-80899000D01*
X123571000Y-80899000D01*
X123571000Y-81464152D01*
X123571000Y-81464152D01*
G37*
X123571000Y-81464152D02*
X123539064Y-81457800D01*
X123348936Y-81457800D01*
X123162462Y-81494892D01*
X122986806Y-81567651D01*
X122828721Y-81673280D01*
X122694280Y-81807721D01*
X122588651Y-81965806D01*
X122515892Y-82141462D01*
X122478800Y-82327936D01*
X122478800Y-82518064D01*
X122515892Y-82704538D01*
X122588651Y-82880194D01*
X122694280Y-83038279D01*
X122828721Y-83172720D01*
X122986806Y-83278349D01*
X123162462Y-83351108D01*
X123348936Y-83388200D01*
X123539064Y-83388200D01*
X123571000Y-83381848D01*
X123571000Y-85979000D01*
X123573440Y-86003776D01*
X123580667Y-86027601D01*
X123592403Y-86049557D01*
X123608197Y-86068803D01*
X123627443Y-86084597D01*
X123649399Y-86096333D01*
X123673224Y-86103560D01*
X123698000Y-86106000D01*
X127127000Y-86106000D01*
X127127000Y-87885381D01*
X121442362Y-87947508D01*
X121417614Y-87950218D01*
X121393870Y-87957705D01*
X121372043Y-87969681D01*
X121352971Y-87985684D01*
X121337389Y-88005101D01*
X121325893Y-88027184D01*
X121318927Y-88051086D01*
X121316762Y-88072784D01*
X121254973Y-92645181D01*
X117784963Y-92608846D01*
X117771034Y-92601401D01*
X117491111Y-92516487D01*
X117272950Y-92495000D01*
X117127050Y-92495000D01*
X116908889Y-92516487D01*
X116643814Y-92596897D01*
X115443000Y-92584323D01*
X115443000Y-80899000D01*
X123571000Y-80899000D01*
X123571000Y-81464152D01*
G36*
X141351000Y-100138914D02*
G01*
X141351000Y-107123910D01*
X127889000Y-107061586D01*
X127889000Y-104394000D01*
X127886560Y-104369224D01*
X127879333Y-104345399D01*
X127867597Y-104323443D01*
X127851803Y-104304197D01*
X127832557Y-104288403D01*
X127810601Y-104276667D01*
X127786776Y-104269440D01*
X127762000Y-104267000D01*
X124206000Y-104267000D01*
X124206000Y-102489000D01*
X127762000Y-102489000D01*
X127786776Y-102486560D01*
X127810601Y-102479333D01*
X127832557Y-102467597D01*
X127851803Y-102451803D01*
X127867597Y-102432557D01*
X127879333Y-102410601D01*
X127886560Y-102386776D01*
X127889000Y-102362000D01*
X127889000Y-100076590D01*
X141351000Y-100138914D01*
X141351000Y-100138914D01*
G37*
X141351000Y-100138914D02*
X141351000Y-107123910D01*
X127889000Y-107061586D01*
X127889000Y-104394000D01*
X127886560Y-104369224D01*
X127879333Y-104345399D01*
X127867597Y-104323443D01*
X127851803Y-104304197D01*
X127832557Y-104288403D01*
X127810601Y-104276667D01*
X127786776Y-104269440D01*
X127762000Y-104267000D01*
X124206000Y-104267000D01*
X124206000Y-102489000D01*
X127762000Y-102489000D01*
X127786776Y-102486560D01*
X127810601Y-102479333D01*
X127832557Y-102467597D01*
X127851803Y-102451803D01*
X127867597Y-102432557D01*
X127879333Y-102410601D01*
X127886560Y-102386776D01*
X127889000Y-102362000D01*
X127889000Y-100076590D01*
X141351000Y-100138914D01*
G36*
X116908889Y-95443513D02*
G01*
X117127050Y-95465000D01*
X117272950Y-95465000D01*
X117491111Y-95443513D01*
X117710374Y-95377000D01*
X121098613Y-95377000D01*
X121135985Y-95564878D01*
X121158000Y-95618027D01*
X121158000Y-99949000D01*
X121160440Y-99973776D01*
X121167667Y-99997601D01*
X121179403Y-100019557D01*
X121195197Y-100038803D01*
X121214443Y-100054597D01*
X121236399Y-100066333D01*
X121260224Y-100073560D01*
X121285000Y-100076000D01*
X123444000Y-100076000D01*
X123444000Y-104902000D01*
X123446440Y-104926776D01*
X123453667Y-104950601D01*
X123465403Y-104972557D01*
X123481197Y-104991803D01*
X123500443Y-105007597D01*
X123522399Y-105019333D01*
X123546224Y-105026560D01*
X123571000Y-105029000D01*
X127000000Y-105029000D01*
X127000000Y-107061000D01*
X115443000Y-107061000D01*
X115443000Y-95377000D01*
X116689626Y-95377000D01*
X116908889Y-95443513D01*
X116908889Y-95443513D01*
G37*
X116908889Y-95443513D02*
X117127050Y-95465000D01*
X117272950Y-95465000D01*
X117491111Y-95443513D01*
X117710374Y-95377000D01*
X121098613Y-95377000D01*
X121135985Y-95564878D01*
X121158000Y-95618027D01*
X121158000Y-99949000D01*
X121160440Y-99973776D01*
X121167667Y-99997601D01*
X121179403Y-100019557D01*
X121195197Y-100038803D01*
X121214443Y-100054597D01*
X121236399Y-100066333D01*
X121260224Y-100073560D01*
X121285000Y-100076000D01*
X123444000Y-100076000D01*
X123444000Y-104902000D01*
X123446440Y-104926776D01*
X123453667Y-104950601D01*
X123465403Y-104972557D01*
X123481197Y-104991803D01*
X123500443Y-105007597D01*
X123522399Y-105019333D01*
X123546224Y-105026560D01*
X123571000Y-105029000D01*
X127000000Y-105029000D01*
X127000000Y-107061000D01*
X115443000Y-107061000D01*
X115443000Y-95377000D01*
X116689626Y-95377000D01*
X116908889Y-95443513D01*
M02*
