G04 #@! TF.GenerationSoftware,KiCad,Pcbnew,(5.1.2-1)-1*
G04 #@! TF.CreationDate,2019-06-28T15:13:53-07:00*
G04 #@! TF.ProjectId,power_share,706f7765-725f-4736-9861-72652e6b6963,rev?*
G04 #@! TF.SameCoordinates,Original*
G04 #@! TF.FileFunction,Copper,L2,Bot*
G04 #@! TF.FilePolarity,Positive*
%FSLAX46Y46*%
G04 Gerber Fmt 4.6, Leading zero omitted, Abs format (unit mm)*
G04 Created by KiCad (PCBNEW (5.1.2-1)-1) date 2019-06-28 15:13:53*
%MOMM*%
%LPD*%
G04 APERTURE LIST*
%ADD10C,0.300000*%
%ADD11O,1.700000X1.700000*%
%ADD12R,1.700000X1.700000*%
%ADD13C,0.889000*%
%ADD14C,0.660400*%
%ADD15C,0.304800*%
%ADD16C,0.254000*%
G04 APERTURE END LIST*
D10*
X117744857Y-105834571D02*
X118244857Y-105120285D01*
X118602000Y-105834571D02*
X118602000Y-104334571D01*
X118030571Y-104334571D01*
X117887714Y-104406000D01*
X117816285Y-104477428D01*
X117744857Y-104620285D01*
X117744857Y-104834571D01*
X117816285Y-104977428D01*
X117887714Y-105048857D01*
X118030571Y-105120285D01*
X118602000Y-105120285D01*
X116387714Y-105834571D02*
X117102000Y-105834571D01*
X117102000Y-104334571D01*
D11*
X143800000Y-95250000D03*
D12*
X143800000Y-92710000D03*
D11*
X117200000Y-96520000D03*
X117200000Y-93980000D03*
D12*
X117200000Y-91440000D03*
D13*
X122174000Y-95250000D03*
X122999000Y-90869000D03*
X123079000Y-97171000D03*
D14*
X126078360Y-90569107D03*
X123444000Y-82423000D03*
X126046082Y-97677004D03*
X125603000Y-99949000D03*
D15*
X126078360Y-85057360D02*
X123444000Y-82423000D01*
X126078360Y-90569107D02*
X126078360Y-85057360D01*
X126046082Y-99505918D02*
X125603000Y-99949000D01*
X126046082Y-97677004D02*
X126046082Y-99505918D01*
D16*
G36*
X146152000Y-83279581D02*
G01*
X146152000Y-83279582D01*
X146152001Y-104361572D01*
X146152000Y-104361582D01*
X146152001Y-107544000D01*
X114960000Y-107544000D01*
X114960000Y-103366000D01*
X115459857Y-103366000D01*
X115459857Y-107186000D01*
X119744143Y-107186000D01*
X119744143Y-103366000D01*
X115459857Y-103366000D01*
X114960000Y-103366000D01*
X114960000Y-99853936D01*
X124637800Y-99853936D01*
X124637800Y-100044064D01*
X124674892Y-100230538D01*
X124747651Y-100406194D01*
X124853280Y-100564279D01*
X124987721Y-100698720D01*
X125145806Y-100804349D01*
X125321462Y-100877108D01*
X125507936Y-100914200D01*
X125698064Y-100914200D01*
X125884538Y-100877108D01*
X126060194Y-100804349D01*
X126218279Y-100698720D01*
X126352720Y-100564279D01*
X126458349Y-100406194D01*
X126531108Y-100230538D01*
X126554969Y-100110582D01*
X126575509Y-100090042D01*
X126605551Y-100065387D01*
X126703948Y-99945490D01*
X126777064Y-99808701D01*
X126822088Y-99660275D01*
X126833482Y-99544591D01*
X126833482Y-99544583D01*
X126837290Y-99505918D01*
X126833482Y-99467253D01*
X126833482Y-98235891D01*
X126901431Y-98134198D01*
X126974190Y-97958542D01*
X127011282Y-97772068D01*
X127011282Y-97581940D01*
X126974190Y-97395466D01*
X126901431Y-97219810D01*
X126795802Y-97061725D01*
X126661361Y-96927284D01*
X126503276Y-96821655D01*
X126327620Y-96748896D01*
X126141146Y-96711804D01*
X125951018Y-96711804D01*
X125764544Y-96748896D01*
X125588888Y-96821655D01*
X125430803Y-96927284D01*
X125296362Y-97061725D01*
X125190733Y-97219810D01*
X125117974Y-97395466D01*
X125080882Y-97581940D01*
X125080882Y-97772068D01*
X125117974Y-97958542D01*
X125190733Y-98134198D01*
X125258682Y-98235891D01*
X125258683Y-99046896D01*
X125145806Y-99093651D01*
X124987721Y-99199280D01*
X124853280Y-99333721D01*
X124747651Y-99491806D01*
X124674892Y-99667462D01*
X124637800Y-99853936D01*
X114960000Y-99853936D01*
X114960000Y-96520000D01*
X115707815Y-96520000D01*
X115736487Y-96811111D01*
X115821401Y-97091034D01*
X115959294Y-97349014D01*
X116144866Y-97575134D01*
X116370986Y-97760706D01*
X116628966Y-97898599D01*
X116908889Y-97983513D01*
X117127050Y-98005000D01*
X117272950Y-98005000D01*
X117491111Y-97983513D01*
X117771034Y-97898599D01*
X118029014Y-97760706D01*
X118255134Y-97575134D01*
X118440706Y-97349014D01*
X118578599Y-97091034D01*
X118663513Y-96811111D01*
X118692185Y-96520000D01*
X118663513Y-96228889D01*
X118578599Y-95948966D01*
X118440706Y-95690986D01*
X118371691Y-95606890D01*
X142358524Y-95606890D01*
X142403175Y-95754099D01*
X142528359Y-96016920D01*
X142702412Y-96250269D01*
X142918645Y-96445178D01*
X143168748Y-96594157D01*
X143443109Y-96691481D01*
X143673000Y-96570814D01*
X143673000Y-95377000D01*
X143927000Y-95377000D01*
X143927000Y-96570814D01*
X144156891Y-96691481D01*
X144431252Y-96594157D01*
X144681355Y-96445178D01*
X144897588Y-96250269D01*
X145071641Y-96016920D01*
X145196825Y-95754099D01*
X145241476Y-95606890D01*
X145120155Y-95377000D01*
X143927000Y-95377000D01*
X143673000Y-95377000D01*
X142479845Y-95377000D01*
X142358524Y-95606890D01*
X118371691Y-95606890D01*
X118255134Y-95464866D01*
X118029014Y-95279294D01*
X117964477Y-95244799D01*
X118081355Y-95175178D01*
X118297588Y-94980269D01*
X118471641Y-94746920D01*
X118596825Y-94484099D01*
X118641476Y-94336890D01*
X118520155Y-94107000D01*
X117327000Y-94107000D01*
X117327000Y-94127000D01*
X117073000Y-94127000D01*
X117073000Y-94107000D01*
X115879845Y-94107000D01*
X115758524Y-94336890D01*
X115803175Y-94484099D01*
X115928359Y-94746920D01*
X116102412Y-94980269D01*
X116318645Y-95175178D01*
X116435523Y-95244799D01*
X116370986Y-95279294D01*
X116144866Y-95464866D01*
X115959294Y-95690986D01*
X115821401Y-95948966D01*
X115736487Y-96228889D01*
X115707815Y-96520000D01*
X114960000Y-96520000D01*
X114960000Y-90590000D01*
X115711928Y-90590000D01*
X115711928Y-92290000D01*
X115724188Y-92414482D01*
X115760498Y-92534180D01*
X115819463Y-92644494D01*
X115898815Y-92741185D01*
X115995506Y-92820537D01*
X116105820Y-92879502D01*
X116186466Y-92903966D01*
X116102412Y-92979731D01*
X115928359Y-93213080D01*
X115803175Y-93475901D01*
X115758524Y-93623110D01*
X115879845Y-93853000D01*
X117073000Y-93853000D01*
X117073000Y-93833000D01*
X117327000Y-93833000D01*
X117327000Y-93853000D01*
X118520155Y-93853000D01*
X118641476Y-93623110D01*
X118596825Y-93475901D01*
X118471641Y-93213080D01*
X118297588Y-92979731D01*
X118213534Y-92903966D01*
X118294180Y-92879502D01*
X118404494Y-92820537D01*
X118501185Y-92741185D01*
X118580537Y-92644494D01*
X118639502Y-92534180D01*
X118675812Y-92414482D01*
X118688072Y-92290000D01*
X118688072Y-91860000D01*
X142311928Y-91860000D01*
X142311928Y-93560000D01*
X142324188Y-93684482D01*
X142360498Y-93804180D01*
X142419463Y-93914494D01*
X142498815Y-94011185D01*
X142595506Y-94090537D01*
X142705820Y-94149502D01*
X142786466Y-94173966D01*
X142702412Y-94249731D01*
X142528359Y-94483080D01*
X142403175Y-94745901D01*
X142358524Y-94893110D01*
X142479845Y-95123000D01*
X143673000Y-95123000D01*
X143673000Y-95103000D01*
X143927000Y-95103000D01*
X143927000Y-95123000D01*
X145120155Y-95123000D01*
X145241476Y-94893110D01*
X145196825Y-94745901D01*
X145071641Y-94483080D01*
X144897588Y-94249731D01*
X144813534Y-94173966D01*
X144894180Y-94149502D01*
X145004494Y-94090537D01*
X145101185Y-94011185D01*
X145180537Y-93914494D01*
X145239502Y-93804180D01*
X145275812Y-93684482D01*
X145288072Y-93560000D01*
X145288072Y-91860000D01*
X145275812Y-91735518D01*
X145239502Y-91615820D01*
X145180537Y-91505506D01*
X145101185Y-91408815D01*
X145004494Y-91329463D01*
X144894180Y-91270498D01*
X144774482Y-91234188D01*
X144650000Y-91221928D01*
X142950000Y-91221928D01*
X142825518Y-91234188D01*
X142705820Y-91270498D01*
X142595506Y-91329463D01*
X142498815Y-91408815D01*
X142419463Y-91505506D01*
X142360498Y-91615820D01*
X142324188Y-91735518D01*
X142311928Y-91860000D01*
X118688072Y-91860000D01*
X118688072Y-90590000D01*
X118675812Y-90465518D01*
X118639502Y-90345820D01*
X118580537Y-90235506D01*
X118501185Y-90138815D01*
X118404494Y-90059463D01*
X118294180Y-90000498D01*
X118174482Y-89964188D01*
X118050000Y-89951928D01*
X116350000Y-89951928D01*
X116225518Y-89964188D01*
X116105820Y-90000498D01*
X115995506Y-90059463D01*
X115898815Y-90138815D01*
X115819463Y-90235506D01*
X115760498Y-90345820D01*
X115724188Y-90465518D01*
X115711928Y-90590000D01*
X114960000Y-90590000D01*
X114960000Y-82327936D01*
X122478800Y-82327936D01*
X122478800Y-82518064D01*
X122515892Y-82704538D01*
X122588651Y-82880194D01*
X122694280Y-83038279D01*
X122828721Y-83172720D01*
X122986806Y-83278349D01*
X123162462Y-83351108D01*
X123282419Y-83374969D01*
X125290961Y-85383513D01*
X125290960Y-90010220D01*
X125223011Y-90111913D01*
X125150252Y-90287569D01*
X125113160Y-90474043D01*
X125113160Y-90664171D01*
X125150252Y-90850645D01*
X125223011Y-91026301D01*
X125328640Y-91184386D01*
X125463081Y-91318827D01*
X125621166Y-91424456D01*
X125796822Y-91497215D01*
X125983296Y-91534307D01*
X126173424Y-91534307D01*
X126359898Y-91497215D01*
X126535554Y-91424456D01*
X126693639Y-91318827D01*
X126828080Y-91184386D01*
X126933709Y-91026301D01*
X127006468Y-90850645D01*
X127043560Y-90664171D01*
X127043560Y-90474043D01*
X127006468Y-90287569D01*
X126933709Y-90111913D01*
X126865760Y-90010220D01*
X126865760Y-85096025D01*
X126869568Y-85057360D01*
X126865760Y-85018695D01*
X126865760Y-85018687D01*
X126854366Y-84903003D01*
X126809342Y-84754577D01*
X126736226Y-84617788D01*
X126662482Y-84527930D01*
X126662479Y-84527927D01*
X126637829Y-84497891D01*
X126607793Y-84473241D01*
X124395969Y-82261419D01*
X124372108Y-82141462D01*
X124299349Y-81965806D01*
X124193720Y-81807721D01*
X124059279Y-81673280D01*
X123901194Y-81567651D01*
X123725538Y-81494892D01*
X123539064Y-81457800D01*
X123348936Y-81457800D01*
X123162462Y-81494892D01*
X122986806Y-81567651D01*
X122828721Y-81673280D01*
X122694280Y-81807721D01*
X122588651Y-81965806D01*
X122515892Y-82141462D01*
X122478800Y-82327936D01*
X114960000Y-82327936D01*
X114960000Y-80416000D01*
X146152001Y-80416000D01*
X146152000Y-83279581D01*
X146152000Y-83279581D01*
G37*
X146152000Y-83279581D02*
X146152000Y-83279582D01*
X146152001Y-104361572D01*
X146152000Y-104361582D01*
X146152001Y-107544000D01*
X114960000Y-107544000D01*
X114960000Y-103366000D01*
X115459857Y-103366000D01*
X115459857Y-107186000D01*
X119744143Y-107186000D01*
X119744143Y-103366000D01*
X115459857Y-103366000D01*
X114960000Y-103366000D01*
X114960000Y-99853936D01*
X124637800Y-99853936D01*
X124637800Y-100044064D01*
X124674892Y-100230538D01*
X124747651Y-100406194D01*
X124853280Y-100564279D01*
X124987721Y-100698720D01*
X125145806Y-100804349D01*
X125321462Y-100877108D01*
X125507936Y-100914200D01*
X125698064Y-100914200D01*
X125884538Y-100877108D01*
X126060194Y-100804349D01*
X126218279Y-100698720D01*
X126352720Y-100564279D01*
X126458349Y-100406194D01*
X126531108Y-100230538D01*
X126554969Y-100110582D01*
X126575509Y-100090042D01*
X126605551Y-100065387D01*
X126703948Y-99945490D01*
X126777064Y-99808701D01*
X126822088Y-99660275D01*
X126833482Y-99544591D01*
X126833482Y-99544583D01*
X126837290Y-99505918D01*
X126833482Y-99467253D01*
X126833482Y-98235891D01*
X126901431Y-98134198D01*
X126974190Y-97958542D01*
X127011282Y-97772068D01*
X127011282Y-97581940D01*
X126974190Y-97395466D01*
X126901431Y-97219810D01*
X126795802Y-97061725D01*
X126661361Y-96927284D01*
X126503276Y-96821655D01*
X126327620Y-96748896D01*
X126141146Y-96711804D01*
X125951018Y-96711804D01*
X125764544Y-96748896D01*
X125588888Y-96821655D01*
X125430803Y-96927284D01*
X125296362Y-97061725D01*
X125190733Y-97219810D01*
X125117974Y-97395466D01*
X125080882Y-97581940D01*
X125080882Y-97772068D01*
X125117974Y-97958542D01*
X125190733Y-98134198D01*
X125258682Y-98235891D01*
X125258683Y-99046896D01*
X125145806Y-99093651D01*
X124987721Y-99199280D01*
X124853280Y-99333721D01*
X124747651Y-99491806D01*
X124674892Y-99667462D01*
X124637800Y-99853936D01*
X114960000Y-99853936D01*
X114960000Y-96520000D01*
X115707815Y-96520000D01*
X115736487Y-96811111D01*
X115821401Y-97091034D01*
X115959294Y-97349014D01*
X116144866Y-97575134D01*
X116370986Y-97760706D01*
X116628966Y-97898599D01*
X116908889Y-97983513D01*
X117127050Y-98005000D01*
X117272950Y-98005000D01*
X117491111Y-97983513D01*
X117771034Y-97898599D01*
X118029014Y-97760706D01*
X118255134Y-97575134D01*
X118440706Y-97349014D01*
X118578599Y-97091034D01*
X118663513Y-96811111D01*
X118692185Y-96520000D01*
X118663513Y-96228889D01*
X118578599Y-95948966D01*
X118440706Y-95690986D01*
X118371691Y-95606890D01*
X142358524Y-95606890D01*
X142403175Y-95754099D01*
X142528359Y-96016920D01*
X142702412Y-96250269D01*
X142918645Y-96445178D01*
X143168748Y-96594157D01*
X143443109Y-96691481D01*
X143673000Y-96570814D01*
X143673000Y-95377000D01*
X143927000Y-95377000D01*
X143927000Y-96570814D01*
X144156891Y-96691481D01*
X144431252Y-96594157D01*
X144681355Y-96445178D01*
X144897588Y-96250269D01*
X145071641Y-96016920D01*
X145196825Y-95754099D01*
X145241476Y-95606890D01*
X145120155Y-95377000D01*
X143927000Y-95377000D01*
X143673000Y-95377000D01*
X142479845Y-95377000D01*
X142358524Y-95606890D01*
X118371691Y-95606890D01*
X118255134Y-95464866D01*
X118029014Y-95279294D01*
X117964477Y-95244799D01*
X118081355Y-95175178D01*
X118297588Y-94980269D01*
X118471641Y-94746920D01*
X118596825Y-94484099D01*
X118641476Y-94336890D01*
X118520155Y-94107000D01*
X117327000Y-94107000D01*
X117327000Y-94127000D01*
X117073000Y-94127000D01*
X117073000Y-94107000D01*
X115879845Y-94107000D01*
X115758524Y-94336890D01*
X115803175Y-94484099D01*
X115928359Y-94746920D01*
X116102412Y-94980269D01*
X116318645Y-95175178D01*
X116435523Y-95244799D01*
X116370986Y-95279294D01*
X116144866Y-95464866D01*
X115959294Y-95690986D01*
X115821401Y-95948966D01*
X115736487Y-96228889D01*
X115707815Y-96520000D01*
X114960000Y-96520000D01*
X114960000Y-90590000D01*
X115711928Y-90590000D01*
X115711928Y-92290000D01*
X115724188Y-92414482D01*
X115760498Y-92534180D01*
X115819463Y-92644494D01*
X115898815Y-92741185D01*
X115995506Y-92820537D01*
X116105820Y-92879502D01*
X116186466Y-92903966D01*
X116102412Y-92979731D01*
X115928359Y-93213080D01*
X115803175Y-93475901D01*
X115758524Y-93623110D01*
X115879845Y-93853000D01*
X117073000Y-93853000D01*
X117073000Y-93833000D01*
X117327000Y-93833000D01*
X117327000Y-93853000D01*
X118520155Y-93853000D01*
X118641476Y-93623110D01*
X118596825Y-93475901D01*
X118471641Y-93213080D01*
X118297588Y-92979731D01*
X118213534Y-92903966D01*
X118294180Y-92879502D01*
X118404494Y-92820537D01*
X118501185Y-92741185D01*
X118580537Y-92644494D01*
X118639502Y-92534180D01*
X118675812Y-92414482D01*
X118688072Y-92290000D01*
X118688072Y-91860000D01*
X142311928Y-91860000D01*
X142311928Y-93560000D01*
X142324188Y-93684482D01*
X142360498Y-93804180D01*
X142419463Y-93914494D01*
X142498815Y-94011185D01*
X142595506Y-94090537D01*
X142705820Y-94149502D01*
X142786466Y-94173966D01*
X142702412Y-94249731D01*
X142528359Y-94483080D01*
X142403175Y-94745901D01*
X142358524Y-94893110D01*
X142479845Y-95123000D01*
X143673000Y-95123000D01*
X143673000Y-95103000D01*
X143927000Y-95103000D01*
X143927000Y-95123000D01*
X145120155Y-95123000D01*
X145241476Y-94893110D01*
X145196825Y-94745901D01*
X145071641Y-94483080D01*
X144897588Y-94249731D01*
X144813534Y-94173966D01*
X144894180Y-94149502D01*
X145004494Y-94090537D01*
X145101185Y-94011185D01*
X145180537Y-93914494D01*
X145239502Y-93804180D01*
X145275812Y-93684482D01*
X145288072Y-93560000D01*
X145288072Y-91860000D01*
X145275812Y-91735518D01*
X145239502Y-91615820D01*
X145180537Y-91505506D01*
X145101185Y-91408815D01*
X145004494Y-91329463D01*
X144894180Y-91270498D01*
X144774482Y-91234188D01*
X144650000Y-91221928D01*
X142950000Y-91221928D01*
X142825518Y-91234188D01*
X142705820Y-91270498D01*
X142595506Y-91329463D01*
X142498815Y-91408815D01*
X142419463Y-91505506D01*
X142360498Y-91615820D01*
X142324188Y-91735518D01*
X142311928Y-91860000D01*
X118688072Y-91860000D01*
X118688072Y-90590000D01*
X118675812Y-90465518D01*
X118639502Y-90345820D01*
X118580537Y-90235506D01*
X118501185Y-90138815D01*
X118404494Y-90059463D01*
X118294180Y-90000498D01*
X118174482Y-89964188D01*
X118050000Y-89951928D01*
X116350000Y-89951928D01*
X116225518Y-89964188D01*
X116105820Y-90000498D01*
X115995506Y-90059463D01*
X115898815Y-90138815D01*
X115819463Y-90235506D01*
X115760498Y-90345820D01*
X115724188Y-90465518D01*
X115711928Y-90590000D01*
X114960000Y-90590000D01*
X114960000Y-82327936D01*
X122478800Y-82327936D01*
X122478800Y-82518064D01*
X122515892Y-82704538D01*
X122588651Y-82880194D01*
X122694280Y-83038279D01*
X122828721Y-83172720D01*
X122986806Y-83278349D01*
X123162462Y-83351108D01*
X123282419Y-83374969D01*
X125290961Y-85383513D01*
X125290960Y-90010220D01*
X125223011Y-90111913D01*
X125150252Y-90287569D01*
X125113160Y-90474043D01*
X125113160Y-90664171D01*
X125150252Y-90850645D01*
X125223011Y-91026301D01*
X125328640Y-91184386D01*
X125463081Y-91318827D01*
X125621166Y-91424456D01*
X125796822Y-91497215D01*
X125983296Y-91534307D01*
X126173424Y-91534307D01*
X126359898Y-91497215D01*
X126535554Y-91424456D01*
X126693639Y-91318827D01*
X126828080Y-91184386D01*
X126933709Y-91026301D01*
X127006468Y-90850645D01*
X127043560Y-90664171D01*
X127043560Y-90474043D01*
X127006468Y-90287569D01*
X126933709Y-90111913D01*
X126865760Y-90010220D01*
X126865760Y-85096025D01*
X126869568Y-85057360D01*
X126865760Y-85018695D01*
X126865760Y-85018687D01*
X126854366Y-84903003D01*
X126809342Y-84754577D01*
X126736226Y-84617788D01*
X126662482Y-84527930D01*
X126662479Y-84527927D01*
X126637829Y-84497891D01*
X126607793Y-84473241D01*
X124395969Y-82261419D01*
X124372108Y-82141462D01*
X124299349Y-81965806D01*
X124193720Y-81807721D01*
X124059279Y-81673280D01*
X123901194Y-81567651D01*
X123725538Y-81494892D01*
X123539064Y-81457800D01*
X123348936Y-81457800D01*
X123162462Y-81494892D01*
X122986806Y-81567651D01*
X122828721Y-81673280D01*
X122694280Y-81807721D01*
X122588651Y-81965806D01*
X122515892Y-82141462D01*
X122478800Y-82327936D01*
X114960000Y-82327936D01*
X114960000Y-80416000D01*
X146152001Y-80416000D01*
X146152000Y-83279581D01*
M02*
