G04 #@! TF.GenerationSoftware,KiCad,Pcbnew,(5.1.2-1)-1*
G04 #@! TF.CreationDate,2019-06-30T23:14:58-07:00*
G04 #@! TF.ProjectId,power_share,706f7765-725f-4736-9861-72652e6b6963,rev?*
G04 #@! TF.SameCoordinates,Original*
G04 #@! TF.FileFunction,Soldermask,Top*
G04 #@! TF.FilePolarity,Negative*
%FSLAX46Y46*%
G04 Gerber Fmt 4.6, Leading zero omitted, Abs format (unit mm)*
G04 Created by KiCad (PCBNEW (5.1.2-1)-1) date 2019-06-30 23:14:58*
%MOMM*%
%LPD*%
G04 APERTURE LIST*
%ADD10C,0.100000*%
G04 APERTURE END LIST*
D10*
G36*
X131335000Y-108996000D02*
G01*
X124833000Y-108996000D01*
X124833000Y-103094000D01*
X131335000Y-103094000D01*
X131335000Y-108996000D01*
X131335000Y-108996000D01*
G37*
G36*
X122935000Y-108976000D02*
G01*
X120633000Y-108976000D01*
X120633000Y-107674000D01*
X122935000Y-107674000D01*
X122935000Y-108976000D01*
X122935000Y-108976000D01*
G37*
G36*
X122935000Y-106696000D02*
G01*
X120633000Y-106696000D01*
X120633000Y-105394000D01*
X122935000Y-105394000D01*
X122935000Y-106696000D01*
X122935000Y-106696000D01*
G37*
G36*
X136468820Y-104218103D02*
G01*
X136502985Y-104228467D01*
X136534464Y-104245293D01*
X136562060Y-104267940D01*
X136584707Y-104295536D01*
X136601533Y-104327015D01*
X136611897Y-104361180D01*
X136616000Y-104402842D01*
X136616000Y-105652158D01*
X136611897Y-105693820D01*
X136601533Y-105727985D01*
X136584707Y-105759464D01*
X136562060Y-105787060D01*
X136534464Y-105809707D01*
X136502985Y-105826533D01*
X136468820Y-105836897D01*
X136427158Y-105841000D01*
X133352842Y-105841000D01*
X133311180Y-105836897D01*
X133277015Y-105826533D01*
X133245536Y-105809707D01*
X133217940Y-105787060D01*
X133195293Y-105759464D01*
X133178467Y-105727985D01*
X133168103Y-105693820D01*
X133164000Y-105652158D01*
X133164000Y-104402842D01*
X133168103Y-104361180D01*
X133178467Y-104327015D01*
X133195293Y-104295536D01*
X133217940Y-104267940D01*
X133245536Y-104245293D01*
X133277015Y-104228467D01*
X133311180Y-104218103D01*
X133352842Y-104214000D01*
X136427158Y-104214000D01*
X136468820Y-104218103D01*
X136468820Y-104218103D01*
G37*
G36*
X122935000Y-104416000D02*
G01*
X120633000Y-104416000D01*
X120633000Y-103114000D01*
X122935000Y-103114000D01*
X122935000Y-104416000D01*
X122935000Y-104416000D01*
G37*
G36*
X124479499Y-100718445D02*
G01*
X124516995Y-100729820D01*
X124551554Y-100748292D01*
X124581847Y-100773153D01*
X124606708Y-100803446D01*
X124625180Y-100838005D01*
X124636555Y-100875501D01*
X124641000Y-100920638D01*
X124641000Y-101559362D01*
X124636555Y-101604499D01*
X124625180Y-101641995D01*
X124606708Y-101676554D01*
X124581847Y-101706847D01*
X124551554Y-101731708D01*
X124516995Y-101750180D01*
X124479499Y-101761555D01*
X124434362Y-101766000D01*
X123695638Y-101766000D01*
X123650501Y-101761555D01*
X123613005Y-101750180D01*
X123578446Y-101731708D01*
X123548153Y-101706847D01*
X123523292Y-101676554D01*
X123504820Y-101641995D01*
X123493445Y-101604499D01*
X123489000Y-101559362D01*
X123489000Y-100920638D01*
X123493445Y-100875501D01*
X123504820Y-100838005D01*
X123523292Y-100803446D01*
X123548153Y-100773153D01*
X123578446Y-100748292D01*
X123613005Y-100729820D01*
X123650501Y-100718445D01*
X123695638Y-100714000D01*
X124434362Y-100714000D01*
X124479499Y-100718445D01*
X124479499Y-100718445D01*
G37*
G36*
X122729499Y-100718445D02*
G01*
X122766995Y-100729820D01*
X122801554Y-100748292D01*
X122831847Y-100773153D01*
X122856708Y-100803446D01*
X122875180Y-100838005D01*
X122886555Y-100875501D01*
X122891000Y-100920638D01*
X122891000Y-101559362D01*
X122886555Y-101604499D01*
X122875180Y-101641995D01*
X122856708Y-101676554D01*
X122831847Y-101706847D01*
X122801554Y-101731708D01*
X122766995Y-101750180D01*
X122729499Y-101761555D01*
X122684362Y-101766000D01*
X121945638Y-101766000D01*
X121900501Y-101761555D01*
X121863005Y-101750180D01*
X121828446Y-101731708D01*
X121798153Y-101706847D01*
X121773292Y-101676554D01*
X121754820Y-101641995D01*
X121743445Y-101604499D01*
X121739000Y-101559362D01*
X121739000Y-100920638D01*
X121743445Y-100875501D01*
X121754820Y-100838005D01*
X121773292Y-100803446D01*
X121798153Y-100773153D01*
X121828446Y-100748292D01*
X121863005Y-100729820D01*
X121900501Y-100718445D01*
X121945638Y-100714000D01*
X122684362Y-100714000D01*
X122729499Y-100718445D01*
X122729499Y-100718445D01*
G37*
G36*
X120923499Y-100718445D02*
G01*
X120960995Y-100729820D01*
X120995554Y-100748292D01*
X121025847Y-100773153D01*
X121050708Y-100803446D01*
X121069180Y-100838005D01*
X121080555Y-100875501D01*
X121085000Y-100920638D01*
X121085000Y-101559362D01*
X121080555Y-101604499D01*
X121069180Y-101641995D01*
X121050708Y-101676554D01*
X121025847Y-101706847D01*
X120995554Y-101731708D01*
X120960995Y-101750180D01*
X120923499Y-101761555D01*
X120878362Y-101766000D01*
X120139638Y-101766000D01*
X120094501Y-101761555D01*
X120057005Y-101750180D01*
X120022446Y-101731708D01*
X119992153Y-101706847D01*
X119967292Y-101676554D01*
X119948820Y-101641995D01*
X119937445Y-101604499D01*
X119933000Y-101559362D01*
X119933000Y-100920638D01*
X119937445Y-100875501D01*
X119948820Y-100838005D01*
X119967292Y-100803446D01*
X119992153Y-100773153D01*
X120022446Y-100748292D01*
X120057005Y-100729820D01*
X120094501Y-100718445D01*
X120139638Y-100714000D01*
X120878362Y-100714000D01*
X120923499Y-100718445D01*
X120923499Y-100718445D01*
G37*
G36*
X119173499Y-100718445D02*
G01*
X119210995Y-100729820D01*
X119245554Y-100748292D01*
X119275847Y-100773153D01*
X119300708Y-100803446D01*
X119319180Y-100838005D01*
X119330555Y-100875501D01*
X119335000Y-100920638D01*
X119335000Y-101559362D01*
X119330555Y-101604499D01*
X119319180Y-101641995D01*
X119300708Y-101676554D01*
X119275847Y-101706847D01*
X119245554Y-101731708D01*
X119210995Y-101750180D01*
X119173499Y-101761555D01*
X119128362Y-101766000D01*
X118389638Y-101766000D01*
X118344501Y-101761555D01*
X118307005Y-101750180D01*
X118272446Y-101731708D01*
X118242153Y-101706847D01*
X118217292Y-101676554D01*
X118198820Y-101641995D01*
X118187445Y-101604499D01*
X118183000Y-101559362D01*
X118183000Y-100920638D01*
X118187445Y-100875501D01*
X118198820Y-100838005D01*
X118217292Y-100803446D01*
X118242153Y-100773153D01*
X118272446Y-100748292D01*
X118307005Y-100729820D01*
X118344501Y-100718445D01*
X118389638Y-100714000D01*
X119128362Y-100714000D01*
X119173499Y-100718445D01*
X119173499Y-100718445D01*
G37*
G36*
X139810443Y-98165519D02*
G01*
X139876627Y-98172037D01*
X140046466Y-98223557D01*
X140202991Y-98307222D01*
X140219214Y-98320536D01*
X140340186Y-98419814D01*
X140410686Y-98505720D01*
X140452778Y-98557009D01*
X140536443Y-98713534D01*
X140587963Y-98883373D01*
X140605359Y-99060000D01*
X140587963Y-99236627D01*
X140548989Y-99365107D01*
X140536442Y-99406468D01*
X140494611Y-99484728D01*
X140452778Y-99562991D01*
X140423448Y-99598729D01*
X140340186Y-99700186D01*
X140238729Y-99783448D01*
X140202991Y-99812778D01*
X140046466Y-99896443D01*
X139876627Y-99947963D01*
X139810443Y-99954481D01*
X139744260Y-99961000D01*
X139655740Y-99961000D01*
X139589557Y-99954481D01*
X139523373Y-99947963D01*
X139353534Y-99896443D01*
X139197009Y-99812778D01*
X139161271Y-99783448D01*
X139059814Y-99700186D01*
X138976552Y-99598729D01*
X138947222Y-99562991D01*
X138905389Y-99484728D01*
X138863558Y-99406468D01*
X138851011Y-99365107D01*
X138812037Y-99236627D01*
X138794641Y-99060000D01*
X138812037Y-98883373D01*
X138863557Y-98713534D01*
X138947222Y-98557009D01*
X138989314Y-98505720D01*
X139059814Y-98419814D01*
X139180786Y-98320536D01*
X139197009Y-98307222D01*
X139353534Y-98223557D01*
X139523373Y-98172037D01*
X139589557Y-98165519D01*
X139655740Y-98159000D01*
X139744260Y-98159000D01*
X139810443Y-98165519D01*
X139810443Y-98165519D01*
G37*
G36*
X114156443Y-98165519D02*
G01*
X114222627Y-98172037D01*
X114392466Y-98223557D01*
X114548991Y-98307222D01*
X114565214Y-98320536D01*
X114686186Y-98419814D01*
X114756686Y-98505720D01*
X114798778Y-98557009D01*
X114882443Y-98713534D01*
X114933963Y-98883373D01*
X114951359Y-99060000D01*
X114933963Y-99236627D01*
X114894989Y-99365107D01*
X114882442Y-99406468D01*
X114840611Y-99484728D01*
X114798778Y-99562991D01*
X114769448Y-99598729D01*
X114686186Y-99700186D01*
X114584729Y-99783448D01*
X114548991Y-99812778D01*
X114392466Y-99896443D01*
X114222627Y-99947963D01*
X114156443Y-99954481D01*
X114090260Y-99961000D01*
X114001740Y-99961000D01*
X113935557Y-99954481D01*
X113869373Y-99947963D01*
X113699534Y-99896443D01*
X113543009Y-99812778D01*
X113507271Y-99783448D01*
X113405814Y-99700186D01*
X113322552Y-99598729D01*
X113293222Y-99562991D01*
X113251390Y-99484729D01*
X113209558Y-99406468D01*
X113197011Y-99365107D01*
X113158037Y-99236627D01*
X113140641Y-99060000D01*
X113158037Y-98883373D01*
X113209557Y-98713534D01*
X113293222Y-98557009D01*
X113335314Y-98505720D01*
X113405814Y-98419814D01*
X113526786Y-98320536D01*
X113543009Y-98307222D01*
X113699534Y-98223557D01*
X113869373Y-98172037D01*
X113935557Y-98165519D01*
X114001740Y-98159000D01*
X114090260Y-98159000D01*
X114156443Y-98165519D01*
X114156443Y-98165519D01*
G37*
G36*
X136468820Y-98243103D02*
G01*
X136502985Y-98253467D01*
X136534464Y-98270293D01*
X136562060Y-98292940D01*
X136584707Y-98320536D01*
X136601533Y-98352015D01*
X136611897Y-98386180D01*
X136616000Y-98427842D01*
X136616000Y-99677158D01*
X136611897Y-99718820D01*
X136601533Y-99752985D01*
X136584707Y-99784464D01*
X136562060Y-99812060D01*
X136534464Y-99834707D01*
X136502985Y-99851533D01*
X136468820Y-99861897D01*
X136427158Y-99866000D01*
X133352842Y-99866000D01*
X133311180Y-99861897D01*
X133277015Y-99851533D01*
X133245536Y-99834707D01*
X133217940Y-99812060D01*
X133195293Y-99784464D01*
X133178467Y-99752985D01*
X133168103Y-99718820D01*
X133164000Y-99677158D01*
X133164000Y-98427842D01*
X133168103Y-98386180D01*
X133178467Y-98352015D01*
X133195293Y-98320536D01*
X133217940Y-98292940D01*
X133245536Y-98270293D01*
X133277015Y-98253467D01*
X133311180Y-98243103D01*
X133352842Y-98239000D01*
X136427158Y-98239000D01*
X136468820Y-98243103D01*
X136468820Y-98243103D01*
G37*
G36*
X120400295Y-97895323D02*
G01*
X120407309Y-97897451D01*
X120421077Y-97904810D01*
X120443716Y-97914187D01*
X120467749Y-97918967D01*
X120492253Y-97918967D01*
X120516286Y-97914186D01*
X120538923Y-97904810D01*
X120552691Y-97897451D01*
X120559705Y-97895323D01*
X120573140Y-97894000D01*
X120886860Y-97894000D01*
X120900295Y-97895323D01*
X120907309Y-97897451D01*
X120921077Y-97904810D01*
X120943716Y-97914187D01*
X120967749Y-97918967D01*
X120992253Y-97918967D01*
X121016286Y-97914186D01*
X121038923Y-97904810D01*
X121052691Y-97897451D01*
X121059705Y-97895323D01*
X121073140Y-97894000D01*
X121386860Y-97894000D01*
X121400295Y-97895323D01*
X121407309Y-97897451D01*
X121421077Y-97904810D01*
X121443716Y-97914187D01*
X121467749Y-97918967D01*
X121492253Y-97918967D01*
X121516286Y-97914186D01*
X121538923Y-97904810D01*
X121552691Y-97897451D01*
X121559705Y-97895323D01*
X121573140Y-97894000D01*
X121886860Y-97894000D01*
X121900295Y-97895323D01*
X121907309Y-97897451D01*
X121921077Y-97904810D01*
X121943716Y-97914187D01*
X121967749Y-97918967D01*
X121992253Y-97918967D01*
X122016286Y-97914186D01*
X122038923Y-97904810D01*
X122052691Y-97897451D01*
X122059705Y-97895323D01*
X122073140Y-97894000D01*
X122386860Y-97894000D01*
X122400295Y-97895323D01*
X122407309Y-97897451D01*
X122421077Y-97904810D01*
X122443716Y-97914187D01*
X122467749Y-97918967D01*
X122492253Y-97918967D01*
X122516286Y-97914186D01*
X122538923Y-97904810D01*
X122552691Y-97897451D01*
X122559705Y-97895323D01*
X122573140Y-97894000D01*
X122886860Y-97894000D01*
X122900295Y-97895323D01*
X122907309Y-97897451D01*
X122921077Y-97904810D01*
X122943716Y-97914187D01*
X122967749Y-97918967D01*
X122992253Y-97918967D01*
X123016286Y-97914186D01*
X123038923Y-97904810D01*
X123052691Y-97897451D01*
X123059705Y-97895323D01*
X123073140Y-97894000D01*
X123386860Y-97894000D01*
X123400295Y-97895323D01*
X123407309Y-97897451D01*
X123421077Y-97904810D01*
X123443716Y-97914187D01*
X123467749Y-97918967D01*
X123492253Y-97918967D01*
X123516286Y-97914186D01*
X123538923Y-97904810D01*
X123552691Y-97897451D01*
X123559705Y-97895323D01*
X123573140Y-97894000D01*
X123886860Y-97894000D01*
X123900295Y-97895323D01*
X123907310Y-97897451D01*
X123913776Y-97900908D01*
X123919442Y-97905558D01*
X123924092Y-97911224D01*
X123927549Y-97917690D01*
X123929677Y-97924705D01*
X123931000Y-97938140D01*
X123931000Y-99401860D01*
X123929677Y-99415295D01*
X123927549Y-99422310D01*
X123924092Y-99428776D01*
X123919442Y-99434442D01*
X123913776Y-99439092D01*
X123907310Y-99442549D01*
X123900295Y-99444677D01*
X123886860Y-99446000D01*
X123573140Y-99446000D01*
X123559705Y-99444677D01*
X123552691Y-99442549D01*
X123538923Y-99435190D01*
X123516284Y-99425813D01*
X123492251Y-99421033D01*
X123467747Y-99421033D01*
X123443714Y-99425814D01*
X123421077Y-99435190D01*
X123407309Y-99442549D01*
X123400295Y-99444677D01*
X123386860Y-99446000D01*
X123073140Y-99446000D01*
X123059705Y-99444677D01*
X123052691Y-99442549D01*
X123038923Y-99435190D01*
X123016284Y-99425813D01*
X122992251Y-99421033D01*
X122967747Y-99421033D01*
X122943714Y-99425814D01*
X122921077Y-99435190D01*
X122907309Y-99442549D01*
X122900295Y-99444677D01*
X122886860Y-99446000D01*
X122573140Y-99446000D01*
X122559705Y-99444677D01*
X122552691Y-99442549D01*
X122538923Y-99435190D01*
X122516284Y-99425813D01*
X122492251Y-99421033D01*
X122467747Y-99421033D01*
X122443714Y-99425814D01*
X122421077Y-99435190D01*
X122407309Y-99442549D01*
X122400295Y-99444677D01*
X122386860Y-99446000D01*
X122073140Y-99446000D01*
X122059705Y-99444677D01*
X122052691Y-99442549D01*
X122038923Y-99435190D01*
X122016284Y-99425813D01*
X121992251Y-99421033D01*
X121967747Y-99421033D01*
X121943714Y-99425814D01*
X121921077Y-99435190D01*
X121907309Y-99442549D01*
X121900295Y-99444677D01*
X121886860Y-99446000D01*
X121573140Y-99446000D01*
X121559705Y-99444677D01*
X121552691Y-99442549D01*
X121538923Y-99435190D01*
X121516284Y-99425813D01*
X121492251Y-99421033D01*
X121467747Y-99421033D01*
X121443714Y-99425814D01*
X121421077Y-99435190D01*
X121407309Y-99442549D01*
X121400295Y-99444677D01*
X121386860Y-99446000D01*
X121073140Y-99446000D01*
X121059705Y-99444677D01*
X121052691Y-99442549D01*
X121038923Y-99435190D01*
X121016284Y-99425813D01*
X120992251Y-99421033D01*
X120967747Y-99421033D01*
X120943714Y-99425814D01*
X120921077Y-99435190D01*
X120907309Y-99442549D01*
X120900295Y-99444677D01*
X120886860Y-99446000D01*
X120573140Y-99446000D01*
X120559705Y-99444677D01*
X120552691Y-99442549D01*
X120538923Y-99435190D01*
X120516284Y-99425813D01*
X120492251Y-99421033D01*
X120467747Y-99421033D01*
X120443714Y-99425814D01*
X120421077Y-99435190D01*
X120407309Y-99442549D01*
X120400295Y-99444677D01*
X120386860Y-99446000D01*
X120073140Y-99446000D01*
X120059705Y-99444677D01*
X120052690Y-99442549D01*
X120046224Y-99439092D01*
X120040558Y-99434442D01*
X120035908Y-99428776D01*
X120032451Y-99422310D01*
X120030323Y-99415295D01*
X120029000Y-99401860D01*
X120029000Y-97938140D01*
X120030323Y-97924705D01*
X120032451Y-97917690D01*
X120035908Y-97911224D01*
X120040558Y-97905558D01*
X120046224Y-97900908D01*
X120052690Y-97897451D01*
X120059705Y-97895323D01*
X120073140Y-97894000D01*
X120386860Y-97894000D01*
X120400295Y-97895323D01*
X120400295Y-97895323D01*
G37*
G36*
X140601000Y-97421000D02*
G01*
X138799000Y-97421000D01*
X138799000Y-95619000D01*
X140601000Y-95619000D01*
X140601000Y-97421000D01*
X140601000Y-97421000D01*
G37*
G36*
X114156442Y-95625518D02*
G01*
X114222627Y-95632037D01*
X114392466Y-95683557D01*
X114548991Y-95767222D01*
X114584729Y-95796552D01*
X114686186Y-95879814D01*
X114769448Y-95981271D01*
X114798778Y-96017009D01*
X114882443Y-96173534D01*
X114933963Y-96343373D01*
X114951359Y-96520000D01*
X114933963Y-96696627D01*
X114882443Y-96866466D01*
X114798778Y-97022991D01*
X114783543Y-97041555D01*
X114686186Y-97160186D01*
X114584729Y-97243448D01*
X114548991Y-97272778D01*
X114392466Y-97356443D01*
X114222627Y-97407963D01*
X114156442Y-97414482D01*
X114090260Y-97421000D01*
X114001740Y-97421000D01*
X113935558Y-97414482D01*
X113869373Y-97407963D01*
X113699534Y-97356443D01*
X113543009Y-97272778D01*
X113507271Y-97243448D01*
X113405814Y-97160186D01*
X113308457Y-97041555D01*
X113293222Y-97022991D01*
X113209557Y-96866466D01*
X113158037Y-96696627D01*
X113140641Y-96520000D01*
X113158037Y-96343373D01*
X113209557Y-96173534D01*
X113293222Y-96017009D01*
X113322552Y-95981271D01*
X113405814Y-95879814D01*
X113507271Y-95796552D01*
X113543009Y-95767222D01*
X113699534Y-95683557D01*
X113869373Y-95632037D01*
X113935558Y-95625518D01*
X114001740Y-95619000D01*
X114090260Y-95619000D01*
X114156442Y-95625518D01*
X114156442Y-95625518D01*
G37*
G36*
X131779499Y-95998445D02*
G01*
X131816995Y-96009820D01*
X131851554Y-96028292D01*
X131881847Y-96053153D01*
X131906708Y-96083446D01*
X131925180Y-96118005D01*
X131936555Y-96155501D01*
X131941000Y-96200638D01*
X131941000Y-96839362D01*
X131936555Y-96884499D01*
X131925180Y-96921995D01*
X131906708Y-96956554D01*
X131881847Y-96986847D01*
X131851554Y-97011708D01*
X131816995Y-97030180D01*
X131779499Y-97041555D01*
X131734362Y-97046000D01*
X130995638Y-97046000D01*
X130950501Y-97041555D01*
X130913005Y-97030180D01*
X130878446Y-97011708D01*
X130848153Y-96986847D01*
X130823292Y-96956554D01*
X130804820Y-96921995D01*
X130793445Y-96884499D01*
X130789000Y-96839362D01*
X130789000Y-96200638D01*
X130793445Y-96155501D01*
X130804820Y-96118005D01*
X130823292Y-96083446D01*
X130848153Y-96053153D01*
X130878446Y-96028292D01*
X130913005Y-96009820D01*
X130950501Y-95998445D01*
X130995638Y-95994000D01*
X131734362Y-95994000D01*
X131779499Y-95998445D01*
X131779499Y-95998445D01*
G37*
G36*
X130029499Y-95998445D02*
G01*
X130066995Y-96009820D01*
X130101554Y-96028292D01*
X130131847Y-96053153D01*
X130156708Y-96083446D01*
X130175180Y-96118005D01*
X130186555Y-96155501D01*
X130191000Y-96200638D01*
X130191000Y-96839362D01*
X130186555Y-96884499D01*
X130175180Y-96921995D01*
X130156708Y-96956554D01*
X130131847Y-96986847D01*
X130101554Y-97011708D01*
X130066995Y-97030180D01*
X130029499Y-97041555D01*
X129984362Y-97046000D01*
X129245638Y-97046000D01*
X129200501Y-97041555D01*
X129163005Y-97030180D01*
X129128446Y-97011708D01*
X129098153Y-96986847D01*
X129073292Y-96956554D01*
X129054820Y-96921995D01*
X129043445Y-96884499D01*
X129039000Y-96839362D01*
X129039000Y-96200638D01*
X129043445Y-96155501D01*
X129054820Y-96118005D01*
X129073292Y-96083446D01*
X129098153Y-96053153D01*
X129128446Y-96028292D01*
X129163005Y-96009820D01*
X129200501Y-95998445D01*
X129245638Y-95994000D01*
X129984362Y-95994000D01*
X130029499Y-95998445D01*
X130029499Y-95998445D01*
G37*
G36*
X128079499Y-95998445D02*
G01*
X128116995Y-96009820D01*
X128151554Y-96028292D01*
X128181847Y-96053153D01*
X128206708Y-96083446D01*
X128225180Y-96118005D01*
X128236555Y-96155501D01*
X128241000Y-96200638D01*
X128241000Y-96839362D01*
X128236555Y-96884499D01*
X128225180Y-96921995D01*
X128206708Y-96956554D01*
X128181847Y-96986847D01*
X128151554Y-97011708D01*
X128116995Y-97030180D01*
X128079499Y-97041555D01*
X128034362Y-97046000D01*
X127295638Y-97046000D01*
X127250501Y-97041555D01*
X127213005Y-97030180D01*
X127178446Y-97011708D01*
X127148153Y-96986847D01*
X127123292Y-96956554D01*
X127104820Y-96921995D01*
X127093445Y-96884499D01*
X127089000Y-96839362D01*
X127089000Y-96200638D01*
X127093445Y-96155501D01*
X127104820Y-96118005D01*
X127123292Y-96083446D01*
X127148153Y-96053153D01*
X127178446Y-96028292D01*
X127213005Y-96009820D01*
X127250501Y-95998445D01*
X127295638Y-95994000D01*
X128034362Y-95994000D01*
X128079499Y-95998445D01*
X128079499Y-95998445D01*
G37*
G36*
X126329499Y-95998445D02*
G01*
X126366995Y-96009820D01*
X126401554Y-96028292D01*
X126431847Y-96053153D01*
X126456708Y-96083446D01*
X126475180Y-96118005D01*
X126486555Y-96155501D01*
X126491000Y-96200638D01*
X126491000Y-96839362D01*
X126486555Y-96884499D01*
X126475180Y-96921995D01*
X126456708Y-96956554D01*
X126431847Y-96986847D01*
X126401554Y-97011708D01*
X126366995Y-97030180D01*
X126329499Y-97041555D01*
X126284362Y-97046000D01*
X125545638Y-97046000D01*
X125500501Y-97041555D01*
X125463005Y-97030180D01*
X125428446Y-97011708D01*
X125398153Y-96986847D01*
X125373292Y-96956554D01*
X125354820Y-96921995D01*
X125343445Y-96884499D01*
X125339000Y-96839362D01*
X125339000Y-96200638D01*
X125343445Y-96155501D01*
X125354820Y-96118005D01*
X125373292Y-96083446D01*
X125398153Y-96053153D01*
X125428446Y-96028292D01*
X125463005Y-96009820D01*
X125500501Y-95998445D01*
X125545638Y-95994000D01*
X126284362Y-95994000D01*
X126329499Y-95998445D01*
X126329499Y-95998445D01*
G37*
G36*
X119145499Y-95998445D02*
G01*
X119182995Y-96009820D01*
X119217554Y-96028292D01*
X119247847Y-96053153D01*
X119272708Y-96083446D01*
X119291180Y-96118005D01*
X119302555Y-96155501D01*
X119307000Y-96200638D01*
X119307000Y-96839362D01*
X119302555Y-96884499D01*
X119291180Y-96921995D01*
X119272708Y-96956554D01*
X119247847Y-96986847D01*
X119217554Y-97011708D01*
X119182995Y-97030180D01*
X119145499Y-97041555D01*
X119100362Y-97046000D01*
X118361638Y-97046000D01*
X118316501Y-97041555D01*
X118279005Y-97030180D01*
X118244446Y-97011708D01*
X118214153Y-96986847D01*
X118189292Y-96956554D01*
X118170820Y-96921995D01*
X118159445Y-96884499D01*
X118155000Y-96839362D01*
X118155000Y-96200638D01*
X118159445Y-96155501D01*
X118170820Y-96118005D01*
X118189292Y-96083446D01*
X118214153Y-96053153D01*
X118244446Y-96028292D01*
X118279005Y-96009820D01*
X118316501Y-95998445D01*
X118361638Y-95994000D01*
X119100362Y-95994000D01*
X119145499Y-95998445D01*
X119145499Y-95998445D01*
G37*
G36*
X117395499Y-95998445D02*
G01*
X117432995Y-96009820D01*
X117467554Y-96028292D01*
X117497847Y-96053153D01*
X117522708Y-96083446D01*
X117541180Y-96118005D01*
X117552555Y-96155501D01*
X117557000Y-96200638D01*
X117557000Y-96839362D01*
X117552555Y-96884499D01*
X117541180Y-96921995D01*
X117522708Y-96956554D01*
X117497847Y-96986847D01*
X117467554Y-97011708D01*
X117432995Y-97030180D01*
X117395499Y-97041555D01*
X117350362Y-97046000D01*
X116611638Y-97046000D01*
X116566501Y-97041555D01*
X116529005Y-97030180D01*
X116494446Y-97011708D01*
X116464153Y-96986847D01*
X116439292Y-96956554D01*
X116420820Y-96921995D01*
X116409445Y-96884499D01*
X116405000Y-96839362D01*
X116405000Y-96200638D01*
X116409445Y-96155501D01*
X116420820Y-96118005D01*
X116439292Y-96083446D01*
X116464153Y-96053153D01*
X116494446Y-96028292D01*
X116529005Y-96009820D01*
X116566501Y-95998445D01*
X116611638Y-95994000D01*
X117350362Y-95994000D01*
X117395499Y-95998445D01*
X117395499Y-95998445D01*
G37*
G36*
X120400295Y-93595323D02*
G01*
X120407309Y-93597451D01*
X120421077Y-93604810D01*
X120443716Y-93614187D01*
X120467749Y-93618967D01*
X120492253Y-93618967D01*
X120516286Y-93614186D01*
X120538923Y-93604810D01*
X120552691Y-93597451D01*
X120559705Y-93595323D01*
X120573140Y-93594000D01*
X120886860Y-93594000D01*
X120900295Y-93595323D01*
X120907309Y-93597451D01*
X120921077Y-93604810D01*
X120943716Y-93614187D01*
X120967749Y-93618967D01*
X120992253Y-93618967D01*
X121016286Y-93614186D01*
X121038923Y-93604810D01*
X121052691Y-93597451D01*
X121059705Y-93595323D01*
X121073140Y-93594000D01*
X121386860Y-93594000D01*
X121400295Y-93595323D01*
X121407309Y-93597451D01*
X121421077Y-93604810D01*
X121443716Y-93614187D01*
X121467749Y-93618967D01*
X121492253Y-93618967D01*
X121516286Y-93614186D01*
X121538923Y-93604810D01*
X121552691Y-93597451D01*
X121559705Y-93595323D01*
X121573140Y-93594000D01*
X121886860Y-93594000D01*
X121900295Y-93595323D01*
X121907309Y-93597451D01*
X121921077Y-93604810D01*
X121943716Y-93614187D01*
X121967749Y-93618967D01*
X121992253Y-93618967D01*
X122016286Y-93614186D01*
X122038923Y-93604810D01*
X122052691Y-93597451D01*
X122059705Y-93595323D01*
X122073140Y-93594000D01*
X122386860Y-93594000D01*
X122400295Y-93595323D01*
X122407309Y-93597451D01*
X122421077Y-93604810D01*
X122443716Y-93614187D01*
X122467749Y-93618967D01*
X122492253Y-93618967D01*
X122516286Y-93614186D01*
X122538923Y-93604810D01*
X122552691Y-93597451D01*
X122559705Y-93595323D01*
X122573140Y-93594000D01*
X122886860Y-93594000D01*
X122900295Y-93595323D01*
X122907309Y-93597451D01*
X122921077Y-93604810D01*
X122943716Y-93614187D01*
X122967749Y-93618967D01*
X122992253Y-93618967D01*
X123016286Y-93614186D01*
X123038923Y-93604810D01*
X123052691Y-93597451D01*
X123059705Y-93595323D01*
X123073140Y-93594000D01*
X123386860Y-93594000D01*
X123400295Y-93595323D01*
X123407309Y-93597451D01*
X123421077Y-93604810D01*
X123443716Y-93614187D01*
X123467749Y-93618967D01*
X123492253Y-93618967D01*
X123516286Y-93614186D01*
X123538923Y-93604810D01*
X123552691Y-93597451D01*
X123559705Y-93595323D01*
X123573140Y-93594000D01*
X123886860Y-93594000D01*
X123900295Y-93595323D01*
X123907310Y-93597451D01*
X123913776Y-93600908D01*
X123919442Y-93605558D01*
X123924092Y-93611224D01*
X123927549Y-93617690D01*
X123929677Y-93624705D01*
X123931000Y-93638140D01*
X123931000Y-95101860D01*
X123929677Y-95115295D01*
X123927549Y-95122310D01*
X123924092Y-95128776D01*
X123919442Y-95134442D01*
X123913776Y-95139092D01*
X123907310Y-95142549D01*
X123900295Y-95144677D01*
X123886860Y-95146000D01*
X123573140Y-95146000D01*
X123559705Y-95144677D01*
X123552691Y-95142549D01*
X123538923Y-95135190D01*
X123516284Y-95125813D01*
X123492251Y-95121033D01*
X123467747Y-95121033D01*
X123443714Y-95125814D01*
X123421077Y-95135190D01*
X123407309Y-95142549D01*
X123400295Y-95144677D01*
X123386860Y-95146000D01*
X123073140Y-95146000D01*
X123059705Y-95144677D01*
X123052691Y-95142549D01*
X123038923Y-95135190D01*
X123016284Y-95125813D01*
X122992251Y-95121033D01*
X122967747Y-95121033D01*
X122943714Y-95125814D01*
X122921077Y-95135190D01*
X122907309Y-95142549D01*
X122900295Y-95144677D01*
X122886860Y-95146000D01*
X122573140Y-95146000D01*
X122559705Y-95144677D01*
X122552691Y-95142549D01*
X122538923Y-95135190D01*
X122516284Y-95125813D01*
X122492251Y-95121033D01*
X122467747Y-95121033D01*
X122443714Y-95125814D01*
X122421077Y-95135190D01*
X122407309Y-95142549D01*
X122400295Y-95144677D01*
X122386860Y-95146000D01*
X122073140Y-95146000D01*
X122059705Y-95144677D01*
X122052691Y-95142549D01*
X122038923Y-95135190D01*
X122016284Y-95125813D01*
X121992251Y-95121033D01*
X121967747Y-95121033D01*
X121943714Y-95125814D01*
X121921077Y-95135190D01*
X121907309Y-95142549D01*
X121900295Y-95144677D01*
X121886860Y-95146000D01*
X121573140Y-95146000D01*
X121559705Y-95144677D01*
X121552691Y-95142549D01*
X121538923Y-95135190D01*
X121516284Y-95125813D01*
X121492251Y-95121033D01*
X121467747Y-95121033D01*
X121443714Y-95125814D01*
X121421077Y-95135190D01*
X121407309Y-95142549D01*
X121400295Y-95144677D01*
X121386860Y-95146000D01*
X121073140Y-95146000D01*
X121059705Y-95144677D01*
X121052691Y-95142549D01*
X121038923Y-95135190D01*
X121016284Y-95125813D01*
X120992251Y-95121033D01*
X120967747Y-95121033D01*
X120943714Y-95125814D01*
X120921077Y-95135190D01*
X120907309Y-95142549D01*
X120900295Y-95144677D01*
X120886860Y-95146000D01*
X120573140Y-95146000D01*
X120559705Y-95144677D01*
X120552691Y-95142549D01*
X120538923Y-95135190D01*
X120516284Y-95125813D01*
X120492251Y-95121033D01*
X120467747Y-95121033D01*
X120443714Y-95125814D01*
X120421077Y-95135190D01*
X120407309Y-95142549D01*
X120400295Y-95144677D01*
X120386860Y-95146000D01*
X120073140Y-95146000D01*
X120059705Y-95144677D01*
X120052690Y-95142549D01*
X120046224Y-95139092D01*
X120040558Y-95134442D01*
X120035908Y-95128776D01*
X120032451Y-95122310D01*
X120030323Y-95115295D01*
X120029000Y-95101860D01*
X120029000Y-93638140D01*
X120030323Y-93624705D01*
X120032451Y-93617690D01*
X120035908Y-93611224D01*
X120040558Y-93605558D01*
X120046224Y-93600908D01*
X120052690Y-93597451D01*
X120059705Y-93595323D01*
X120073140Y-93594000D01*
X120386860Y-93594000D01*
X120400295Y-93595323D01*
X120400295Y-93595323D01*
G37*
G36*
X114947000Y-94881000D02*
G01*
X113145000Y-94881000D01*
X113145000Y-93079000D01*
X114947000Y-93079000D01*
X114947000Y-94881000D01*
X114947000Y-94881000D01*
G37*
G36*
X136468820Y-92948103D02*
G01*
X136502985Y-92958467D01*
X136534464Y-92975293D01*
X136562060Y-92997940D01*
X136584707Y-93025536D01*
X136601533Y-93057015D01*
X136611897Y-93091180D01*
X136616000Y-93132842D01*
X136616000Y-94382158D01*
X136611897Y-94423820D01*
X136601533Y-94457985D01*
X136584707Y-94489464D01*
X136562060Y-94517060D01*
X136534464Y-94539707D01*
X136502985Y-94556533D01*
X136468820Y-94566897D01*
X136427158Y-94571000D01*
X133352842Y-94571000D01*
X133311180Y-94566897D01*
X133277015Y-94556533D01*
X133245536Y-94539707D01*
X133217940Y-94517060D01*
X133195293Y-94489464D01*
X133178467Y-94457985D01*
X133168103Y-94423820D01*
X133164000Y-94382158D01*
X133164000Y-93132842D01*
X133168103Y-93091180D01*
X133178467Y-93057015D01*
X133195293Y-93025536D01*
X133217940Y-92997940D01*
X133245536Y-92975293D01*
X133277015Y-92958467D01*
X133311180Y-92948103D01*
X133352842Y-92944000D01*
X136427158Y-92944000D01*
X136468820Y-92948103D01*
X136468820Y-92948103D01*
G37*
G36*
X120923499Y-91418445D02*
G01*
X120960995Y-91429820D01*
X120995554Y-91448292D01*
X121025847Y-91473153D01*
X121050708Y-91503446D01*
X121069180Y-91538005D01*
X121080555Y-91575501D01*
X121085000Y-91620638D01*
X121085000Y-92259362D01*
X121080555Y-92304499D01*
X121069180Y-92341995D01*
X121050708Y-92376554D01*
X121025847Y-92406847D01*
X120995554Y-92431708D01*
X120960995Y-92450180D01*
X120923499Y-92461555D01*
X120878362Y-92466000D01*
X120139638Y-92466000D01*
X120094501Y-92461555D01*
X120057005Y-92450180D01*
X120022446Y-92431708D01*
X119992153Y-92406847D01*
X119967292Y-92376554D01*
X119948820Y-92341995D01*
X119937445Y-92304499D01*
X119933000Y-92259362D01*
X119933000Y-91620638D01*
X119937445Y-91575501D01*
X119948820Y-91538005D01*
X119967292Y-91503446D01*
X119992153Y-91473153D01*
X120022446Y-91448292D01*
X120057005Y-91429820D01*
X120094501Y-91418445D01*
X120139638Y-91414000D01*
X120878362Y-91414000D01*
X120923499Y-91418445D01*
X120923499Y-91418445D01*
G37*
G36*
X119173499Y-91418445D02*
G01*
X119210995Y-91429820D01*
X119245554Y-91448292D01*
X119275847Y-91473153D01*
X119300708Y-91503446D01*
X119319180Y-91538005D01*
X119330555Y-91575501D01*
X119335000Y-91620638D01*
X119335000Y-92259362D01*
X119330555Y-92304499D01*
X119319180Y-92341995D01*
X119300708Y-92376554D01*
X119275847Y-92406847D01*
X119245554Y-92431708D01*
X119210995Y-92450180D01*
X119173499Y-92461555D01*
X119128362Y-92466000D01*
X118389638Y-92466000D01*
X118344501Y-92461555D01*
X118307005Y-92450180D01*
X118272446Y-92431708D01*
X118242153Y-92406847D01*
X118217292Y-92376554D01*
X118198820Y-92341995D01*
X118187445Y-92304499D01*
X118183000Y-92259362D01*
X118183000Y-91620638D01*
X118187445Y-91575501D01*
X118198820Y-91538005D01*
X118217292Y-91503446D01*
X118242153Y-91473153D01*
X118272446Y-91448292D01*
X118307005Y-91429820D01*
X118344501Y-91418445D01*
X118389638Y-91414000D01*
X119128362Y-91414000D01*
X119173499Y-91418445D01*
X119173499Y-91418445D01*
G37*
G36*
X122729499Y-91418445D02*
G01*
X122766995Y-91429820D01*
X122801554Y-91448292D01*
X122831847Y-91473153D01*
X122856708Y-91503446D01*
X122875180Y-91538005D01*
X122886555Y-91575501D01*
X122891000Y-91620638D01*
X122891000Y-92259362D01*
X122886555Y-92304499D01*
X122875180Y-92341995D01*
X122856708Y-92376554D01*
X122831847Y-92406847D01*
X122801554Y-92431708D01*
X122766995Y-92450180D01*
X122729499Y-92461555D01*
X122684362Y-92466000D01*
X121945638Y-92466000D01*
X121900501Y-92461555D01*
X121863005Y-92450180D01*
X121828446Y-92431708D01*
X121798153Y-92406847D01*
X121773292Y-92376554D01*
X121754820Y-92341995D01*
X121743445Y-92304499D01*
X121739000Y-92259362D01*
X121739000Y-91620638D01*
X121743445Y-91575501D01*
X121754820Y-91538005D01*
X121773292Y-91503446D01*
X121798153Y-91473153D01*
X121828446Y-91448292D01*
X121863005Y-91429820D01*
X121900501Y-91418445D01*
X121945638Y-91414000D01*
X122684362Y-91414000D01*
X122729499Y-91418445D01*
X122729499Y-91418445D01*
G37*
G36*
X124479499Y-91418445D02*
G01*
X124516995Y-91429820D01*
X124551554Y-91448292D01*
X124581847Y-91473153D01*
X124606708Y-91503446D01*
X124625180Y-91538005D01*
X124636555Y-91575501D01*
X124641000Y-91620638D01*
X124641000Y-92259362D01*
X124636555Y-92304499D01*
X124625180Y-92341995D01*
X124606708Y-92376554D01*
X124581847Y-92406847D01*
X124551554Y-92431708D01*
X124516995Y-92450180D01*
X124479499Y-92461555D01*
X124434362Y-92466000D01*
X123695638Y-92466000D01*
X123650501Y-92461555D01*
X123613005Y-92450180D01*
X123578446Y-92431708D01*
X123548153Y-92406847D01*
X123523292Y-92376554D01*
X123504820Y-92341995D01*
X123493445Y-92304499D01*
X123489000Y-92259362D01*
X123489000Y-91620638D01*
X123493445Y-91575501D01*
X123504820Y-91538005D01*
X123523292Y-91503446D01*
X123548153Y-91473153D01*
X123578446Y-91448292D01*
X123613005Y-91429820D01*
X123650501Y-91418445D01*
X123695638Y-91414000D01*
X124434362Y-91414000D01*
X124479499Y-91418445D01*
X124479499Y-91418445D01*
G37*
G36*
X131335000Y-90073000D02*
G01*
X124833000Y-90073000D01*
X124833000Y-84171000D01*
X131335000Y-84171000D01*
X131335000Y-90073000D01*
X131335000Y-90073000D01*
G37*
G36*
X122935000Y-90053000D02*
G01*
X120633000Y-90053000D01*
X120633000Y-88751000D01*
X122935000Y-88751000D01*
X122935000Y-90053000D01*
X122935000Y-90053000D01*
G37*
G36*
X136468820Y-86973103D02*
G01*
X136502985Y-86983467D01*
X136534464Y-87000293D01*
X136562060Y-87022940D01*
X136584707Y-87050536D01*
X136601533Y-87082015D01*
X136611897Y-87116180D01*
X136616000Y-87157842D01*
X136616000Y-88407158D01*
X136611897Y-88448820D01*
X136601533Y-88482985D01*
X136584707Y-88514464D01*
X136562060Y-88542060D01*
X136534464Y-88564707D01*
X136502985Y-88581533D01*
X136468820Y-88591897D01*
X136427158Y-88596000D01*
X133352842Y-88596000D01*
X133311180Y-88591897D01*
X133277015Y-88581533D01*
X133245536Y-88564707D01*
X133217940Y-88542060D01*
X133195293Y-88514464D01*
X133178467Y-88482985D01*
X133168103Y-88448820D01*
X133164000Y-88407158D01*
X133164000Y-87157842D01*
X133168103Y-87116180D01*
X133178467Y-87082015D01*
X133195293Y-87050536D01*
X133217940Y-87022940D01*
X133245536Y-87000293D01*
X133277015Y-86983467D01*
X133311180Y-86973103D01*
X133352842Y-86969000D01*
X136427158Y-86969000D01*
X136468820Y-86973103D01*
X136468820Y-86973103D01*
G37*
G36*
X122935000Y-87773000D02*
G01*
X120633000Y-87773000D01*
X120633000Y-86471000D01*
X122935000Y-86471000D01*
X122935000Y-87773000D01*
X122935000Y-87773000D01*
G37*
G36*
X122935000Y-85493000D02*
G01*
X120633000Y-85493000D01*
X120633000Y-84191000D01*
X122935000Y-84191000D01*
X122935000Y-85493000D01*
X122935000Y-85493000D01*
G37*
M02*
